<svg width="310" height="310" viewBox="0 0 310 310" fill="none" xmlns="http://www.w3.org/2000/svg">
<path d="M296.682 136.257C300.483 102.87 289.193 69.3408 265.496 45.5204C253.84 33.8024 237.906 22.7664 216.733 17.4344C157.35 2.47999 118.866 16.1758 99.6278 52.5636C80.3892 88.9514 25.1782 82.677 16.3928 145.415C7.60741 208.153 50.2758 277.14 122.63 280.922C194.984 284.704 185.671 248.682 225.246 233.219C255.521 221.402 291.016 186.087 296.682 136.257Z" fill="#0044FF"/>
<path opacity="0.7" d="M296.682 136.257C300.483 102.87 289.193 69.3408 265.496 45.5204C253.84 33.8024 237.906 22.7664 216.733 17.4344C157.35 2.47999 118.866 16.1758 99.6278 52.5636C80.3892 88.9514 25.1782 82.677 16.3928 145.415C7.60741 208.153 50.2758 277.14 122.63 280.922C194.984 284.704 185.671 248.682 225.246 233.219C255.521 221.402 291.016 186.087 296.682 136.257Z" fill="white"/>
<path d="M258.497 176.08C258.5 176.073 258.501 176.066 258.501 176.058C258.501 176.051 258.5 176.043 258.497 176.036C258.494 176.029 258.49 176.023 258.484 176.018C258.479 176.012 258.473 176.008 258.466 176.006C258.451 175.999 258.434 175.999 258.419 176.005C258.404 176.011 258.392 176.022 258.385 176.037C256.613 180.304 255.212 184.716 254.2 189.224C253.169 193.747 252.391 198.323 251.869 202.932L251.54 206.398C251.491 206.975 251.429 207.551 251.385 208.134L251.292 209.87C251.243 211.029 251.168 212.189 251.137 213.348L251.168 216.833L251.205 218.575C251.236 219.151 251.274 219.728 251.317 220.311C251.404 221.464 251.472 241.905 251.577 243.059C251.801 245.365 252.148 247.665 252.507 249.947C252.509 249.961 252.515 249.975 252.525 249.985C252.535 249.995 252.549 250.001 252.563 250.003C252.58 250.003 252.595 249.996 252.607 249.984C252.619 249.973 252.625 249.957 252.625 249.941C252.625 248.781 252.569 247.628 252.545 246.475C252.52 245.322 252.414 244.168 252.427 243.015C252.439 241.862 252.427 221.433 252.39 220.28V218.556V216.826V213.379L252.483 209.932L252.52 208.202C252.52 207.632 252.588 207.055 252.619 206.479L252.83 203.038C253.223 198.445 253.875 193.879 254.783 189.36C255.639 184.836 256.881 180.392 258.497 176.08Z" fill="#263238"/>
<path d="M258.993 194.097C258.997 194.082 258.996 194.065 258.989 194.05C258.982 194.035 258.97 194.023 258.955 194.017C258.939 194.013 258.922 194.015 258.907 194.023C258.892 194.031 258.88 194.044 258.875 194.06C257.886 196.932 257.058 199.857 256.395 202.821C255.747 205.793 255.263 208.798 254.944 211.823C254.64 214.842 254.324 217.868 254.262 220.9C254.2 223.932 254.262 246.252 254.584 249.283C254.584 249.297 254.589 249.311 254.598 249.321C254.608 249.331 254.62 249.338 254.634 249.339C254.642 249.341 254.651 249.341 254.659 249.339C254.667 249.337 254.675 249.333 254.682 249.328C254.688 249.323 254.694 249.316 254.697 249.308C254.701 249.3 254.702 249.292 254.702 249.283C255.056 246.264 255.266 223.969 255.477 220.956C255.688 217.942 255.719 214.923 255.917 211.904C256.34 205.882 257.362 199.917 258.968 194.097H258.993Z" fill="#263238"/>
<path d="M268.993 200.44C268.981 200.43 268.966 200.424 268.95 200.424C268.934 200.424 268.919 200.43 268.906 200.44C266.407 202.049 264.155 204.015 262.223 206.274C261.25 207.409 260.375 208.625 259.606 209.907L259.067 210.924L258.652 211.978C258.506 212.326 258.382 212.682 258.28 213.044C258.174 213.404 258.05 213.764 257.957 214.123C257.207 217.025 256.717 239.258 256.575 242.228C256.424 245.193 256.533 248.166 256.903 251.112C256.907 251.125 256.914 251.137 256.924 251.146C256.934 251.154 256.946 251.16 256.959 251.162C256.967 251.164 256.976 251.164 256.984 251.162C256.992 251.16 257 251.156 257.007 251.151C257.013 251.145 257.019 251.139 257.022 251.131C257.026 251.123 257.027 251.115 257.027 251.106L257.79 242.308C258.094 239.401 258.28 217.198 258.9 214.359C258.98 214.005 259.086 213.658 259.172 213.311C259.256 212.958 259.36 212.611 259.482 212.269L259.836 211.253L260.301 210.298C260.994 209.019 261.795 207.802 262.694 206.658C264.478 204.325 266.594 202.266 268.975 200.545C268.985 200.541 268.994 200.535 269.001 200.527C269.008 200.519 269.012 200.509 269.014 200.498C269.016 200.487 269.015 200.476 269.011 200.466C269.008 200.456 269.001 200.447 268.993 200.44Z" fill="#263238"/>
<path d="M264.151 211.742C262.85 212.69 261.806 213.947 261.113 215.4C260.38 216.824 259.808 218.326 259.408 219.877C259.29 220.261 259.191 220.652 259.11 221.036L258.831 222.208C258.695 222.995 258.583 243.065 258.54 243.865C258.497 244.664 258.503 245.458 258.54 246.252C258.599 247.051 258.704 247.846 258.856 248.632C258.86 248.644 258.866 248.654 258.875 248.661C258.884 248.669 258.894 248.674 258.906 248.676C258.913 248.678 258.921 248.678 258.928 248.677C258.936 248.676 258.943 248.673 258.949 248.669C258.956 248.665 258.961 248.659 258.965 248.653C258.97 248.647 258.973 248.64 258.974 248.632C259.159 247.86 259.3 247.077 259.396 246.289C259.52 245.52 259.644 244.745 259.737 243.976C259.83 243.207 259.947 242.445 260.009 241.676C260.071 240.907 260.171 220.85 260.338 220.1C260.606 218.577 261.043 217.088 261.64 215.661C262.179 214.206 263.054 212.9 264.194 211.848C264.202 211.836 264.206 211.822 264.206 211.808C264.206 211.793 264.202 211.779 264.194 211.767C264.189 211.76 264.183 211.755 264.175 211.75C264.168 211.746 264.16 211.743 264.151 211.742Z" fill="#263238"/>
<path d="M250.127 220.553C249.798 216.647 249.153 212.784 248.546 208.921C247.938 205.059 247.262 201.202 246.555 197.358C245.849 193.514 245.055 189.683 244.23 185.864C244.225 185.848 244.215 185.835 244.201 185.826C244.188 185.817 244.172 185.813 244.156 185.814C244.141 185.817 244.127 185.826 244.118 185.838C244.109 185.851 244.105 185.867 244.106 185.882C244.776 189.732 245.384 193.595 245.966 197.458C246.549 201.32 247.101 205.183 247.591 209.058C248.081 212.933 248.44 216.814 248.924 220.683L250.356 251.584C250.356 251.598 250.362 251.613 250.372 251.623C250.383 251.634 250.397 251.639 250.412 251.639C250.427 251.639 250.442 251.634 250.454 251.623C250.465 251.613 250.472 251.599 250.474 251.584C250.517 250.604 250.523 249.624 250.548 248.639C250.573 247.653 250.505 246.679 250.486 245.7C250.437 243.741 250.275 222.506 250.127 220.553Z" fill="#263238"/>
<path d="M247.783 220.497C247.572 218.953 247.293 217.397 246.996 215.878L246.45 213.602C246.27 212.84 246.097 212.077 245.873 211.327C245.097 208.299 244.1 205.331 242.891 202.449L242.42 201.376L241.899 200.322C241.571 199.615 241.174 198.939 240.789 198.257C240.024 196.895 239.077 195.644 237.975 194.537C237.963 194.528 237.948 194.524 237.933 194.525C237.918 194.526 237.904 194.533 237.894 194.543C237.883 194.554 237.877 194.568 237.876 194.583C237.875 194.598 237.879 194.612 237.888 194.624C238.915 195.778 239.782 197.065 240.467 198.45C240.808 199.144 241.161 199.826 241.453 200.545L241.912 201.605L242.321 202.69C243.4 205.586 244.27 208.555 244.925 211.575C245.278 213.075 245.514 214.607 245.805 216.12L246.171 218.407C246.301 219.17 246.462 219.926 246.574 220.689C246.816 222.22 247.095 243.009 247.361 244.547C247.628 246.084 247.882 247.609 248.205 249.141C248.208 249.154 248.215 249.165 248.225 249.174C248.235 249.183 248.247 249.188 248.26 249.19C248.269 249.191 248.277 249.191 248.285 249.188C248.293 249.185 248.3 249.18 248.306 249.174C248.312 249.168 248.317 249.161 248.32 249.153C248.323 249.145 248.323 249.137 248.322 249.128C248.322 247.566 248.322 246.028 248.217 244.447C248.112 242.866 247.944 222.053 247.783 220.497Z" fill="#263238"/>
<path d="M244.553 220.72C243.827 218.674 242.99 216.665 242.073 214.7C241.154 212.741 240.119 210.838 238.973 209.002C238.961 208.992 238.945 208.986 238.929 208.986C238.914 208.986 238.898 208.992 238.886 209.002C238.876 209.014 238.87 209.03 238.87 209.045C238.87 209.061 238.876 209.077 238.886 209.089C239.887 210.993 240.773 212.956 241.54 214.966C242.333 216.963 243.046 218.99 243.641 221.049C244.237 223.107 244.695 244.485 245.241 246.549C245.787 248.614 246.283 250.697 246.915 252.786C246.918 252.799 246.926 252.811 246.936 252.82C246.945 252.828 246.958 252.834 246.971 252.836C246.988 252.835 247.003 252.828 247.016 252.817C247.028 252.806 247.036 252.791 247.039 252.774C247.057 250.593 246.849 248.415 246.419 246.276C246.028 244.082 245.272 222.741 244.553 220.72Z" fill="#263238"/>
<path d="M244.416 246.803C244.021 245.524 243.443 244.309 242.699 243.195C241.992 242.067 241.18 221.712 240.219 220.807C239.722 220.364 239.189 219.964 238.626 219.61C238.07 219.247 237.461 218.971 236.821 218.792C236.807 218.788 236.793 218.79 236.779 218.795C236.766 218.801 236.755 218.81 236.747 218.823C236.741 218.838 236.74 218.854 236.746 218.869C236.752 218.884 236.763 218.897 236.778 218.903C237.928 219.457 238.947 220.25 239.766 221.228C240.616 222.171 241.292 242.538 241.856 243.666C242.42 244.795 242.755 246.028 243.269 247.182C243.499 247.802 243.722 248.372 243.989 248.961C244.205 249.581 244.466 250.184 244.77 250.765C244.779 250.769 244.788 250.771 244.798 250.771C244.807 250.771 244.817 250.769 244.826 250.765C244.833 250.766 244.841 250.765 244.849 250.763C244.856 250.76 244.863 250.757 244.869 250.751C244.875 250.746 244.88 250.74 244.883 250.732C244.886 250.725 244.888 250.717 244.888 250.709C244.913 250.043 244.888 249.376 244.813 248.713C244.714 248.07 244.581 247.433 244.416 246.803Z" fill="#263238"/>
<path d="M244.658 191.45C242.708 190.905 240.944 189.839 239.556 188.364C238.169 186.89 237.21 185.065 236.784 183.086C235.309 176.192 240.064 179.149 235.798 168.318C231.533 157.486 232.5 155.031 233.994 151.9C235.488 148.769 236.294 149.767 237.603 153.865C238.911 157.964 243.679 164.368 245.483 176.347C247.287 188.325 244.658 191.45 244.658 191.45Z" fill="#0044FF"/>
<path d="M257.3 179.8C257.3 179.8 253.034 178.324 252.867 170.289C252.7 162.254 255.967 163.891 256.482 153.878C256.996 143.865 257.629 136.815 259.433 136.654C261.237 136.493 265.992 141.577 267.635 152.731C269.278 163.885 265.503 171.269 262.223 174.555C258.943 177.841 257.3 179.8 257.3 179.8Z" fill="#0044FF"/>
<path d="M242.364 201.128C242.364 201.128 241.378 195.226 239.413 192.448C237.448 189.67 233.176 187.197 230.386 181.784C227.596 176.371 224.483 173.724 224.645 181.455C224.806 189.187 228.253 193.105 232.519 195.715C236.784 198.326 242.364 201.128 242.364 201.128Z" fill="#0044FF"/>
<path d="M240.56 211.302C240.56 211.302 236.623 203.757 230.882 198.177C225.141 192.597 220.54 189.813 222.202 192.597C223.863 195.381 225.81 195.226 228.6 200.148C231.39 205.071 230.572 208.68 234.509 211.47C238.446 214.26 240.56 211.302 240.56 211.302Z" fill="#0044FF"/>
<path d="M240.064 220.98C239.903 220.491 239.735 216.882 234.162 213.931C228.588 210.98 223.33 212.121 223.987 213.602C224.645 215.084 228.092 217.539 231.533 219.015C234.974 220.491 240.064 220.98 240.064 220.98Z" fill="#0044FF"/>
<path d="M256.965 201.457C256.965 201.457 254.485 198.357 255.818 191.778C257.151 185.2 260.084 186.856 263.364 183.415C266.643 179.974 265.986 179.478 269.272 175.863C272.558 172.248 275.503 170.283 276.818 171.765C278.132 173.247 276.16 177.835 274.189 180.445C272.217 183.055 269.105 184.382 267.629 187.668C266.154 190.954 266.811 196.199 263.035 198.66C259.259 201.122 256.965 201.457 256.965 201.457Z" fill="#0044FF"/>
<path d="M265.168 203.267C265.168 203.267 271.076 196.54 275.342 191.617C279.608 186.694 281.244 182.937 281.412 186.198C281.579 189.46 282.887 192.107 279.44 196.373C275.993 200.638 265.168 203.267 265.168 203.267Z" fill="#0044FF"/>
<path d="M262.049 214.092C262.049 214.092 261.888 211.47 271.238 205.412C280.587 199.355 284.53 198.195 283.545 200.657C282.559 203.118 278.454 205.58 274.028 210.006C269.601 214.433 262.049 214.092 262.049 214.092Z" fill="#0044FF"/>
<path d="M245.049 190.749C245.049 190.749 242.854 178.969 240.56 170.618C238.266 162.266 236.784 157.164 236.784 157.164" stroke="#ABABAB" stroke-linecap="round" stroke-linejoin="round"/>
<path d="M256.916 179.924C256.916 179.924 260.902 167.171 262.217 159.464C263.531 151.757 262.049 146.01 261.392 142.569" stroke="#ABABAB" stroke-linecap="round" stroke-linejoin="round"/>
<path d="M241.843 200.88C240.079 197.842 238.056 194.961 235.798 192.268C232.19 188.003 229.4 185.702 227.738 181.604" stroke="#ABABAB" stroke-linecap="round" stroke-linejoin="round"/>
<path d="M256.965 201.457C256.965 201.457 258.28 193.583 261.392 189.484C264.504 185.386 270.748 178.982 273.209 174.883" stroke="#ABABAB" stroke-linecap="round" stroke-linejoin="round"/>
<path d="M239.68 220.801C239.68 220.801 234.162 217.211 230.225 215.221" stroke="#ABABAB" stroke-linecap="round" stroke-linejoin="round"/>
<path d="M254.882 276.353H247.659C247.034 276.353 246.422 276.169 245.901 275.822C245.38 275.476 244.974 274.983 244.733 274.406C242.37 268.751 239.866 241.707 239.866 241.707H262.669C262.669 241.707 260.189 268.751 257.802 274.406C257.562 274.982 257.157 275.475 256.637 275.822C256.117 276.168 255.507 276.353 254.882 276.353Z" fill="#263238"/>
<path d="M255.39 201.041C255.39 201.041 252.29 204.309 249.81 203.348C247.33 202.387 245.563 200.396 242.885 202.449C240.207 204.501 241.936 208.537 245.005 212.765C248.074 216.994 250.089 218.965 252.352 216.82C254.615 214.675 260.189 211.804 260.375 206.231C260.561 200.657 260.958 198.741 255.39 201.041Z" fill="#0044FF"/>
<path d="M259.811 217.18C258.673 218.498 257.109 219.376 255.39 219.66C252.359 220.28 248.775 217.434 248.911 220.664C249.048 223.894 251.931 226.771 256.351 226.579C260.772 226.387 263.841 227.348 264.61 229.059C265.379 230.77 267.71 229.251 266.724 224.062C265.738 218.872 263.841 216.417 259.811 217.18Z" fill="#0044FF"/>
<path d="M246.76 225.637C245.545 225.413 244.293 225.479 243.108 225.829C241 226.405 240.424 227.943 241.192 230.057C241.961 232.171 243.877 234.093 244.646 232.537C245.415 230.981 245.607 230.057 247.746 229.437C249.885 228.817 249.24 225.637 246.76 225.637Z" fill="#0044FF"/>
<path d="M221.96 115.5C221.633 115.708 221.359 115.991 221.161 116.325C220.963 116.659 220.846 117.034 220.819 117.422C220.788 117.931 220.926 118.436 221.21 118.86L221.675 119.48L229.487 122.431L232.438 114.619L233.058 114.161C233.477 113.872 233.982 113.734 234.49 113.77C234.877 113.794 235.254 113.909 235.589 114.105C235.923 114.301 236.208 114.573 236.418 114.898C236.751 115.379 237.222 115.747 237.77 115.952C239.394 116.572 241.273 115.599 241.961 113.782C242.649 111.966 241.887 109.976 240.262 109.362C239.715 109.159 239.119 109.125 238.551 109.263C238.179 109.361 237.79 109.375 237.412 109.302C237.034 109.229 236.677 109.071 236.369 108.841C235.964 108.53 235.674 108.094 235.544 107.601L235.371 106.838L238.322 99.0264L230.522 96.1L230.07 95.48C229.779 95.0589 229.637 94.5526 229.667 94.0416C229.693 93.6543 229.81 93.2786 230.008 92.9448C230.206 92.6109 230.48 92.3283 230.807 92.1196C231.284 91.7827 231.651 91.3125 231.861 90.768C232.481 89.1312 231.502 87.2464 229.679 86.5582C228.865 86.2029 227.944 86.1834 227.116 86.5039C226.289 86.8244 225.621 87.4589 225.258 88.2694C225.053 88.8145 225.019 89.4091 225.159 89.9744C225.263 90.3476 225.279 90.7396 225.207 91.1201C225.135 91.5006 224.976 91.8595 224.744 92.1692C224.427 92.567 223.993 92.8554 223.504 92.9938L222.735 93.1612L214.929 90.21L211.959 97.96L211.339 98.4188C210.915 98.7112 210.403 98.8511 209.889 98.8156C209.505 98.7836 209.134 98.6655 208.802 98.4701C208.47 98.2748 208.187 98.0071 207.973 97.6872C207.64 97.2125 207.174 96.8477 206.634 96.6394C205.787 96.4183 204.889 96.5186 204.112 96.9209C203.335 97.3232 202.734 97.999 202.426 98.8179C202.118 99.6368 202.124 100.541 202.443 101.356C202.762 102.17 203.371 102.838 204.154 103.23C204.701 103.433 205.297 103.467 205.865 103.329C206.238 103.225 206.63 103.209 207.01 103.283C207.39 103.357 207.747 103.52 208.053 103.757C208.457 104.066 208.743 104.504 208.866 104.997L209.045 105.766L206.094 113.578L213.857 116.56L214.632 116.393C215.122 116.257 215.557 115.968 215.872 115.568C216.106 115.26 216.265 114.902 216.336 114.522C216.407 114.142 216.388 113.751 216.281 113.379C216.145 112.811 216.182 112.215 216.386 111.668C217.006 110.038 218.978 109.281 220.801 109.969C222.623 110.658 223.603 112.53 222.989 114.167C222.782 114.701 222.425 115.164 221.96 115.5Z" fill="#0044FF"/>
<path d="M267.387 54.8204C267.514 54.5318 267.582 54.2212 267.588 53.9062C267.594 53.5912 267.538 53.2782 267.423 52.985C267.308 52.6918 267.136 52.4242 266.917 52.1976C266.698 51.971 266.436 51.7899 266.147 51.6646C265.751 51.5147 265.318 51.4909 264.907 51.5964C264.642 51.6635 264.364 51.6711 264.095 51.6186C263.826 51.5661 263.572 51.4547 263.351 51.2926C263.06 51.0674 262.852 50.7508 262.762 50.3936L262.638 49.848L264.746 44.268L259.166 42.16L258.838 41.7074C258.631 41.4056 258.53 41.0434 258.552 40.6782C258.572 40.4015 258.656 40.1332 258.797 39.8944C258.938 39.6556 259.132 39.4527 259.365 39.3018C259.706 39.0629 259.969 38.7286 260.121 38.3408C260.236 37.7523 260.139 37.1422 259.847 36.6187C259.554 36.0951 259.086 35.692 258.525 35.481C257.964 35.2699 257.346 35.2645 256.781 35.4656C256.217 35.6668 255.741 36.0616 255.44 36.58C255.287 36.9756 255.261 37.4089 255.366 37.82C255.44 38.0867 255.451 38.367 255.4 38.639C255.348 38.911 255.235 39.1675 255.068 39.3886C254.847 39.691 254.53 39.9095 254.169 40.0086L253.617 40.1326L248.037 38.0246L245.929 43.6046L245.464 43.927C245.164 44.1429 244.797 44.2441 244.429 44.2122C244.154 44.1909 243.888 44.1073 243.651 43.9676C243.413 43.8279 243.211 43.6359 243.059 43.4062C242.822 43.0668 242.49 42.8057 242.104 42.656C241.501 42.506 240.864 42.5825 240.314 42.871C239.764 43.1594 239.339 43.6398 239.119 44.2209C238.9 44.802 238.901 45.4435 239.123 46.0236C239.346 46.6037 239.773 47.082 240.324 47.368C240.721 47.5168 241.153 47.5427 241.564 47.4424C241.83 47.3668 242.11 47.3549 242.382 47.4077C242.653 47.4604 242.909 47.5764 243.127 47.7462C243.416 47.9675 243.621 48.2799 243.71 48.6328L243.84 49.1784L241.726 54.7584L247.306 56.8664L247.857 56.7424C248.217 56.6403 248.533 56.4223 248.756 56.1224C248.922 55.9019 249.034 55.6462 249.085 55.3752C249.135 55.1043 249.123 54.8253 249.048 54.56C248.948 54.1485 248.974 53.7165 249.122 53.32C249.403 52.7591 249.883 52.3223 250.467 52.0942C251.052 51.866 251.7 51.8626 252.287 52.0847C252.874 52.3068 253.357 52.7386 253.644 53.2965C253.931 53.8545 254.001 54.499 253.84 55.1056C253.691 55.4947 253.427 55.8297 253.084 56.0666C252.852 56.2185 252.659 56.4217 252.518 56.6603C252.377 56.8989 252.293 57.1667 252.272 57.443C252.25 57.8054 252.348 58.165 252.551 58.466L252.886 58.9248L258.466 61.0328L260.58 55.4528L261.032 55.1242C261.332 54.9176 261.693 54.8191 262.055 54.8452C262.332 54.8636 262.6 54.9461 262.839 55.0859C263.077 55.2258 263.281 55.4193 263.432 55.6512C263.673 55.9927 264.009 56.2557 264.399 56.4076C265.006 56.5932 265.661 56.5303 266.222 56.2327C266.782 55.9351 267.201 55.427 267.387 54.8204Z" fill="#0044FF"/>
<path d="M198.822 40.6038C199.256 40.801 199.741 40.8615 200.21 40.7774C200.522 40.7141 200.845 40.7225 201.153 40.802C201.461 40.8815 201.747 41.03 201.99 41.2362C202.307 41.5194 202.525 41.8979 202.61 42.315L202.703 42.935L199.869 49.1784L206.113 52.018L206.454 52.5698C206.679 52.9415 206.766 53.3802 206.702 53.8098C206.655 54.1231 206.538 54.4218 206.36 54.6837C206.182 54.9456 205.947 55.164 205.673 55.3226C205.264 55.5669 204.939 55.9303 204.743 56.3642C204.522 57.0449 204.559 57.7832 204.848 58.4382C205.136 59.0932 205.656 59.6191 206.307 59.9156C206.958 60.2122 207.696 60.2587 208.379 60.0462C209.063 59.8337 209.644 59.3772 210.013 58.7636C210.208 58.3197 210.267 57.8273 210.18 57.35C210.115 57.0381 210.124 56.7155 210.206 56.4076C210.287 56.0998 210.44 55.8153 210.651 55.5768C210.921 55.2549 211.293 55.0359 211.705 54.9568L212.325 54.8452L218.575 57.6848L221.427 51.46L221.34 50.84C221.253 50.4254 221.036 50.0496 220.72 49.7674C220.479 49.5605 220.194 49.4115 219.887 49.332C219.579 49.2524 219.258 49.2444 218.947 49.3086C218.475 49.3936 217.988 49.3331 217.552 49.135C216.931 48.7701 216.467 48.1881 216.25 47.5015C216.033 46.8148 216.078 46.0721 216.376 45.4165C216.674 44.761 217.204 44.239 217.864 43.9514C218.525 43.6637 219.268 43.6307 219.951 43.8588C220.388 44.0557 220.754 44.3826 220.999 44.795C221.155 45.0732 221.373 45.3114 221.637 45.4911C221.9 45.6707 222.202 45.7869 222.518 45.8304C222.933 45.8815 223.352 45.7967 223.715 45.5886L224.26 45.2352L227.106 38.9918L220.856 36.1522L220.515 35.6066C220.299 35.2476 220.214 34.8248 220.274 34.41C220.314 34.0852 220.433 33.7748 220.618 33.5051C220.804 33.2354 221.051 33.0142 221.34 32.86C221.751 32.6109 222.077 32.2436 222.276 31.806C222.493 31.126 222.453 30.39 222.164 29.7376C221.874 29.0852 221.355 28.5618 220.705 28.2667C220.055 27.9716 219.32 27.9252 218.638 28.1365C217.956 28.3477 217.375 28.8019 217.006 29.4128C216.809 29.8497 216.747 30.3352 216.826 30.8078C216.889 31.1178 216.88 31.4381 216.801 31.7442C216.721 32.0504 216.573 32.3344 216.368 32.5748C216.09 32.8992 215.709 33.1181 215.289 33.1948L214.669 33.294L208.419 30.4544L205.58 36.704L205.034 37.045C204.672 37.26 204.249 37.3494 203.831 37.2992C203.516 37.2536 203.215 37.1359 202.953 36.9553C202.691 36.7746 202.473 36.5359 202.318 36.2576C202.069 35.8465 201.702 35.5202 201.264 35.3214C200.581 35.0933 199.838 35.1263 199.178 35.414C198.517 35.7016 197.987 36.2236 197.689 36.8791C197.391 37.5347 197.346 38.2774 197.563 38.9641C197.78 39.6507 198.244 40.2327 198.865 40.5976L198.822 40.6038Z" fill="#0044FF"/>
<path d="M225.606 58.094C225.606 58.55 225.744 58.9953 226.002 59.3712C226.18 59.6134 226.299 59.8932 226.35 60.1889C226.402 60.4846 226.385 60.7882 226.3 61.0762C226.18 61.4606 225.939 61.7956 225.612 62.031L225.091 62.3658H218.587V81.9082H225.091L225.612 81.5734C225.942 81.3332 226.184 80.9912 226.3 80.6C226.384 80.311 226.401 80.0065 226.35 79.7098C226.298 79.4132 226.179 79.1324 226.002 78.8888C225.745 78.5126 225.607 78.0675 225.606 77.6116C225.684 76.9366 226.008 76.3141 226.516 75.8622C227.023 75.4104 227.679 75.1607 228.358 75.1607C229.038 75.1607 229.694 75.4104 230.201 75.8622C230.709 76.3141 231.033 76.9366 231.111 77.6116C231.108 78.0672 230.97 78.5116 230.714 78.8888C230.534 79.1317 230.412 79.4134 230.359 79.7116C230.307 80.0097 230.324 80.316 230.411 80.6062C230.531 80.9852 230.77 81.3154 231.093 81.5486L231.613 81.8834H238.13V75.392L238.464 74.8836C238.693 74.5517 239.027 74.3069 239.413 74.1892C239.702 74.1076 240.006 74.092 240.302 74.1435C240.599 74.195 240.879 74.3123 241.124 74.4868C241.501 74.7423 241.946 74.8804 242.401 74.8836C243.08 74.8114 243.709 74.4906 244.165 73.9829C244.622 73.4753 244.874 72.8166 244.874 72.1339C244.874 71.4511 244.622 70.7925 244.165 70.2848C243.709 69.7772 243.08 69.4564 242.401 69.3842C241.946 69.3863 241.501 69.5245 241.124 69.781C240.88 69.9587 240.598 70.0784 240.301 70.131C240.003 70.1837 239.697 70.1678 239.407 70.0848C239.026 69.9608 238.696 69.7172 238.464 69.3904L238.13 68.882V62.3658H231.613L231.093 62.031C230.77 61.7978 230.531 61.4676 230.411 61.0886C230.324 60.7984 230.307 60.4921 230.359 60.194C230.412 59.8958 230.534 59.6141 230.714 59.3712C230.97 58.994 231.108 58.5496 231.111 58.094C231.033 57.419 230.709 56.7965 230.201 56.3446C229.694 55.8928 229.038 55.6431 228.358 55.6431C227.679 55.6431 227.023 55.8928 226.516 56.3446C226.008 56.7965 225.684 57.419 225.606 58.094Z" fill="#0044FF"/>
<path d="M292.274 84.5184C291.878 84.37 291.446 84.344 291.034 84.444C290.768 84.5161 290.489 84.5268 290.219 84.4752C289.948 84.4237 289.693 84.3112 289.472 84.1464C289.181 83.9202 288.974 83.604 288.883 83.2474L288.759 82.7018L290.873 77.1218L285.293 75.0138L284.971 74.5612C284.763 74.2596 284.66 73.8978 284.679 73.532C284.699 73.2545 284.783 72.9855 284.925 72.7465C285.067 72.5075 285.263 72.3051 285.498 72.1556C285.841 71.9173 286.102 71.5798 286.248 71.1884C286.405 70.5827 286.332 69.9405 286.044 69.385C285.756 68.8296 285.273 68.4002 284.688 68.1794C284.103 67.9586 283.456 67.9621 282.873 68.189C282.29 68.416 281.812 68.8505 281.53 69.409C281.379 69.8052 281.355 70.2385 281.461 70.649C281.531 70.9161 281.541 71.1955 281.489 71.4668C281.438 71.7381 281.327 71.9946 281.164 72.2176C280.934 72.5041 280.619 72.7103 280.265 72.8066L279.713 72.9244L274.133 70.8164L272.019 76.3964L271.56 76.7188C271.258 76.9294 270.892 77.03 270.525 77.004C270.251 76.9792 269.986 76.8941 269.749 76.7547C269.512 76.6154 269.309 76.4252 269.154 76.198C268.918 75.8555 268.583 75.5937 268.193 75.4478C267.591 75.2978 266.954 75.3743 266.404 75.6628C265.853 75.9512 265.428 76.4316 265.209 77.0127C264.989 77.5938 264.991 78.2353 265.213 78.8154C265.435 79.3955 265.863 79.8738 266.414 80.1598C266.811 80.3052 267.242 80.3311 267.654 80.2342C267.921 80.1585 268.202 80.1466 268.474 80.1994C268.747 80.2521 269.003 80.3681 269.223 80.538C269.51 80.7596 269.713 81.0722 269.799 81.4246L269.929 81.9702L267.821 87.5502L273.401 89.6582L273.953 89.5404C274.309 89.4473 274.625 89.2405 274.852 88.9514C275.018 88.7312 275.132 88.4758 275.183 88.2049C275.235 87.9339 275.223 87.6548 275.15 87.389C275.047 86.9778 275.073 86.5449 275.224 86.149C275.506 85.5905 275.985 85.156 276.568 84.929C277.151 84.7021 277.797 84.6987 278.383 84.9194C278.968 85.1402 279.451 85.5696 279.739 86.125C280.027 86.6805 280.099 87.3227 279.942 87.9284C279.792 88.3189 279.529 88.6556 279.186 88.8956C278.952 89.0454 278.757 89.248 278.616 89.4871C278.475 89.7261 278.392 89.995 278.374 90.272C278.353 90.6343 278.451 90.9936 278.653 91.295L278.988 91.7538L284.568 93.8618L286.676 88.2818L287.128 87.9532C287.43 87.7461 287.793 87.6477 288.157 87.6742C288.433 87.6931 288.701 87.7757 288.94 87.9156C289.179 88.0554 289.382 88.2487 289.534 88.4802C289.772 88.8243 290.11 89.088 290.501 89.2366C291.104 89.3865 291.741 89.31 292.291 89.0216C292.841 88.7331 293.266 88.2527 293.486 87.6716C293.705 87.0905 293.703 86.4491 293.481 85.869C293.259 85.2889 292.832 84.8105 292.28 84.5246L292.274 84.5184Z" fill="#0044FF"/>
<path d="M172.639 171.405C172.422 169.682 176.142 164.635 179.378 160.63C203.081 131.217 204.271 80.3024 181.238 48.825C181.091 48.9816 180.968 49.1592 180.873 49.352L180.507 50.1332L181.821 59.21L172.738 60.5244L172.118 61.0948C171.702 61.4803 171.431 61.9967 171.349 62.558C171.29 62.9761 171.327 63.4023 171.457 63.8041C171.587 64.2059 171.807 64.5728 172.1 64.8768C172.534 65.349 172.817 65.9408 172.912 66.5756C173.185 68.4666 171.672 70.2522 169.57 70.5622C167.468 70.8722 165.521 69.5702 165.23 67.6854C165.141 67.0496 165.244 66.4016 165.528 65.8254C165.732 65.446 165.845 65.0237 165.855 64.5928C165.866 64.1619 165.775 63.7345 165.59 63.3454C165.354 62.838 164.955 62.4251 164.455 62.1736L163.68 61.8326L154.603 63.1408L153.289 54.0578L153.655 53.2704C153.916 52.7743 154.328 52.3745 154.833 52.1296C155.219 51.9511 155.641 51.8655 156.067 51.8795C156.492 51.8935 156.908 52.0067 157.282 52.2102C157.859 52.4895 158.506 52.5909 159.142 52.5016C161.045 52.2288 162.322 50.2882 162.018 48.1616C161.715 46.035 159.935 44.5408 158.038 44.8198C157.404 44.9122 156.812 45.193 156.339 45.6258C156.036 45.9235 155.669 46.1476 155.266 46.2809C154.863 46.4142 154.435 46.4531 154.014 46.3946C153.457 46.2977 152.944 46.0263 152.551 45.6196L151.981 44.9996L150.66 35.9104L159.743 34.6022L160.363 34.0194C160.772 33.6394 161.041 33.1326 161.126 32.581C161.191 32.1594 161.156 31.7284 161.025 31.3226C160.893 30.9167 160.669 30.5472 160.369 30.2436C160.271 30.1334 160.18 30.0174 160.096 29.8964C158.856 29.1896 157.573 28.5221 156.246 27.8938C133.542 17.0934 106.714 15.2582 82.7018 22.63C51.7452 32.1346 38.6818 53.1774 31.1364 83.4334C28.7742 92.8946 27.001 95.8334 28.7742 99.3984C30.5474 102.963 34.0938 107.682 32.9158 111.228C31.7378 114.774 22.8594 132.525 19.3068 137.268C15.7542 142.011 15.1652 145.551 17.5336 148.509C19.902 151.466 28.7742 152.65 28.7742 152.65C28.7742 152.65 28.8176 157.189 26.7964 160.933C24.7752 164.678 26.4802 164.684 26.7964 166.265C27.1126 167.846 25.6556 169.291 25.947 171.597C26.2384 173.904 27.3482 175.094 28.8176 176.427C30.287 177.76 27.5094 188.523 27.3172 191.58C27.125 194.637 30.5784 202.424 33.1762 204.439C35.774 206.454 40.6658 207.037 42.687 207.322C44.7082 207.607 55.087 208.475 56.8106 209.052C58.5342 209.628 67.4746 220.007 71.5108 225.172C75.547 230.336 89.3792 245.923 90.241 251.404C90.6812 254.2 94.2586 265.949 97.6438 276.762H248.924C229.536 254.56 198.412 218.482 191.84 207.192C182.435 191.003 173.017 174.418 172.639 171.405ZM115.32 52.4396C115.003 51.968 114.532 51.6216 113.987 51.46C113.58 51.3351 113.149 51.3077 112.729 51.3798C112.309 51.452 111.911 51.6217 111.569 51.8754C111.035 52.2326 110.408 52.4265 109.765 52.4334C107.849 52.4334 106.293 50.7036 106.293 48.5708C106.293 46.438 107.849 44.6896 109.765 44.6896C110.404 44.6949 111.027 44.8891 111.557 45.2476C111.9 45.4951 112.295 45.6611 112.711 45.7331C113.128 45.805 113.556 45.7811 113.962 45.663C114.513 45.5139 114.993 45.176 115.32 44.7082L115.81 43.9952V34.8192H124.967L125.699 34.3418C126.16 34.0158 126.502 33.5476 126.672 33.0088C126.791 32.5999 126.814 32.1692 126.74 31.75C126.666 31.3307 126.496 30.9341 126.244 30.5908C125.882 30.0657 125.688 29.4431 125.686 28.8052C125.686 26.8832 127.422 25.327 129.561 25.327C131.7 25.327 133.443 26.8832 133.443 28.8052C133.437 29.4473 133.241 30.0733 132.878 30.6032C132.626 30.9462 132.456 31.343 132.383 31.7626C132.31 32.1822 132.335 32.613 132.457 33.0212C132.622 33.5591 132.965 34.0248 133.43 34.3418L134.143 34.8192H143.319V44.02L143.797 44.733C144.108 45.182 144.559 45.5154 145.08 45.6816C145.486 45.7997 145.914 45.8236 146.331 45.7517C146.748 45.6797 147.143 45.5137 147.486 45.2662C148.017 44.9065 148.642 44.7123 149.284 44.7082C151.193 44.7082 152.749 46.438 152.749 48.5894C152.749 50.7408 151.193 52.452 149.284 52.452C148.642 52.4498 148.016 52.2554 147.486 51.894C147.146 51.64 146.752 51.4685 146.334 51.3932C145.916 51.3179 145.487 51.3407 145.08 51.46C144.542 51.6179 144.075 51.9576 143.759 52.421L143.282 53.134V62.31H134.106L133.381 61.8388C132.924 61.5134 132.586 61.0474 132.42 60.512C132.299 60.1038 132.274 59.673 132.347 59.2535C132.42 58.834 132.589 58.4372 132.841 58.094C133.206 57.5649 133.402 56.9384 133.405 56.296C133.405 54.374 131.663 52.8302 129.524 52.8302C127.385 52.8302 125.649 54.374 125.649 56.296C125.651 56.9377 125.845 57.5642 126.207 58.094C126.459 58.435 126.628 58.8295 126.703 59.2467C126.777 59.664 126.754 60.0928 126.635 60.4996C126.465 61.04 126.123 61.5102 125.662 61.8388L124.93 62.31H115.785V53.1526L115.32 52.4396ZM166.78 94.3764C166.138 94.3731 165.511 94.1765 164.982 93.8122C164.638 93.5613 164.241 93.3938 163.821 93.3227C163.402 93.2517 162.971 93.2792 162.564 93.403C162.026 93.5609 161.559 93.9006 161.243 94.364L160.766 95.077V104.253H151.59L150.865 103.782C150.408 103.456 150.07 102.99 149.904 102.455C149.782 102.046 149.758 101.615 149.832 101.196C149.906 100.776 150.077 100.379 150.331 100.037C150.691 99.506 150.885 98.8803 150.889 98.239C150.889 96.317 149.147 94.7732 147.008 94.7732C144.869 94.7732 143.133 96.317 143.133 98.239C143.137 98.8803 143.331 99.506 143.691 100.037C143.943 100.378 144.112 100.772 144.187 101.19C144.261 101.607 144.238 102.036 144.119 102.443C143.949 102.983 143.607 103.453 143.146 103.782L142.42 104.253H133.25V95.077L132.761 94.364C132.447 93.9039 131.985 93.5648 131.452 93.403C131.045 93.2782 130.615 93.2503 130.195 93.3213C129.775 93.3923 129.378 93.5604 129.034 93.8122C128.504 94.1731 127.878 94.3694 127.236 94.3764C125.314 94.3764 123.758 92.6466 123.758 90.5076C123.758 88.3686 125.314 86.6326 127.236 86.6326C127.874 86.6358 128.496 86.8302 129.022 87.1906C129.365 87.4381 129.76 87.6041 130.177 87.6761C130.594 87.748 131.021 87.7241 131.428 87.606C131.97 87.4433 132.44 87.0998 132.761 86.6326L133.25 85.9134V76.7436H142.414L143.139 76.2662C143.601 75.9402 143.943 75.472 144.113 74.9332C144.232 74.5243 144.255 74.0936 144.181 73.6744C144.106 73.2551 143.937 72.8585 143.685 72.5152C143.325 71.9868 143.13 71.3629 143.127 70.7234C143.127 68.8076 144.869 67.2514 147.002 67.2514C149.135 67.2514 150.883 68.8076 150.883 70.7234C150.879 71.3647 150.685 71.9904 150.325 72.5214C150.071 72.8646 149.899 73.2623 149.825 73.683C149.751 74.1038 149.776 74.536 149.897 74.9456C150.063 75.4835 150.406 75.9492 150.871 76.2662L151.584 76.7436H160.76V85.9134L161.237 86.6326C161.557 87.0998 162.028 87.4433 162.57 87.606C162.976 87.7245 163.404 87.7487 163.821 87.6768C164.238 87.6048 164.633 87.4385 164.976 87.1906C165.506 86.8299 166.132 86.6356 166.774 86.6326C168.683 86.6326 170.24 88.3562 170.24 90.5076C170.24 92.659 168.683 94.3764 166.78 94.3764Z" fill="#0044FF"/>
<path d="M284.537 276.78H292.516" stroke="#263238" stroke-miterlimit="10"/>
<path d="M19.6726 276.78H279.93" stroke="#263238" stroke-miterlimit="10"/>
<path d="M159.675 130.392C159.675 130.392 144.311 124.037 142.978 123.299C141.645 122.562 140.318 119.753 139.729 119.164C139.14 118.575 138.105 118.866 135.743 118.426C133.381 117.986 131.899 116.207 131.607 117.54C131.316 118.873 132.196 119.307 132.934 119.604C133.672 119.902 135.148 120.64 135.148 120.64L135.296 121.675C133.1 122.102 130.881 122.398 128.65 122.562C126.728 122.562 125.401 123.299 125.693 124.186C125.984 125.073 127.466 124.626 127.466 124.626L131.012 124.477C131.012 124.477 125.401 125.959 125.252 126.697C125.104 127.435 126.139 128.024 126.579 127.881C127.019 127.739 129.388 126.995 129.388 126.995L130.863 126.697C130.863 126.697 128.061 128.321 128.21 129.357C128.359 130.392 129.977 129.648 129.977 129.648L131.607 128.024L133.97 127.584L131.44 130.095C131.44 130.095 131.731 130.981 132.475 130.832C133.219 130.684 134.249 129.357 134.249 129.357L136.164 128.91C136.703 128.988 137.25 128.988 137.789 128.91C138.235 128.762 140.597 128.024 140.597 128.024C140.597 128.024 154.926 138.365 156.717 138.812C158.509 139.258 163.072 142.798 165.583 141.912C168.094 141.025 165.583 134.23 165.583 133.492C165.583 132.754 159.675 130.392 159.675 130.392Z" fill="white" stroke="#263238" stroke-miterlimit="10"/>
<path d="M135.396 247.039C135.396 247.039 138.204 256.959 140.021 261.063C141.837 265.168 144.789 270.097 145.464 271.789C146.14 273.482 144.311 275.416 143.152 275.912C141.773 276.377 140.528 277.171 139.525 278.225C138.372 279.546 134.242 281.852 131.601 282.019C128.96 282.187 124.837 282.515 125.829 279.874C126.821 277.233 132.097 273.11 132.593 271.622C132.889 270.831 133.001 269.983 132.922 269.142L128.799 259.904L135.396 247.039Z" fill="#263238" stroke="#263238" stroke-miterlimit="10"/>
<path d="M143.102 267.22C141.484 268.534 139.289 270.227 138.037 270.804C135.892 271.796 133.077 270.475 133.077 270.475L132.878 270.376C132.818 270.798 132.719 271.213 132.581 271.616C132.085 273.104 126.809 277.196 125.817 279.868C124.825 282.54 128.954 282.181 131.589 282.013C134.224 281.846 138.359 279.533 139.512 278.219C140.515 277.164 141.76 276.371 143.139 275.906C144.299 275.41 146.109 273.426 145.452 271.783C145.117 270.94 144.181 269.223 143.102 267.22Z" fill="white" stroke="#263238" stroke-miterlimit="10"/>
<path d="M99.5534 157.151L95.17 170.915C95.17 170.915 100.279 171.647 101.847 173.315C101.847 173.315 104.557 164.87 105.078 161.739C105.598 158.608 102.474 154.857 99.5534 157.151Z" fill="#0044FF" stroke="#263238" stroke-miterlimit="10"/>
<path d="M95.17 170.915C95.17 170.915 90.1666 176.34 89.435 176.861C89.0364 177.249 88.7345 177.724 88.5536 178.25C88.3726 178.775 88.3178 179.336 88.3934 179.887C88.6042 180.823 89.2304 183.638 89.7512 183.849C90.272 184.059 97.464 183.328 98.0902 182.801C98.7164 182.274 99.448 179.781 99.5534 178.839C99.6588 177.897 99.6588 176.235 99.6588 176.235L101.426 171.647C101.426 171.647 96.6332 170.5 95.17 170.915Z" fill="white" stroke="#263238" stroke-miterlimit="10"/>
<path d="M108.419 196.906H78.3928C77.9817 196.906 77.5874 196.742 77.2968 196.452C77.0061 196.161 76.8428 195.767 76.8428 195.356C76.8428 194.945 77.0061 194.55 77.2968 194.26C77.5874 193.969 77.9817 193.806 78.3928 193.806H108.419C108.83 193.806 109.225 193.969 109.515 194.26C109.806 194.55 109.969 194.945 109.969 195.356C109.969 195.767 109.806 196.161 109.515 196.452C109.225 196.742 108.83 196.906 108.419 196.906Z" fill="white" stroke="#263238" stroke-miterlimit="10"/>
<path d="M73.8916 246.022C73.7553 246.022 73.6198 246.003 73.4886 245.966C73.0915 245.86 72.7528 245.601 72.547 245.245C72.3412 244.889 72.2852 244.466 72.3912 244.069L72.9616 241.949C73.7531 239.03 75.4825 236.451 77.8834 234.612C80.2844 232.772 83.2235 231.773 86.2482 231.768H99.6278C102.673 231.769 105.631 232.78 108.04 234.642C110.449 236.505 112.172 239.114 112.939 242.06L113.355 243.654C113.411 243.852 113.426 244.06 113.401 244.265C113.375 244.47 113.309 244.668 113.206 244.847C113.104 245.025 112.966 245.182 112.802 245.307C112.638 245.432 112.45 245.523 112.25 245.575C112.05 245.626 111.842 245.638 111.638 245.608C111.434 245.578 111.238 245.507 111.061 245.401C110.884 245.294 110.731 245.153 110.609 244.986C110.488 244.819 110.401 244.63 110.354 244.429L109.938 242.842C109.344 240.559 108.01 238.538 106.144 237.095C104.278 235.652 101.986 234.869 99.6278 234.868H86.2482C83.905 234.871 81.6278 235.645 79.7679 237.07C77.9079 238.495 76.5685 240.493 75.9562 242.755L75.3858 244.875C75.2963 245.203 75.1018 245.493 74.8319 245.7C74.5621 245.908 74.2318 246.021 73.8916 246.022Z" fill="white" stroke="#263238" stroke-miterlimit="10"/>
<path d="M69.2478 284.4H69.0866C68.6816 284.358 68.3096 284.158 68.0509 283.843C67.7922 283.529 67.6676 283.125 67.704 282.72L77.1714 191.437C77.5458 187.881 79.2318 184.591 81.9004 182.21C84.569 179.829 88.0288 178.528 91.605 178.56H95.7528C99.3818 178.548 102.883 179.899 105.563 182.346C108.243 184.793 109.907 188.157 110.224 191.772L116.808 278.014C116.823 278.218 116.799 278.422 116.735 278.616C116.671 278.81 116.57 278.99 116.437 279.145C116.304 279.3 116.142 279.427 115.96 279.519C115.778 279.611 115.579 279.666 115.376 279.682C114.965 279.713 114.558 279.58 114.245 279.311C113.932 279.043 113.739 278.661 113.708 278.25L107.117 192.008C106.864 189.173 105.556 186.536 103.451 184.62C101.346 182.703 98.5991 181.647 95.7528 181.66H91.605C88.8033 181.629 86.0901 182.64 83.9923 184.498C81.8945 186.355 80.5617 188.925 80.2528 191.71L70.7916 283.011C70.7504 283.392 70.57 283.745 70.2852 284.001C70.0003 284.257 69.6309 284.399 69.2478 284.4Z" fill="white" stroke="#263238" stroke-miterlimit="10"/>
<path d="M68.9626 287.823H68.7332C68.1611 287.763 67.6359 287.479 67.2732 287.033C66.9105 286.586 66.7398 286.014 66.7988 285.442L67.0902 282.639C67.1494 282.064 67.4348 281.535 67.8836 281.17C68.3324 280.805 68.9079 280.633 69.4834 280.693C70.0589 280.752 70.5873 281.037 70.9524 281.486C71.3175 281.935 71.4894 282.51 71.4302 283.086L71.1388 285.888C71.0817 286.424 70.8271 286.918 70.4247 287.276C70.0223 287.634 69.501 287.829 68.9626 287.823Z" fill="#263238" stroke="#263238" stroke-miterlimit="10"/>
<path d="M115.717 281.585C115.64 281.592 115.564 281.592 115.487 281.585C115.203 281.604 114.918 281.566 114.648 281.474C114.379 281.382 114.13 281.238 113.916 281.049C113.702 280.861 113.528 280.632 113.403 280.376C113.278 280.12 113.205 279.842 113.187 279.558L113.014 276.743C112.996 276.458 113.035 276.173 113.128 275.903C113.221 275.633 113.366 275.384 113.555 275.17C113.744 274.956 113.973 274.781 114.23 274.656C114.487 274.531 114.765 274.457 115.05 274.44C115.335 274.422 115.621 274.461 115.891 274.554C116.161 274.647 116.41 274.792 116.624 274.981C116.838 275.17 117.012 275.4 117.137 275.656C117.263 275.913 117.336 276.192 117.354 276.477L117.533 279.285C117.573 279.826 117.408 280.363 117.072 280.788C116.736 281.214 116.252 281.498 115.717 281.585Z" fill="#263238" stroke="#263238" stroke-miterlimit="10"/>
<path d="M94.24 185.324C94.24 185.324 97.4764 185.479 98.1708 184.996C98.8652 184.512 99.4108 181.214 99.2806 180.47C99.1504 179.726 98.5242 180.085 98.0406 180.99C97.6032 182.04 97.2891 183.136 97.1044 184.258L96.0318 184.301" fill="white"/>
<path d="M94.24 185.324C94.24 185.324 97.4764 185.479 98.1708 184.996C98.8652 184.512 99.4108 181.214 99.2806 180.47C99.1504 179.726 98.5242 180.085 98.0406 180.99C97.6032 182.04 97.2891 183.136 97.1044 184.258L96.0318 184.301" stroke="#263238" stroke-linecap="round" stroke-linejoin="round"/>
<path d="M92.0638 185.653C92.0638 185.653 95.3064 185.802 95.9946 185.318C96.6828 184.834 97.2346 181.542 97.1044 180.792C96.9742 180.042 96.3542 180.408 95.8334 181.319C95.3955 182.366 95.0813 183.46 94.8972 184.58L93.8246 184.624" fill="white"/>
<path d="M92.0638 185.653C92.0638 185.653 95.3064 185.802 95.9946 185.318C96.6828 184.834 97.2346 181.542 97.1044 180.792C96.9742 180.042 96.3542 180.408 95.8334 181.319C95.3955 182.366 95.0813 183.46 94.8972 184.58L93.8246 184.624" stroke="#263238" stroke-linecap="round" stroke-linejoin="round"/>
<path d="M89.7512 183.849C89.7512 183.849 93.0868 185.411 94.023 185.2C94.9592 184.989 96.9432 181.759 97.123 180.928C97.3028 180.098 96.503 180.197 95.5606 180.928C94.6182 181.66 93.1612 183.948 93.1612 183.948L92.0142 183.532" fill="white"/>
<path d="M89.7512 183.849C89.7512 183.849 93.0868 185.411 94.023 185.2C94.9592 184.989 96.9432 181.759 97.123 180.928C97.3028 180.098 96.503 180.197 95.5606 180.928C94.6182 181.66 93.1612 183.948 93.1612 183.948L92.0142 183.532" stroke="#263238" stroke-linecap="round" stroke-linejoin="round"/>
<path d="M89.7512 183.849C89.7512 183.849 90.7928 185.622 91.729 185.411C92.6652 185.2 94.6492 181.97 94.86 181.133C95.0708 180.296 94.24 180.408 93.2976 181.133C92.3552 181.858 90.8982 184.159 90.8982 184.159L89.7512 183.743" fill="white"/>
<path d="M89.7512 183.849C89.7512 183.849 90.7928 185.622 91.729 185.411C92.6652 185.2 94.6492 181.97 94.86 181.133C95.0708 180.296 94.24 180.408 93.2976 181.133C92.3552 181.858 90.8982 184.159 90.8982 184.159L89.7512 183.743" stroke="#263238" stroke-linecap="round" stroke-linejoin="round"/>
<path d="M94.023 173.73C94.023 173.73 92.2498 177.593 92.163 178.213C92.0762 178.833 90.6998 183.743 90.923 184.159C91.1462 184.574 92.2746 184.369 92.6962 183.849C93.1178 183.328 94.1532 180.408 94.364 179.986C94.5748 179.564 96.1372 178.746 96.7634 177.797C97.3896 176.849 97.9104 174.462 97.9104 174.462" fill="white"/>
<path d="M94.023 173.73C94.023 173.73 92.2498 177.593 92.163 178.213C92.0762 178.833 90.6998 183.743 90.923 184.159C91.1462 184.574 92.2746 184.369 92.6962 183.849C93.1178 183.328 94.1532 180.408 94.364 179.986C94.5748 179.564 96.1372 178.746 96.7634 177.797C97.3896 176.849 97.9104 174.462 97.9104 174.462" stroke="#263238" stroke-linecap="round" stroke-linejoin="round"/>
<path d="M99.8634 175.286C99.8634 175.286 102.12 200.031 104.278 207.297C106.435 214.563 116.926 233.418 117.335 234.49C117.744 235.563 118.68 237.857 119.083 244.59C119.486 251.323 119.325 256.482 119.325 259.848C119.325 263.215 116.926 273.488 116.926 273.488C115.321 274.392 113.6 275.072 111.811 275.509C109.256 276.049 105.611 277.128 105.611 278.74C105.611 280.352 115.301 282.373 118.668 283.049C122.035 283.724 125.934 284.394 126.877 283.452C127.819 282.509 127.553 281.592 128.117 278.2C128.681 274.809 129.307 274.703 131.217 267.567C133.126 260.431 135.433 255.998 136.512 247.647C137.59 239.295 136.189 231.527 137.268 225.463C138.347 219.399 142.228 200.948 144.41 190.179C146.593 179.409 146.698 178.734 145.619 172.007L100.428 170.841L99.8634 175.286Z" fill="#263238" stroke="#263238" stroke-miterlimit="10"/>
<path d="M117.701 230.696C117.496 226.976 117.533 221.346 118.408 217.124C119.48 211.984 120.447 183.873 120.447 183.873" stroke="white" stroke-linecap="round" stroke-linejoin="round"/>
<path d="M118.364 235.922C118.215 236.108 117.936 233.678 117.794 232.004" stroke="white" stroke-linecap="round" stroke-linejoin="round"/>
<path d="M120.044 185.895L116.678 182.795" stroke="white" stroke-linecap="round" stroke-linejoin="round"/>
<path d="M126.889 283.427C127.763 282.553 127.596 281.678 127.999 278.882C125.265 278.702 123.151 276.185 121.539 274.889C120.224 273.873 118.585 273.366 116.926 273.463C115.321 274.367 113.6 275.047 111.811 275.485C109.256 276.024 105.611 277.103 105.611 278.715C105.611 280.327 115.301 282.348 118.668 283.024C122.035 283.7 125.947 284.369 126.889 283.427Z" fill="white" stroke="#263238" stroke-miterlimit="10"/>
<path d="M102.678 141.199C102.678 141.199 105.233 149.259 105.096 152.644C104.96 156.029 100.657 168.144 100.657 168.144C100.088 164.036 99.8187 159.891 99.851 155.744C99.851 148.335 102.678 141.199 102.678 141.199Z" fill="#263238" stroke="#263238" stroke-miterlimit="10"/>
<path d="M111.966 108.351L108.736 111.315C108.736 111.315 109.808 120.739 107.793 128.005C105.778 135.272 101.463 144.293 102.275 147.225C103.087 150.158 103.621 152.074 103.621 153.146C103.621 154.219 102.275 161.498 100.657 168.088C99.0388 174.679 99.8634 175.255 99.8634 175.255C99.8634 175.255 114.929 177.115 127.447 177.115C139.965 177.115 142.947 175.367 142.947 175.367C142.947 175.367 137.429 142.253 137.429 132.426C137.429 122.599 134.54 109.368 134.54 109.368L127.881 106.466C127.881 106.466 119.66 102.3 111.966 108.351Z" fill="white" stroke="#263238" stroke-miterlimit="10"/>
<path d="M118.253 153.332C118.928 153.574 119.61 153.791 120.311 153.989" stroke="#263238" stroke-linecap="round" stroke-linejoin="round"/>
<path d="M106.311 146.853C109.391 149.16 112.741 151.082 116.287 152.576" stroke="#263238" stroke-linecap="round" stroke-linejoin="round"/>
<path d="M120.175 150.623C123.089 152.301 126.281 153.441 129.599 153.989" stroke="#263238" stroke-linecap="round" stroke-linejoin="round"/>
<path d="M117.484 147.932C117.484 147.932 123.138 150.889 127.714 152.105" stroke="#263238" stroke-linecap="round" stroke-linejoin="round"/>
<path d="M134.044 79.0128C134.459 80.5999 134.576 82.2499 134.391 83.8798C134.044 86.3102 133.926 87.4696 134.621 89.4598C135.315 91.45 136.363 92.4668 135.551 96.1744C134.738 99.882 132.885 103.614 132.19 104.402C131.278 105.31 130.311 106.161 129.295 106.95L134.54 109.368C134.54 109.368 133.957 113.882 130.138 116.43C126.319 118.978 120.633 119.679 116.696 117.707C112.759 115.735 110.558 109.25 110.558 109.25L115.419 105.66L114.495 100.7L109.12 93.62L114.57 87.8292C114.57 87.8292 115.611 83.545 120.826 79.8374C126.04 76.1298 129.047 76.2414 130.789 76.477C132.531 76.7126 134.044 79.0128 134.044 79.0128Z" fill="white" stroke="#263238" stroke-miterlimit="10"/>
<path d="M133.579 82.3732C132.991 83.1814 132.669 84.1517 132.655 85.1508C132.537 87.0108 135.551 92.2188 135.315 92.8016C135.079 93.3844 132.215 94.302 132.215 94.302" stroke="#263238" stroke-linecap="round" stroke-linejoin="round"/>
<path d="M131.149 98.4745H133.35" stroke="#263238" stroke-linecap="round" stroke-linejoin="round"/>
<path d="M128.712 83.4147C128.712 83.4147 124.893 82.8381 123.132 85.4979" stroke="#263238" stroke-linecap="round" stroke-linejoin="round"/>
<path d="M129.754 88.7468C129.754 88.7468 129.295 90.6068 125.934 91.8468" stroke="#263238" stroke-linecap="round" stroke-linejoin="round"/>
<path d="M129.059 86.893C129.059 87.5936 128.774 88.133 128.439 88.133C128.104 88.133 127.819 87.5626 127.819 86.893C127.819 86.2234 128.104 85.6158 128.439 85.6158C128.774 85.6158 129.059 86.18 129.059 86.893Z" fill="#263238"/>
<path d="M136.016 74.8401C135.433 71.3681 132.916 71.9447 132.19 71.0209C131.465 70.0971 131.496 67.7721 128.712 65.9183C125.928 64.0645 120.032 65.8067 118.519 65.6889C117.006 65.5711 113.559 65.5711 112.263 67.4249L110.986 69.2849C110.986 69.2849 107.396 68.9377 104.966 73.1103C102.536 77.2829 101.953 80.6371 102.877 83.4209C103.8 86.2047 103.571 88.3809 103.224 88.5173C102.877 88.6537 100.676 86.7814 99.2868 90.2534C97.898 93.7254 99.8634 98.1335 102.765 98.5985C105.667 99.0635 108.091 97.5569 108.209 99.2929C108.326 101.029 108.209 101.959 110.527 102.393C112.846 102.827 114.464 100.657 114.464 100.657C114.464 100.657 111.333 95.5606 110.875 93.2169L114.117 89.3977C114.117 89.3977 114.694 91.7103 115.977 91.7103C117.261 91.7103 117.019 90.0921 117.217 88.3499C118.377 87.6555 116.988 85.9195 117.335 84.6299C117.682 83.3403 119.654 81.7345 120.466 82.0817C121.344 82.4239 122.286 82.5702 123.226 82.5102C124.166 82.4502 125.082 82.1855 125.91 81.7345C128.458 80.4945 127.528 77.9153 128.458 77.7975C129.388 77.6797 128.923 80.4636 131.353 80.5752C133.784 80.6868 136.592 78.3183 136.016 74.8401Z" fill="#D9D9D9" stroke="#A1A1A1" stroke-miterlimit="10"/>
<path d="M114.464 100.676C114.464 100.676 116.2 101.606 116.665 98.3568L114.464 100.676Z" fill="white"/>
<path d="M114.464 100.676C114.464 100.676 116.2 101.606 116.665 98.3568" stroke="#263238" stroke-miterlimit="10"/>
<path d="M131.496 104.848C131.496 104.848 127.094 106.088 125.004 104.036" stroke="#263238" stroke-linecap="round" stroke-linejoin="round"/>
<path d="M115.388 105.66L116.089 110.875" stroke="#263238" stroke-miterlimit="10"/>
<path d="M129.295 106.931C129.295 106.931 125.934 108.674 125.122 108.791" stroke="#263238" stroke-linecap="round" stroke-linejoin="round"/>
<path d="M110.527 109.25C110.527 109.25 99.8634 116.548 96.7386 119.79C93.6138 123.033 94.5376 129.059 96.162 132.655C97.7864 136.251 99.634 141.689 99.634 141.689C99.634 141.689 97.898 145.861 98.5924 154.783C99.2868 163.705 99.8324 174.821 99.8324 175.286C99.8324 175.751 101.339 164.746 101.339 164.746C101.339 164.746 101.11 155.446 101.575 151.652C102.04 147.858 103.311 145.167 107.018 134.856C110.726 124.546 111.42 118.736 111.42 116.548C111.42 114.359 110.527 109.25 110.527 109.25Z" fill="#0044FF" stroke="#263238" stroke-miterlimit="10"/>
<path d="M134.54 109.368C134.54 109.368 133.263 130.101 133.728 136.939C134.193 143.778 141.837 175.999 141.837 175.999H151.218C151.218 175.999 148.67 156.885 147.975 151.553C147.281 146.221 146.587 144.733 146.587 144.733C146.587 144.733 146.01 136.388 146.239 126.66C146.469 116.932 145.657 116.231 143.921 114.378C142.185 112.524 134.54 109.368 134.54 109.368Z" fill="#0044FF" stroke="#263238" stroke-miterlimit="10"/>
<path d="M143.542 137.169C143.542 137.169 151.075 151.999 151.423 154.436C151.77 156.872 145.396 172.155 145.396 172.155C147.13 172.763 148.831 173.461 150.493 174.245C151.627 174.897 152.711 175.633 153.735 176.446C153.735 176.446 162.545 163.587 162.775 156.29C163.004 148.992 158.949 139.37 157.561 135.433C156.172 131.496 152.235 119.561 149.104 116.895C145.973 114.229 140.647 112.146 140.647 112.146" fill="#0044FF"/>
<path d="M143.542 137.169C143.542 137.169 151.075 151.999 151.423 154.436C151.77 156.872 145.396 172.155 145.396 172.155C147.13 172.763 148.831 173.461 150.493 174.245C151.627 174.897 152.711 175.633 153.735 176.446C153.735 176.446 162.545 163.587 162.775 156.29C163.004 148.992 158.949 139.37 157.561 135.433C156.172 131.496 152.235 119.561 149.104 116.895C145.973 114.229 140.647 112.146 140.647 112.146" stroke="#263238" stroke-miterlimit="10"/>
<path d="M145.396 172.155C145.396 172.155 141.676 174.809 140.312 175.807C138.948 176.805 138.452 180.705 138.167 181.387C137.882 182.069 136.636 183.148 137.398 183.377C138.161 183.607 139.928 182.46 140.616 181.313C141.304 180.166 141.385 180.073 141.534 179.781C141.682 179.49 143.22 179.161 143.604 179.161C143.989 179.161 147.052 180.463 149.116 180.308C151.181 180.153 153.735 176.433 153.735 176.433C153.735 176.433 151.478 173.104 145.396 172.155Z" fill="white" stroke="#263238" stroke-linecap="round" stroke-linejoin="round"/>
<path d="M159.898 196.906H129.871C129.46 196.906 129.066 196.742 128.775 196.452C128.485 196.161 128.321 195.767 128.321 195.356C128.321 194.945 128.485 194.55 128.775 194.26C129.066 193.969 129.46 193.806 129.871 193.806H159.898C160.309 193.806 160.703 193.969 160.994 194.26C161.285 194.55 161.448 194.945 161.448 195.356C161.448 195.767 161.285 196.161 160.994 196.452C160.703 196.742 160.309 196.906 159.898 196.906Z" fill="white" stroke="#263238" stroke-miterlimit="10"/>
<path d="M125.37 246.022C125.132 246.021 124.898 245.966 124.685 245.861C124.472 245.756 124.285 245.603 124.14 245.414C123.996 245.225 123.896 245.006 123.849 244.773C123.802 244.54 123.809 244.299 123.87 244.069L124.44 241.949C125.23 239.028 126.959 236.449 129.36 234.609C131.761 232.769 134.702 231.771 137.727 231.768H151.106C154.151 231.769 157.11 232.78 159.519 234.642C161.928 236.505 163.651 239.114 164.418 242.06L164.833 243.654C164.889 243.852 164.905 244.06 164.879 244.265C164.854 244.47 164.788 244.668 164.685 244.847C164.582 245.025 164.445 245.182 164.28 245.307C164.116 245.432 163.929 245.523 163.729 245.575C163.529 245.626 163.321 245.638 163.117 245.608C162.912 245.578 162.716 245.507 162.54 245.401C162.363 245.294 162.209 245.153 162.088 244.986C161.967 244.819 161.88 244.63 161.832 244.429L161.417 242.842C160.823 240.559 159.488 238.538 157.623 237.095C155.757 235.652 153.465 234.869 151.106 234.868H137.727C135.384 234.871 133.106 235.645 131.246 237.07C129.387 238.495 128.047 240.493 127.435 242.755L126.864 244.875C126.775 245.203 126.58 245.493 126.311 245.7C126.041 245.908 125.71 246.021 125.37 246.022Z" fill="white" stroke="#263238" stroke-miterlimit="10"/>
<path d="M128.836 196.906H78.3928C77.9817 196.906 77.5874 196.742 77.2968 196.452C77.0061 196.161 76.8428 195.767 76.8428 195.356C76.8428 194.945 77.0061 194.55 77.2968 194.26C77.5874 193.969 77.9817 193.806 78.3928 193.806H128.836C129.247 193.806 129.641 193.969 129.932 194.26C130.223 194.55 130.386 194.945 130.386 195.356C130.386 195.767 130.223 196.161 129.932 196.452C129.641 196.742 129.247 196.906 128.836 196.906Z" fill="white" stroke="#263238" stroke-miterlimit="10"/>
<path d="M120.726 284.4H120.565C120.363 284.38 120.166 284.32 119.987 284.224C119.807 284.127 119.649 283.996 119.52 283.838C119.392 283.681 119.296 283.499 119.238 283.304C119.18 283.109 119.161 282.904 119.183 282.701L128.644 191.419C129.023 187.865 130.71 184.58 133.379 182.203C136.047 179.826 139.504 178.528 143.077 178.56H147.231C150.86 178.551 154.359 179.903 157.039 182.349C159.718 184.795 161.382 188.158 161.702 191.772L168.287 278.014C168.302 278.218 168.277 278.422 168.214 278.616C168.15 278.81 168.049 278.99 167.916 279.145C167.783 279.3 167.621 279.427 167.439 279.519C167.256 279.611 167.058 279.667 166.854 279.682C166.651 279.697 166.446 279.673 166.252 279.609C166.058 279.545 165.879 279.444 165.724 279.311C165.569 279.178 165.442 279.016 165.35 278.834C165.257 278.652 165.202 278.453 165.187 278.25L158.596 192.008C158.343 189.173 157.034 186.536 154.93 184.62C152.825 182.703 150.078 181.647 147.231 181.66H143.077C140.276 181.628 137.563 182.639 135.466 184.496C133.369 186.354 132.038 188.925 131.731 191.71L122.264 283.011C122.224 283.392 122.045 283.744 121.761 284C121.477 284.257 121.109 284.399 120.726 284.4Z" fill="white" stroke="#263238" stroke-miterlimit="10"/>
<path d="M120.435 287.823H120.212C119.928 287.794 119.653 287.71 119.402 287.574C119.151 287.439 118.93 287.255 118.75 287.034C118.57 286.813 118.436 286.558 118.355 286.285C118.274 286.012 118.247 285.725 118.277 285.442L118.563 282.639C118.592 282.354 118.677 282.078 118.813 281.826C118.949 281.574 119.134 281.351 119.356 281.17C119.578 280.99 119.834 280.854 120.108 280.772C120.383 280.69 120.671 280.663 120.956 280.693C121.241 280.722 121.517 280.807 121.769 280.943C122.021 281.079 122.244 281.264 122.425 281.486C122.606 281.708 122.741 281.964 122.823 282.238C122.905 282.513 122.932 282.801 122.903 283.086L122.611 285.888C122.551 286.422 122.296 286.916 121.894 287.273C121.492 287.63 120.973 287.826 120.435 287.823Z" fill="#263238" stroke="#263238" stroke-miterlimit="10"/>
<path d="M143.375 176.954L142.377 180.476C142.377 180.476 140.157 183.768 140.616 184.227C141.075 184.686 141.763 184.847 142.073 184.537C142.383 184.227 144.906 182.162 145.136 181.393C145.365 180.625 146.438 176.433 146.438 176.433" fill="white"/>
<path d="M143.375 176.954L142.377 180.476C142.377 180.476 140.157 183.768 140.616 184.227C141.075 184.686 141.763 184.847 142.073 184.537C142.383 184.227 144.906 182.162 145.136 181.393C145.365 180.625 146.438 176.433 146.438 176.433" stroke="#263238" stroke-linecap="round" stroke-linejoin="round"/>
<path d="M148.8 176.954C148.8 176.954 147.957 181.393 147.647 182.082C147.337 182.77 144.206 184.611 143.592 184.841C143.062 184.924 142.519 184.816 142.061 184.537L145.043 182.057L146.425 176.39" fill="white"/>
<path d="M148.8 176.954C148.8 176.954 147.957 181.393 147.647 182.082C147.337 182.77 144.206 184.611 143.592 184.841C143.062 184.924 142.519 184.816 142.061 184.537L145.043 182.057L146.425 176.39" stroke="#263238" stroke-linecap="round" stroke-linejoin="round"/>
<path d="M153.76 176.446C153.76 176.446 152.966 180.321 152.966 180.935C152.966 181.548 150.214 183.694 149.141 183.923C148.068 184.152 146.692 184.543 146.692 184.543C146.692 184.543 148.986 182.931 149.37 182.063C149.755 181.195 149.829 178.312 149.829 178.312" fill="white"/>
<path d="M153.76 176.446C153.76 176.446 152.966 180.321 152.966 180.935C152.966 181.548 150.214 183.694 149.141 183.923C148.068 184.152 146.692 184.543 146.692 184.543C146.692 184.543 148.986 182.931 149.37 182.063C149.755 181.195 149.829 178.312 149.829 178.312" stroke="#263238" stroke-linecap="round" stroke-linejoin="round"/>
<path d="M151.181 177.568C151.181 177.568 150.493 181.908 150.189 182.621C149.885 183.334 147.659 183.997 146.667 184.537C146.406 184.695 146.102 184.765 145.798 184.737C145.495 184.709 145.208 184.584 144.981 184.382L147.659 182.082L148.812 176.954" fill="white"/>
<path d="M151.181 177.568C151.181 177.568 150.493 181.908 150.189 182.621C149.885 183.334 147.659 183.997 146.667 184.537C146.406 184.695 146.102 184.765 145.798 184.737C145.495 184.709 145.208 184.584 144.981 184.382L147.659 182.082L148.812 176.954" stroke="#263238" stroke-linecap="round" stroke-linejoin="round"/>
<path d="M166.972 283.396C166.426 283.396 165.901 283.189 165.5 282.818C165.1 282.446 164.855 281.938 164.815 281.393L164.579 278.293C164.557 278.008 164.592 277.722 164.681 277.45C164.77 277.179 164.912 276.927 165.098 276.711C165.285 276.494 165.512 276.316 165.767 276.187C166.022 276.058 166.3 275.98 166.585 275.959C166.87 275.937 167.156 275.972 167.428 276.061C167.699 276.15 167.95 276.292 168.167 276.478C168.384 276.664 168.562 276.892 168.691 277.147C168.82 277.402 168.897 277.68 168.919 277.965L169.155 281.065C169.197 281.638 169.01 282.206 168.635 282.642C168.259 283.078 167.726 283.347 167.152 283.39L166.972 283.396Z" fill="#263238" stroke="#263238" stroke-miterlimit="10"/>
<path d="M159.377 125.959L158.639 130.243L163.959 133.046L164.846 127.286L159.377 125.959Z" fill="white" stroke="#263238" stroke-miterlimit="10"/>
<path d="M159.34 169.756C159.34 169.756 158.317 186.353 160.357 202.436C162.397 218.519 168.528 257.436 168.783 258.968C169.037 260.499 169.806 270.717 169.806 271.479C169.806 272.242 166.47 278.38 163.68 280.928C160.89 283.476 158.317 283.991 160.617 285.522C162.917 287.054 166.724 287.296 169.161 286.793C171.597 286.291 175.169 283.737 175.169 283.737L178.107 281.468L178.262 281.368C178.672 281.182 180.457 280.358 181.803 279.905C183.334 279.397 183.594 276.842 183.334 273.525C183.092 270.345 180.972 261.07 180.798 260.301C180.795 260.266 180.795 260.23 180.798 260.195C180.668 258.782 178.021 223.578 179.013 211.37C179.998 198.859 181.04 182.28 181.04 182.28H189.466C191.506 182.28 196.614 178.957 196.614 178.957L197.358 170.5C197.358 170.5 183.061 171.263 175.913 169.731C168.764 168.2 159.83 165.645 159.83 165.645L159.34 169.756Z" fill="#8A8A8A" stroke="#636363" stroke-miterlimit="10"/>
<path d="M173.712 274.759C172.496 274.437 171.418 273.728 170.643 272.738C170.55 272.63 170.433 272.547 170.3 272.495C170.168 272.444 170.025 272.427 169.884 272.444C169.743 272.462 169.609 272.515 169.494 272.597C169.378 272.68 169.285 272.79 169.223 272.918C168.163 275.088 165.763 279.012 163.643 280.928C160.834 283.483 158.28 283.991 160.58 285.522C162.88 287.054 166.687 287.296 169.124 286.793C171.56 286.291 175.131 283.737 175.131 283.737L178.07 281.468L178.225 281.368C178.634 281.182 180.42 280.358 181.765 279.905C183.111 279.453 183.489 277.363 183.365 274.555C183.359 274.429 183.326 274.307 183.267 274.196C183.209 274.085 183.127 273.988 183.027 273.912C182.927 273.837 182.812 273.784 182.689 273.758C182.566 273.732 182.439 273.733 182.317 273.761C180.302 274.232 175.671 275.199 173.712 274.759Z" fill="white" stroke="#263238" stroke-miterlimit="10"/>
<path d="M199.404 170.01C199.404 170.01 191.89 214.898 191.89 216.938C191.89 218.978 195.356 244.72 194.73 257.002C194.593 259.563 194.041 269.694 193.533 273.265C193.025 276.836 193.018 280.159 192.764 281.691C192.51 283.222 190.724 289.608 186.384 291.648C182.044 293.688 178.975 293.948 177.444 292.417C175.913 290.885 178.213 288.839 179.998 285.522C180.953 283.862 181.559 282.025 181.778 280.122C181.785 279.991 181.764 279.86 181.716 279.738C181.449 279.081 180.513 276.7 180.513 275.819C180.513 274.803 182.044 273.011 181.784 269.948C181.524 266.885 175.658 230.776 175.404 218.265C175.15 205.753 174.896 180.222 174.896 180.222L169.024 177.928" fill="#8A8A8A"/>
<path d="M199.404 170.01C199.404 170.01 191.89 214.898 191.89 216.938C191.89 218.978 195.356 244.72 194.73 257.002C194.593 259.563 194.041 269.694 193.533 273.265C193.025 276.836 193.018 280.159 192.764 281.691C192.51 283.222 190.724 289.608 186.384 291.648C182.044 293.688 178.975 293.948 177.444 292.417C175.913 290.885 178.213 288.839 179.998 285.522C180.953 283.862 181.559 282.025 181.778 280.122C181.785 279.991 181.764 279.86 181.716 279.738C181.449 279.081 180.513 276.7 180.513 275.819C180.513 274.803 182.044 273.011 181.784 269.948C181.524 266.885 175.658 230.776 175.404 218.265C175.15 205.753 174.896 180.222 174.896 180.222L169.024 177.928" stroke="#636363" stroke-miterlimit="10"/>
<path d="M175.038 105.567C175.038 105.567 167.357 122.71 167.505 127.584C167.654 132.457 161.355 168.956 161.355 168.956C161.355 168.956 170.903 172.831 176.812 172.98C182.72 173.129 187.6 173.123 187.6 173.123C187.6 173.123 186.415 134.968 187.451 128.173C188.486 121.377 191.58 106.603 191.58 106.603L175.038 105.567Z" fill="#0044FF" stroke="#263238" stroke-miterlimit="10"/>
<path d="M174.598 109.12C174.598 109.12 176.074 111.929 180.798 112.84C185.523 113.751 188.486 111.805 188.486 111.805L191.289 99.4045L182.571 96.4471L177.884 98.9271L174.598 109.12Z" fill="white" stroke="#263238" stroke-miterlimit="10"/>
<path d="M178.436 97.7429C178.436 97.7429 169.88 99.3673 167.357 99.8199C164.833 100.273 162.632 101.296 161.746 106.764C160.859 112.232 159.377 125.984 159.377 125.984L163.37 127.906C163.37 127.906 162.924 132.928 163.37 135.439C163.816 137.95 157.747 173.147 157.747 173.147L162.769 175.218C162.769 175.218 166.321 149.916 167.357 141.937C168.392 133.957 168.243 131.006 170.314 123.764C172.385 116.523 179.174 101.017 179.323 100.57C179.471 100.124 180.358 97.3214 180.358 97.3214L178.436 97.7429Z" fill="#263238" stroke="#263238" stroke-miterlimit="10"/>
<path d="M164.994 111.185L165.732 115.909C165.732 115.909 163.81 124.775 163.37 127.881" stroke="white" stroke-miterlimit="10"/>
<path d="M170.277 118.209C169.954 119.238 169.657 120.249 169.427 121.229" stroke="white" stroke-miterlimit="10"/>
<path d="M177.847 100.397C175.271 105.39 173.01 110.54 171.077 115.816" stroke="white" stroke-miterlimit="10"/>
<path d="M175.336 100.105C175.336 100.105 170.457 107.489 169.719 111.333" stroke="white" stroke-miterlimit="10"/>
<path d="M179.18 105.251C179.248 102.337 177.89 98.9086 177.89 98.9086C177.89 98.9086 174.499 100.322 172.93 98.766C171.362 97.2098 169.961 92.566 169.533 89.993C169.105 87.42 168.262 77.8286 168.262 77.8286V75.516C168.262 75.516 188.399 65.7014 189.391 66.6934C190.383 67.6854 182.571 72.7446 182.571 73.1662C182.571 73.5878 186.056 82.4166 187.333 81.4928C188.61 80.569 192.175 76.8676 193.167 80.0668C194.159 83.266 193.452 88.6786 192.318 89.8132C191.183 90.9478 190.111 91.7352 189.683 93.4464C189.539 94.2163 189.275 94.959 188.902 95.6474C188.902 95.6474 190.253 98.208 189.615 103.757" fill="white"/>
<path d="M179.18 105.251C179.248 102.337 177.89 98.9086 177.89 98.9086C177.89 98.9086 174.499 100.322 172.93 98.766C171.362 97.2098 169.961 92.566 169.533 89.993C169.105 87.42 168.262 77.8286 168.262 77.8286V75.516C168.262 75.516 188.399 65.7014 189.391 66.6934C190.383 67.6854 182.571 72.7446 182.571 73.1662C182.571 73.5878 186.056 82.4166 187.333 81.4928C188.61 80.569 192.175 76.8676 193.167 80.0668C194.159 83.266 193.452 88.6786 192.318 89.8132C191.183 90.9478 190.111 91.7352 189.683 93.4464C189.539 94.2163 189.275 94.959 188.902 95.6474C188.902 95.6474 190.253 98.208 189.615 103.757" stroke="#263238" stroke-miterlimit="10"/>
<path d="M177.884 98.9086L182.571 96.41L179.025 102.319L177.884 98.9086Z" fill="#263238" stroke="#263238" stroke-miterlimit="10"/>
<path d="M172.23 84.3199C172.23 84.3199 172.23 85.4483 171.095 88.1391L169.967 90.8237C170.43 91.2153 170.997 91.4642 171.599 91.5401C172.201 91.616 172.812 91.5158 173.358 91.2515" stroke="#263238" stroke-miterlimit="10"/>
<path d="M172.509 93.6758C172.509 93.6758 173.922 94.0974 174.635 93.6758" stroke="#263238" stroke-miterlimit="10"/>
<path d="M177.32 85.1198C177.32 85.7398 177.016 86.2234 176.644 86.2234C176.272 86.2234 175.968 85.7274 175.968 85.1198C175.968 84.5122 176.272 84.0162 176.644 84.0162C177.016 84.0162 177.32 84.5122 177.32 85.1198Z" fill="#263238"/>
<path d="M171.38 84.6238C171.38 85.2438 171.083 85.7274 170.705 85.7274C170.326 85.7274 170.029 85.2314 170.029 84.6238C170.029 84.0162 170.333 83.5202 170.705 83.5202C171.077 83.5202 171.38 84.0162 171.38 84.6238Z" fill="#263238"/>
<path d="M175.119 81.6353C175.758 81.4017 176.455 81.3792 177.108 81.5712C177.761 81.7631 178.335 82.1594 178.746 82.7017" stroke="#263238" stroke-miterlimit="10"/>
<path d="M171.988 81.9206C171.82 81.7659 171.622 81.6479 171.405 81.5742C171.189 81.5005 170.96 81.4727 170.732 81.4925C170.505 81.5124 170.284 81.5794 170.084 81.6894C169.884 81.7994 169.709 81.9499 169.57 82.1314" stroke="#263238" stroke-miterlimit="10"/>
<path d="M185.244 69.3408C182.533 70.4649 179.888 71.7399 177.32 73.16C174.493 74.8588 168.268 77.8286 168.268 77.8286C168.268 77.8286 165.168 76.8366 164.164 73.8668C163.159 70.897 171.945 63.8228 177.035 61.845C182.125 59.8672 186.093 61.7024 191.915 63.9654C197.737 66.2284 199.696 72.7384 202.101 78.3928C204.507 84.0472 203.961 88.1578 202.523 90.985C200.822 94.5022 198.039 97.3815 194.581 99.2C190.619 101.184 186.521 97.6438 186.093 96.5154C185.808 95.729 185.572 94.9255 185.386 94.1098C185.386 94.1098 188.356 93.6882 188.635 92.8388C188.914 91.9894 189.342 89.5838 189.342 89.5838C190.176 88.8089 190.934 87.9556 191.605 87.0356C193.025 85.0578 193.161 80.5318 191.326 80.3892C189.491 80.2466 187.364 83.359 187.364 83.359C187.364 83.359 183.83 81.096 181.846 78.1262C179.862 75.1564 179.44 73.4576 179.44 73.4576L185.244 69.3408Z" fill="#263238" stroke="#263238" stroke-miterlimit="10"/>
<path d="M190.111 99.2C190.111 99.2 186.713 113.237 184.053 120.9C181.393 128.563 182.131 137.888 182.571 145.57C183.012 153.252 185.256 178.647 185.256 178.647C185.256 178.647 194.265 177.314 197.073 175.838C199.586 174.37 202.003 172.742 204.309 170.965C204.309 170.965 199.293 144.076 199.144 143.635C198.995 143.195 198.555 139.5 198.555 139.5C198.555 139.5 204.879 107.88 203.255 105.4C201.63 102.92 190.111 99.2 190.111 99.2Z" fill="#263238" stroke="#263238" stroke-miterlimit="10"/>
<path d="M187.742 137.776L187.153 138.812C187.153 138.812 170.754 142.798 168.392 142.798C166.03 142.798 162.632 143.245 161.746 142.798C160.859 142.352 157.902 139.55 156.717 138.812C155.533 138.074 154.504 138.365 152.88 137.776C151.255 137.187 150.517 134.968 149.78 136.152C149.042 137.336 150.226 138.812 150.815 139.252C151.404 139.692 153.624 140.876 153.624 140.876C153.624 140.876 147.331 143.945 146.562 144.702C146.126 145.085 145.852 145.619 145.793 146.196L147.126 147.529C147.126 147.529 147.417 149.445 147.864 149.891C148.31 150.338 149.191 151.075 149.191 151.075C149.192 151.324 149.282 151.565 149.444 151.753C149.607 151.942 149.831 152.066 150.077 152.105C150.964 152.253 151.702 152.105 154.213 151.962C156.724 151.819 163.06 149.42 163.06 149.42C163.06 149.42 177.686 149.718 180.494 149.718C183.303 149.718 195.74 149.42 196.614 148.682C197.489 147.944 199.683 138.936 199.683 138.936C199.683 138.936 191.14 135.117 187.742 137.776Z" fill="white" stroke="#263238" stroke-miterlimit="10"/>
<path d="M192.622 113.993L187.742 137.776C189.294 137.834 190.833 138.082 192.324 138.514C194.383 139.186 196.364 140.078 198.233 141.174C198.233 141.174 199.268 141.025 199.708 138.961C200.148 136.896 200.892 133.195 200.892 133.195C200.892 133.195 206.212 117.98 206.652 114.595C207.092 111.209 206.212 106.026 204.736 104.402C203.261 102.777 195.133 101.891 195.133 101.891" fill="#263238"/>
<path d="M192.622 113.993L187.742 137.776C189.294 137.834 190.833 138.082 192.324 138.514C194.383 139.186 196.364 140.078 198.233 141.174C198.233 141.174 199.268 141.025 199.708 138.961C200.148 136.896 200.892 133.195 200.892 133.195C200.892 133.195 206.212 117.98 206.652 114.595C207.092 111.209 206.212 106.026 204.736 104.402C203.261 102.777 195.133 101.891 195.133 101.891" stroke="#263238" stroke-miterlimit="10"/>
<path d="M189.838 134.918L191.537 116.244" stroke="white" stroke-miterlimit="10"/>
<path d="M189.1 131.719H189.007L187.178 138.787C188.68 138.544 190.218 138.65 191.673 139.097C194.333 139.835 199.144 142.501 199.144 142.501C200.154 141.59 200.869 140.398 201.196 139.078C201.475 137.776 201.5 134.168 200.917 133.17C195.405 127.367 189.1 131.719 189.1 131.719Z" fill="white" stroke="#263238" stroke-miterlimit="10"/>
<path d="M192.82 281.089C192.836 280.936 192.81 280.782 192.745 280.642C192.68 280.503 192.579 280.383 192.452 280.296C192.325 280.209 192.177 280.158 192.024 280.148C191.87 280.138 191.717 280.17 191.58 280.24C189.813 281.145 187.631 282.1 186.415 282.1C185.14 281.995 183.919 281.533 182.894 280.767C182.778 280.686 182.644 280.635 182.504 280.618C182.364 280.602 182.222 280.621 182.091 280.673C181.96 280.726 181.844 280.81 181.754 280.918C181.663 281.026 181.601 281.156 181.573 281.294C181.242 282.766 180.703 284.183 179.974 285.504C178.188 288.821 175.888 290.867 177.419 292.398C178.951 293.93 182.02 293.675 186.36 291.629C190.7 289.583 192.485 283.204 192.739 281.672C192.82 281.517 192.82 281.313 192.82 281.089Z" fill="white" stroke="#263238" stroke-miterlimit="10"/>
<path d="M95.6846 71.3558C98.5826 67.0383 99.7347 61.7821 98.9083 56.6482C98.0819 51.5143 95.3385 46.8852 91.232 43.6952C87.1255 40.5052 81.9616 38.9919 76.7829 39.4609C71.6041 39.9299 66.7961 42.3462 63.3295 46.222C59.8628 50.0979 57.9957 55.1445 58.105 60.3434C58.2144 65.5422 60.292 70.5059 63.9185 74.2326C67.545 77.9592 72.4503 80.1713 77.6442 80.4221C82.8381 80.673 87.9338 78.944 91.9026 75.5842L98.2266 77.3636L95.6846 71.3558Z" fill="#263238" stroke="#263238" stroke-miterlimit="10"/>
<path d="M94.4694 69.8988C97.363 65.5862 98.5129 60.3365 97.6869 55.2092C96.8609 50.082 94.1205 45.459 90.0189 42.2734C85.9173 39.0878 80.7599 37.5768 75.5877 38.0454C70.4155 38.514 65.6137 40.9273 62.1514 44.7982C58.6891 48.6692 56.8243 53.7094 56.9333 58.9016C57.0422 64.0939 59.1169 69.0515 62.7385 72.7737C66.3601 76.496 71.259 78.7057 76.4463 78.9569C81.6336 79.2081 86.7231 77.4821 90.6874 74.1272L97.0114 75.9004L94.4694 69.8988Z" fill="white" stroke="#263238" stroke-miterlimit="10"/>
<path d="M70.5436 62.9176V58.962C71.4545 58.2564 72.286 57.454 73.0236 56.5688C73.7413 55.7259 74.3305 54.7816 74.772 53.7664C75.191 52.7871 75.4021 51.7315 75.392 50.6664C75.4431 50.0895 75.2966 49.5123 74.9766 49.0296C74.826 48.8514 74.6347 48.7121 74.4188 48.6236C74.203 48.5351 73.9689 48.5 73.7366 48.5212C73.5253 48.5093 73.3138 48.5411 73.1154 48.6147C72.9169 48.6884 72.7358 48.8021 72.5834 48.949C72.2964 49.2793 72.1496 49.7086 72.1742 50.1456C72.1676 50.4405 72.2031 50.7349 72.2796 51.0198C72.354 51.274 72.4408 51.5468 72.54 51.832L68.0326 52.8736C67.8757 52.407 67.7494 51.9306 67.6544 51.4476C67.5582 50.9679 67.5104 50.4798 67.5118 49.9906C67.4674 49.2121 67.5912 48.4331 67.8747 47.7067C68.1582 46.9803 68.5948 46.3234 69.1548 45.7808C70.246 44.7681 71.8146 44.2618 73.8606 44.2618C75.919 44.2618 77.5124 44.8012 78.6222 45.8862C79.732 46.9712 80.2962 48.5088 80.2962 50.5114C80.3003 51.7047 80.0903 52.889 79.6762 54.0082C79.2497 55.1312 78.6446 56.178 77.8844 57.1082C77.0448 58.1404 76.0829 59.0668 75.02 59.8672V62.8742L70.5436 62.9176ZM70.3886 69.44V64.6846H75.2618V69.44H70.3886Z" fill="#263238"/>
<path d="M82.832 69.44V64.7776H87.5564V69.44H82.832ZM84.3634 63.1222L82.925 44.671H87.885L86.0746 63.1222H84.3634Z" fill="#263238"/>
</svg>
