<svg width="295" height="295" viewBox="0 0 295 295" fill="none" xmlns="http://www.w3.org/2000/svg">
<path d="M100.919 72.57H50.2503V118.584H100.919V72.57Z" fill="#0044FF"/>
<mask id="mask0_6_1151" style="mask-type:luminance" maskUnits="userSpaceOnUse" x="50" y="72" width="51" height="47">
<path d="M100.919 72.57H50.2503V118.584H100.919V72.57Z" fill="white"/>
</mask>
<g mask="url(#mask0_6_1151)">
<path opacity="0.37" d="M100.919 72.57H50.2503V118.584H100.919V72.57Z" fill="black"/>
</g>
<path d="M86.3583 72.57H50.2503V118.584H86.3583V72.57Z" fill="#0044FF"/>
<path d="M71.9682 72.57H64.2097V85.4143H71.9682V72.57Z" fill="white"/>
<path d="M82.9422 89.1667H73.9506V93.7569H82.9422V89.1667Z" fill="white"/>
<path d="M78.8264 105.516L69.5597 103.222L68.1934 108.743L77.4601 111.037L78.8264 105.516Z" fill="white"/>
<path d="M138.679 72.57H88.0103V118.584H138.679V72.57Z" fill="#0044FF"/>
<mask id="mask1_6_1151" style="mask-type:luminance" maskUnits="userSpaceOnUse" x="88" y="72" width="51" height="47">
<path d="M138.679 72.57H88.0103V118.584H138.679V72.57Z" fill="white"/>
</mask>
<g mask="url(#mask1_6_1151)">
<path opacity="0.37" d="M138.679 72.57H88.0103V118.584H138.679V72.57Z" fill="black"/>
</g>
<path d="M124.118 72.57H88.0103V118.584H124.118V72.57Z" fill="#0044FF"/>
<path d="M109.728 72.57H101.97V85.4143H109.728V72.57Z" fill="white"/>
<path d="M120.702 89.1667H111.711V93.7569H120.702V89.1667Z" fill="white"/>
<path d="M116.584 105.518L107.317 103.225L105.951 108.746L115.218 111.039L116.584 105.518Z" fill="white"/>
<path d="M176.439 72.57H125.77V118.584H176.439V72.57Z" fill="#0044FF"/>
<mask id="mask2_6_1151" style="mask-type:luminance" maskUnits="userSpaceOnUse" x="125" y="72" width="52" height="47">
<path d="M176.439 72.57H125.77V118.584H176.439V72.57Z" fill="white"/>
</mask>
<g mask="url(#mask2_6_1151)">
<path opacity="0.37" d="M176.439 72.57H125.77V118.584H176.439V72.57Z" fill="black"/>
</g>
<path d="M161.878 72.57H125.77V118.584H161.878V72.57Z" fill="#0044FF"/>
<path d="M147.488 72.57H139.73V85.4143H147.488V72.57Z" fill="white"/>
<path d="M158.462 89.1667H149.471V93.7569H158.462V89.1667Z" fill="white"/>
<path d="M154.341 105.521L145.075 103.228L143.709 108.749L152.975 111.042L154.341 105.521Z" fill="white"/>
<path d="M214.199 72.57H163.53V118.584H214.199V72.57Z" fill="#0044FF"/>
<mask id="mask3_6_1151" style="mask-type:luminance" maskUnits="userSpaceOnUse" x="163" y="72" width="52" height="47">
<path d="M214.199 72.57H163.53V118.584H214.199V72.57Z" fill="white"/>
</mask>
<g mask="url(#mask3_6_1151)">
<path opacity="0.37" d="M214.199 72.57H163.53V118.584H214.199V72.57Z" fill="black"/>
</g>
<path d="M199.638 72.57H163.53V118.584H199.638V72.57Z" fill="#0044FF"/>
<path d="M185.248 72.57H177.49V85.4143H185.248V72.57Z" fill="white"/>
<path d="M196.222 89.1667H187.231V93.7569H196.222V89.1667Z" fill="white"/>
<path d="M192.105 105.524L182.838 103.23L181.472 108.752L190.739 111.045L192.105 105.524Z" fill="white"/>
<path d="M100.919 135.7H50.2503V181.714H100.919V135.7Z" fill="#0044FF"/>
<mask id="mask4_6_1151" style="mask-type:luminance" maskUnits="userSpaceOnUse" x="50" y="135" width="51" height="47">
<path d="M100.919 135.7H50.2503V181.714H100.919V135.7Z" fill="white"/>
</mask>
<g mask="url(#mask4_6_1151)">
<path opacity="0.37" d="M100.919 135.7H50.2503V181.714H100.919V135.7Z" fill="black"/>
</g>
<path d="M86.3583 135.7H50.2503V181.714H86.3583V135.7Z" fill="#0044FF"/>
<path d="M71.9682 135.7H64.2097V148.544H71.9682V135.7Z" fill="white"/>
<path d="M82.9422 152.297H73.9506V156.887H82.9422V152.297Z" fill="white"/>
<path d="M78.8179 168.644L69.5512 166.35L68.1849 171.871L77.4516 174.165L78.8179 168.644Z" fill="white"/>
<path d="M138.679 135.7H88.0103V181.714H138.679V135.7Z" fill="#0044FF"/>
<mask id="mask5_6_1151" style="mask-type:luminance" maskUnits="userSpaceOnUse" x="88" y="135" width="51" height="47">
<path d="M138.679 135.7H88.0103V181.714H138.679V135.7Z" fill="white"/>
</mask>
<g mask="url(#mask5_6_1151)">
<path opacity="0.37" d="M138.679 135.7H88.0103V181.714H138.679V135.7Z" fill="black"/>
</g>
<path d="M124.118 135.7H88.0103V181.714H124.118V135.7Z" fill="#0044FF"/>
<path d="M109.728 135.7H101.97V148.544H109.728V135.7Z" fill="white"/>
<path d="M120.702 152.297H111.711V156.887H120.702V152.297Z" fill="white"/>
<path d="M116.581 168.646L107.315 166.353L105.948 171.874L115.215 174.167L116.581 168.646Z" fill="white"/>
<path d="M176.439 135.7H125.77V181.714H176.439V135.7Z" fill="#0044FF"/>
<mask id="mask6_6_1151" style="mask-type:luminance" maskUnits="userSpaceOnUse" x="125" y="135" width="52" height="47">
<path d="M176.439 135.7H125.77V181.714H176.439V135.7Z" fill="white"/>
</mask>
<g mask="url(#mask6_6_1151)">
<path opacity="0.37" d="M176.439 135.7H125.77V181.714H176.439V135.7Z" fill="black"/>
</g>
<path d="M161.878 135.7H125.77V181.714H161.878V135.7Z" fill="#0044FF"/>
<path d="M147.488 135.7H139.73V148.544H147.488V135.7Z" fill="white"/>
<path d="M158.462 152.297H149.471V156.887H158.462V152.297Z" fill="white"/>
<path d="M154.339 168.649L145.072 166.356L143.706 171.877L152.973 174.17L154.339 168.649Z" fill="white"/>
<path d="M214.199 135.7H163.53V181.714H214.199V135.7Z" fill="#0044FF"/>
<mask id="mask7_6_1151" style="mask-type:luminance" maskUnits="userSpaceOnUse" x="163" y="135" width="52" height="47">
<path d="M214.199 135.7H163.53V181.714H214.199V135.7Z" fill="white"/>
</mask>
<g mask="url(#mask7_6_1151)">
<path opacity="0.37" d="M214.199 135.7H163.53V181.714H214.199V135.7Z" fill="black"/>
</g>
<path d="M199.638 135.7H163.53V181.714H199.638V135.7Z" fill="#0044FF"/>
<path d="M185.248 135.7H177.49V148.544H185.248V135.7Z" fill="white"/>
<path d="M196.222 152.297H187.231V156.887H196.222V152.297Z" fill="white"/>
<path d="M192.096 168.652L182.83 166.358L181.464 171.88L190.73 174.173L192.096 168.652Z" fill="white"/>
<path d="M100.919 198.83H50.2503V244.844H100.919V198.83Z" fill="#0044FF"/>
<mask id="mask8_6_1151" style="mask-type:luminance" maskUnits="userSpaceOnUse" x="50" y="198" width="51" height="47">
<path d="M100.919 198.83H50.2503V244.844H100.919V198.83Z" fill="white"/>
</mask>
<g mask="url(#mask8_6_1151)">
<path opacity="0.37" d="M100.919 198.83H50.2503V244.844H100.919V198.83Z" fill="black"/>
</g>
<path d="M86.3583 198.83H50.2503V244.844H86.3583V198.83Z" fill="#0044FF"/>
<path d="M71.9682 198.83H64.2097V211.674H71.9682V198.83Z" fill="white"/>
<path d="M82.9422 215.427H73.9506V220.017H82.9422V215.427Z" fill="white"/>
<path d="M78.8153 231.772L69.5486 229.478L68.1823 234.999L77.449 237.293L78.8153 231.772Z" fill="white"/>
<path d="M138.679 198.83H88.0103V244.844H138.679V198.83Z" fill="#0044FF"/>
<mask id="mask9_6_1151" style="mask-type:luminance" maskUnits="userSpaceOnUse" x="88" y="198" width="51" height="47">
<path d="M138.679 198.83H88.0103V244.844H138.679V198.83Z" fill="white"/>
</mask>
<g mask="url(#mask9_6_1151)">
<path opacity="0.37" d="M138.679 198.83H88.0103V244.844H138.679V198.83Z" fill="black"/>
</g>
<path d="M124.118 198.83H88.0103V244.844H124.118V198.83Z" fill="#0044FF"/>
<path d="M109.728 198.83H101.97V211.674H109.728V198.83Z" fill="white"/>
<path d="M120.702 215.427H111.711V220.017H120.702V215.427Z" fill="white"/>
<path d="M116.579 231.774L107.312 229.481L105.946 235.002L115.212 237.295L116.579 231.774Z" fill="white"/>
<path d="M176.439 198.83H125.77V244.844H176.439V198.83Z" fill="#0044FF"/>
<mask id="mask10_6_1151" style="mask-type:luminance" maskUnits="userSpaceOnUse" x="125" y="198" width="52" height="47">
<path d="M176.439 198.83H125.77V244.844H176.439V198.83Z" fill="white"/>
</mask>
<g mask="url(#mask10_6_1151)">
<path opacity="0.37" d="M176.439 198.83H125.77V244.844H176.439V198.83Z" fill="black"/>
</g>
<path d="M161.878 198.83H125.77V244.844H161.878V198.83Z" fill="#0044FF"/>
<path d="M147.488 198.83H139.73V211.674H147.488V198.83Z" fill="white"/>
<path d="M158.462 215.427H149.471V220.017H158.462V215.427Z" fill="white"/>
<path d="M154.336 231.777L145.07 229.484L143.703 235.005L152.97 237.298L154.336 231.777Z" fill="white"/>
<path d="M214.199 198.83H163.53V244.844H214.199V198.83Z" fill="#0044FF"/>
<mask id="mask11_6_1151" style="mask-type:luminance" maskUnits="userSpaceOnUse" x="163" y="198" width="52" height="47">
<path d="M214.199 198.83H163.53V244.844H214.199V198.83Z" fill="white"/>
</mask>
<g mask="url(#mask11_6_1151)">
<path opacity="0.37" d="M214.199 198.83H163.53V244.844H214.199V198.83Z" fill="black"/>
</g>
<path d="M199.638 198.83H163.53V244.844H199.638V198.83Z" fill="#0044FF"/>
<path d="M185.248 198.83H177.49V211.674H185.248V198.83Z" fill="white"/>
<path d="M196.222 215.427H187.231V220.017H196.222V215.427Z" fill="white"/>
<path d="M192.094 231.78L182.827 229.487L181.461 235.008L190.728 237.301L192.094 231.78Z" fill="white"/>
<path d="M218.89 55.6606H41.89V63.9206H218.89V55.6606Z" fill="#A3A3A3"/>
<path d="M218.89 117.021H41.89V125.281H218.89V117.021Z" fill="#A3A3A3"/>
<path d="M218.89 178.375H41.89V186.635H218.89V178.375Z" fill="#A3A3A3"/>
<path d="M218.89 239.735H41.89V247.995H218.89V239.735Z" fill="#A3A3A3"/>
<path d="M252.52 20.8506H244.85V271.601H252.52V20.8506Z" fill="#7A7A7A"/>
<path d="M89.09 20.8506H81.42V271.601H89.09V20.8506Z" fill="#7A7A7A"/>
<path d="M250.75 55.6606H214.76V63.9206H250.75V55.6606Z" fill="#757575"/>
<path d="M250.75 117.021H214.76V125.281H250.75V117.021Z" fill="#757575"/>
<path d="M250.75 178.375H214.76V186.635H250.75V178.375Z" fill="#757575"/>
<path d="M250.75 239.735H214.76V247.995H250.75V239.735Z" fill="#757575"/>
<path d="M48.97 20.8506H41.3V271.601H48.97V20.8506Z" fill="#A3A3A3"/>
<path d="M133.93 20.8506H126.26V271.601H133.93V20.8506Z" fill="#A3A3A3"/>
<path d="M218.89 20.8506H211.22V271.601H218.89V20.8506Z" fill="#A3A3A3"/>
<path d="M203.391 108H143.199V162.657H203.391V108Z" fill="#0044FF"/>
<mask id="mask12_6_1151" style="mask-type:luminance" maskUnits="userSpaceOnUse" x="143" y="107" width="61" height="56">
<path d="M203.391 108H143.199V162.657H203.391V108Z" fill="white"/>
</mask>
<g mask="url(#mask12_6_1151)">
<path opacity="0.37" d="M203.391 108H143.199V162.657H203.391V108Z" fill="black"/>
</g>
<path d="M203.391 108H143.199V162.657H203.391V108Z" stroke="#263238" stroke-linecap="round" stroke-linejoin="round"/>
<path d="M186.098 108H143.199V162.657H186.098V108Z" fill="#0044FF" stroke="#263238" stroke-linecap="round" stroke-linejoin="round"/>
<path d="M168.994 108H159.778V123.257H168.994V108Z" fill="white" stroke="#263238" stroke-linecap="round" stroke-linejoin="round"/>
<path d="M182.039 127.711H171.354V133.163H182.039V127.711Z" fill="white"/>
<path d="M177.134 147.137L166.126 144.412L164.502 150.976L175.51 153.7L177.134 147.137Z" fill="white"/>
<path d="M167.188 216.937H106.996V271.595H167.188V216.937Z" fill="#0044FF"/>
<mask id="mask13_6_1151" style="mask-type:luminance" maskUnits="userSpaceOnUse" x="106" y="216" width="62" height="56">
<path d="M167.188 216.937H106.996V271.595H167.188V216.937Z" fill="white"/>
</mask>
<g mask="url(#mask13_6_1151)">
<path opacity="0.37" d="M167.188 216.937H106.996V271.595H167.188V216.937Z" fill="black"/>
</g>
<path d="M167.188 216.937H106.996V271.595H167.188V216.937Z" stroke="#263238" stroke-linecap="round" stroke-linejoin="round"/>
<path d="M149.895 216.937H106.996V271.595H149.895V216.937Z" fill="#0044FF" stroke="#263238" stroke-linecap="round" stroke-linejoin="round"/>
<path d="M132.791 216.937H123.576V232.195H132.791V216.937Z" fill="white" stroke="#263238" stroke-linecap="round" stroke-linejoin="round"/>
<path d="M121.853 261.73H111.168V267.182H121.853V261.73Z" fill="white"/>
<path d="M144.293 236.592L133.285 233.868L131.661 240.431L142.669 243.155L144.293 236.592Z" fill="white"/>
<path d="M211.45 216.937H151.258V271.595H211.45V216.937Z" fill="#0044FF"/>
<mask id="mask14_6_1151" style="mask-type:luminance" maskUnits="userSpaceOnUse" x="151" y="216" width="61" height="56">
<path d="M211.45 216.937H151.258V271.595H211.45V216.937Z" fill="white"/>
</mask>
<g mask="url(#mask14_6_1151)">
<path opacity="0.37" d="M211.45 216.937H151.258V271.595H211.45V216.937Z" fill="black"/>
</g>
<path d="M211.45 216.937H151.258V271.595H211.45V216.937Z" stroke="#263238" stroke-linecap="round" stroke-linejoin="round"/>
<path d="M194.157 216.937H151.258V271.595H194.157V216.937Z" fill="#0044FF" stroke="#263238" stroke-linecap="round" stroke-linejoin="round"/>
<path d="M177.053 216.937H167.837V232.195H177.053V216.937Z" fill="white" stroke="#263238" stroke-linecap="round" stroke-linejoin="round"/>
<path d="M190.098 236.655H179.413V242.107H190.098V236.655Z" fill="white"/>
<path d="M166.309 232.886L155.301 230.162L153.677 236.725L164.685 239.45L166.309 232.886Z" fill="white"/>
<path d="M256.29 216.937H196.098V271.595H256.29V216.937Z" fill="#0044FF"/>
<mask id="mask15_6_1151" style="mask-type:luminance" maskUnits="userSpaceOnUse" x="196" y="216" width="61" height="56">
<path d="M256.29 216.937H196.098V271.595H256.29V216.937Z" fill="white"/>
</mask>
<g mask="url(#mask15_6_1151)">
<path opacity="0.37" d="M256.29 216.937H196.098V271.595H256.29V216.937Z" fill="black"/>
</g>
<path d="M256.29 216.937H196.098V271.595H256.29V216.937Z" stroke="#263238" stroke-linecap="round" stroke-linejoin="round"/>
<path d="M238.997 216.937H196.098V271.595H238.997V216.937Z" fill="#0044FF" stroke="#263238" stroke-linecap="round" stroke-linejoin="round"/>
<path d="M221.893 216.937H212.677V232.195H221.893V216.937Z" fill="white" stroke="#263238" stroke-linecap="round" stroke-linejoin="round"/>
<path d="M234.938 236.655H224.253V242.107H234.938V236.655Z" fill="white"/>
<path d="M211.146 232.89L200.138 230.166L198.514 236.73L209.522 239.454L211.146 232.89Z" fill="white"/>
<path d="M187.944 162.427H127.753V217.085H187.944V162.427Z" fill="#0044FF"/>
<mask id="mask16_6_1151" style="mask-type:luminance" maskUnits="userSpaceOnUse" x="127" y="162" width="61" height="56">
<path d="M187.944 162.427H127.753V217.085H187.944V162.427Z" fill="white"/>
</mask>
<g mask="url(#mask16_6_1151)">
<path opacity="0.37" d="M187.944 162.427H127.753V217.085H187.944V162.427Z" fill="black"/>
</g>
<path d="M187.944 162.427H127.753V217.085H187.944V162.427Z" stroke="#263238" stroke-linecap="round" stroke-linejoin="round"/>
<path d="M170.652 162.427H127.753V217.085H170.652V162.427Z" fill="#0044FF" stroke="#263238" stroke-linecap="round" stroke-linejoin="round"/>
<path d="M153.542 162.427H144.326V177.684H153.542V162.427Z" fill="white" stroke="#263238" stroke-linecap="round" stroke-linejoin="round"/>
<path d="M166.592 182.145H155.907V187.596H166.592V182.145Z" fill="white"/>
<path d="M142.799 178.377L131.791 175.653L130.167 182.217L141.174 184.941L142.799 178.377Z" fill="white"/>
<path d="M235.735 162.427H175.543V217.085H235.735V162.427Z" fill="#0044FF"/>
<mask id="mask17_6_1151" style="mask-type:luminance" maskUnits="userSpaceOnUse" x="175" y="162" width="61" height="56">
<path d="M235.735 162.427H175.543V217.085H235.735V162.427Z" fill="white"/>
</mask>
<g mask="url(#mask17_6_1151)">
<path opacity="0.37" d="M235.735 162.427H175.543V217.085H235.735V162.427Z" fill="black"/>
</g>
<path d="M235.735 162.427H175.543V217.085H235.735V162.427Z" stroke="#263238" stroke-linecap="round" stroke-linejoin="round"/>
<path d="M218.442 162.427H175.543V217.085H218.442V162.427Z" fill="#0044FF" stroke="#263238" stroke-linecap="round" stroke-linejoin="round"/>
<path d="M201.332 162.427H192.116V177.684H201.332V162.427Z" fill="white" stroke="#263238" stroke-linecap="round" stroke-linejoin="round"/>
<path d="M214.382 182.145H203.698V187.596H214.382V182.145Z" fill="white"/>
<path d="M193.241 191.303L182.233 188.579L180.609 195.143L191.616 197.867L193.241 191.303Z" fill="white"/>
<path d="M22.656 271.595H281.076" stroke="#263238" stroke-linecap="round" stroke-linejoin="round"/>
<path d="M68.558 253.977C68.558 253.977 66.08 259.01 64.31 261.854C62.54 264.698 59.2537 268.438 59.59 271.73C59.9263 275.023 63.3542 275.377 66.8824 273.5C70.4106 271.624 73.5848 267.86 74.5524 265.034C75.52 262.208 78.5526 259.86 78.5526 256.685C78.5526 253.511 78.3166 253.145 77.1425 252.803C75.9684 252.461 69.7321 251.977 68.558 253.977Z" fill="white" stroke="#263238" stroke-linecap="round" stroke-linejoin="round"/>
<path d="M78.5526 256.68C78.5526 256.213 78.5526 255.812 78.5526 255.458C78.2264 256.44 77.8321 257.398 77.3726 258.326C76.0746 260.916 74.1925 262.456 73.4904 265.618C72.7883 268.78 68.3161 272.438 64.4339 273.377C60.5517 274.315 59.7139 271.146 59.7139 271.146H59.5723C59.5579 271.343 59.5579 271.54 59.5723 271.736C59.9263 275.029 63.3365 275.383 66.8647 273.506C70.3929 271.63 73.5671 267.866 74.5347 265.04C75.5023 262.214 78.5526 259.854 78.5526 256.68Z" fill="#263238" stroke="#263238" stroke-linecap="round" stroke-linejoin="round"/>
<path d="M69.03 256.09C69.03 256.09 70.446 258.09 75.1483 257.506" stroke="#263238" stroke-linecap="round" stroke-linejoin="round"/>
<path d="M68.912 257.742C70.3095 258.841 72.083 259.347 73.8503 259.152" stroke="#263238" stroke-linecap="round" stroke-linejoin="round"/>
<path d="M68.44 259.152C68.9593 259.714 69.6041 260.145 70.3218 260.411C71.0395 260.676 71.8099 260.768 72.57 260.68" stroke="#263238" stroke-linecap="round" stroke-linejoin="round"/>
<path d="M67.968 261.152C67.968 261.152 68.794 262.798 71.9682 262.444" stroke="#263238" stroke-linecap="round" stroke-linejoin="round"/>
<path d="M98.6598 258.42C100.429 261.205 102.862 263.508 105.74 265.122C110.324 267.594 116.206 269.252 116.672 270.432C116.869 270.86 116.907 271.345 116.778 271.798C116.649 272.251 116.363 272.644 115.97 272.904C115.38 273.253 106.678 273.494 102.094 272.668C99.5063 272.116 96.8615 271.878 94.2171 271.96C92.099 271.96 87.5147 272.55 86.9247 269.96C86.3347 267.37 87.8628 257.966 87.8628 257.966C87.8628 257.966 94.7776 259.972 98.6598 258.42Z" fill="white" stroke="#263238" stroke-miterlimit="10"/>
<path d="M115.947 272.91C116.251 272.709 116.492 272.427 116.642 272.095C116.792 271.763 116.846 271.395 116.796 271.034C114.971 271.479 113.115 271.791 111.244 271.966C106.524 272.438 99.4858 270.91 93.9575 270.674C89.8983 270.503 87.6799 269.565 86.789 269.087C86.805 269.383 86.8424 269.676 86.9011 269.966C87.4911 272.556 92.0754 271.966 94.1935 271.966C96.8379 271.884 99.4827 272.121 102.07 272.674C106.654 273.495 115.357 273.259 115.947 272.91Z" fill="#263238" stroke="#263238" stroke-miterlimit="10"/>
<path d="M100.424 261.152C99.5175 261.876 98.7922 262.801 98.3058 263.854" stroke="#263238" stroke-miterlimit="10"/>
<path d="M101.834 262.91C101.834 262.91 100.306 264.208 100.306 265.028" stroke="#263238" stroke-miterlimit="10"/>
<path d="M103.362 264.09C102.966 264.756 102.651 265.467 102.424 266.208" stroke="#263238" stroke-miterlimit="10"/>
<path d="M105.716 265.146C105.716 265.146 104.772 265.972 104.772 266.792" stroke="#263238" stroke-miterlimit="10"/>
<path d="M65.4487 133.535C65.4487 133.535 61.7081 151.335 62.0031 161.07C62.2981 170.805 75.5731 194.995 75.5731 194.995C75.5731 194.995 68.4931 212.4 68.1981 220.07C67.9031 227.74 68.5049 252.431 68.5049 252.431C68.5049 252.431 71.4549 254.142 74.1276 254.142C76.8003 254.142 79.9922 252.797 79.9922 252.797L86.7831 226.247L87.0781 258.402C89.0425 259.566 91.2848 260.178 93.5681 260.172C95.8908 260.158 98.1544 259.438 100.058 258.107C100.058 258.107 104.778 224.182 105.368 218.577C105.958 212.972 109.793 196.157 110.088 194.977C110.383 193.797 115.988 175.212 115.988 160.167C115.988 145.122 111.663 136.078 111.663 136.078C111.663 136.078 96.5181 132.732 85.3081 132.437C78.6693 132.254 72.0268 132.621 65.4487 133.535Z" fill="#263238" stroke="#263238" stroke-linecap="round" stroke-linejoin="round"/>
<path d="M88.8481 221.84C88.8481 221.84 96.5181 200.01 96.5181 194.7C96.5181 189.39 91.5031 156.35 91.5031 156.35" stroke="#878787" stroke-miterlimit="10"/>
<path d="M93.5681 166.38C93.5681 166.38 97.9931 161.365 99.4681 158.415" stroke="#878787" stroke-miterlimit="10"/>
<path d="M111.073 88.3053C111.073 88.3053 117.168 91.8453 120.513 97.1553C123.859 102.465 131.133 124.885 130.738 130.585C130.343 136.284 128.579 137.865 123.463 136.88C118.348 135.895 117.959 130.195 116.779 125.475C115.599 120.755 109.303 90.86 109.303 90.86L109.109 88.1047L111.073 88.3053Z" fill="white" stroke="#263238" stroke-linecap="round" stroke-linejoin="round"/>
<path d="M130.738 130.585C130.939 127.682 129.151 120.437 126.903 113.327L114.46 115.05C115.504 119.888 116.401 123.953 116.779 125.458C117.959 130.178 118.348 135.877 123.463 136.862C128.579 137.848 130.349 136.29 130.738 130.585Z" fill="#CFCFCF" stroke="#263238" stroke-linecap="round" stroke-linejoin="round"/>
<path d="M70.3634 86.5353C70.3634 86.5353 65.6434 87.5147 64.4634 95.7747C63.2834 104.035 66.0387 117.605 66.0387 117.605L65.4487 133.535C65.4487 133.535 85.1134 138.65 93.1787 138.65C101.244 138.65 111.663 136.095 111.663 136.095C111.663 136.095 107.339 96.3647 106.548 93.0253C105.757 89.6859 102.223 86.3347 99.2734 84.1753C96.3234 82.0159 88.8481 82.2047 84.5234 83.3847C80.1987 84.5647 74.0981 86.9247 74.0981 86.9247L70.3634 86.5353Z" fill="white" stroke="#263238" stroke-linecap="round" stroke-linejoin="round"/>
<path d="M84.5234 81.0247C84.5234 81.0247 88.6534 97.7453 89.0487 109.15C89.444 120.555 87.2787 155.955 87.2787 155.955C87.2787 155.955 78.0334 156.35 71.3487 155.17C64.664 153.99 59.9381 153.4 59.9381 153.4L65.8381 116.625C65.8381 116.625 73.9034 117.215 75.6734 111.51C77.4434 105.805 75.0834 94.4 72.9181 90.86C70.7528 87.32 70.3634 86.5353 70.3634 86.5353L84.5234 81.0247Z" fill="#0044FF" stroke="#263238" stroke-linecap="round" stroke-linejoin="round"/>
<path d="M102.418 96.5653C102.418 96.5653 106.749 113.085 106.353 129.605C105.958 146.125 105.763 154.975 105.763 154.975C105.763 154.975 115.203 154.385 120.513 152.22C120.513 152.22 117.563 113.675 114.808 102.265C112.053 90.8541 111.073 88.3053 111.073 88.3053L100.058 83.78L102.418 96.5653Z" fill="#0044FF" stroke="#263238" stroke-linecap="round" stroke-linejoin="round"/>
<path d="M88.7596 77.8151C88.7596 77.8151 84.6296 78.5821 83.544 80.7297C82.4584 82.8773 87.8392 100.518 87.8392 100.518L95.6626 94.0755L105.327 99.5979C105.327 99.5979 103.486 86.2521 99.4976 81.6501C95.5092 77.0481 88.7596 77.8151 88.7596 77.8151Z" fill="white" stroke="#263238" stroke-linecap="round" stroke-linejoin="round"/>
<path d="M87.0722 66.6228C87.0722 66.6228 86.9188 82.1103 88.6062 86.0928C90.2936 90.0753 94.7422 95.9104 96.4296 94.99C98.117 94.0696 98.5772 82.8714 98.884 82.1044C99.1908 81.3374 100.418 75.0244 100.418 75.0244C100.418 75.0244 89.3732 71.98 87.0722 66.6228Z" fill="#CFCFCF" stroke="#263238" stroke-linecap="round" stroke-linejoin="round"/>
<path d="M87.0722 66.6228C87.0722 66.6228 87.0132 72.8414 87.3967 78.4228C89.1571 80.5074 91.6305 81.862 94.3351 82.2224C95.8406 82.4503 97.3732 82.4304 98.8722 82.1634C98.8696 82.1498 98.8696 82.1358 98.8722 82.1221C99.179 81.3551 100.406 75.0421 100.406 75.0421C100.406 75.0421 89.3732 71.98 87.0722 66.6228Z" fill="#263238" stroke="#263238" stroke-linecap="round" stroke-linejoin="round"/>
<path d="M104.33 119.912L103.15 120.631L96.3234 109.475C96.2296 109.319 96.2012 109.132 96.2442 108.955C96.2873 108.778 96.3985 108.626 96.5535 108.531C96.6302 108.483 96.7154 108.451 96.8044 108.437C96.8934 108.422 96.9844 108.426 97.0721 108.446C97.1598 108.467 97.2426 108.505 97.3156 108.558C97.3886 108.611 97.4504 108.678 97.4975 108.755L104.33 119.912Z" fill="white" stroke="#263238" stroke-linecap="round" stroke-linejoin="round"/>
<path d="M70.3634 86.5353C70.3634 86.5353 65.8381 86.9247 63.0887 92.2347C60.3393 97.5447 56.0087 122.525 55.2181 129.8C54.4275 137.075 58.7581 136.485 59.3481 136.485C59.9381 136.485 91.2081 126.065 91.2081 126.065L101.828 124.885C101.828 124.885 100.648 125.865 101.633 125.865C102.619 125.865 104.583 123.9 105.368 122.72C106.153 121.54 103.008 115.05 101.828 114.265C100.648 113.481 90.0281 121.345 90.0281 121.345L69.3781 122.72L74.6881 104.625" fill="white"/>
<path d="M70.3634 86.5353C70.3634 86.5353 65.8381 86.9247 63.0887 92.2347C60.3393 97.5447 56.0087 122.525 55.2181 129.8C54.4275 137.075 58.7581 136.485 59.3481 136.485C59.9381 136.485 91.2081 126.065 91.2081 126.065L101.828 124.885C101.828 124.885 100.648 125.865 101.633 125.865C102.619 125.865 104.583 123.9 105.368 122.72C106.153 121.54 103.008 115.05 101.828 114.265C100.648 113.481 90.0281 121.345 90.0281 121.345L69.3781 122.72L74.6881 104.625" stroke="#263238" stroke-linecap="round" stroke-linejoin="round"/>
<path d="M101.828 114.265C100.648 113.475 90.0281 121.345 90.0281 121.345L69.3781 122.72L70.6879 118.26L57.4778 115.28C56.3863 121.339 55.5308 126.938 55.2181 129.8C54.4334 137.075 58.7581 136.485 59.3481 136.485C59.9381 136.485 91.2081 126.065 91.2081 126.065L101.828 124.885C101.828 124.885 100.648 125.865 101.633 125.865C102.619 125.865 104.583 123.9 105.368 122.72C106.153 121.54 103.008 115.05 101.828 114.265Z" fill="#CFCFCF" stroke="#263238" stroke-linecap="round" stroke-linejoin="round"/>
<path d="M101.828 114.265C100.648 113.475 90.0281 121.345 90.0281 121.345L87.0191 121.546C87.0076 123.451 87.4763 125.328 88.382 127.003L91.2081 126.065L101.828 124.885C101.828 124.885 100.648 125.865 101.633 125.865C102.619 125.865 104.583 123.9 105.368 122.72C106.153 121.54 103.008 115.05 101.828 114.265Z" fill="#666666" stroke="#263238" stroke-linecap="round" stroke-linejoin="round"/>
<path d="M112.253 105.02L92.1934 133.145L118.549 132.16L137.623 106.2L112.253 105.02Z" fill="#263238" stroke="#263238" stroke-linecap="round" stroke-linejoin="round"/>
<path d="M121.109 104.194L119.569 106.755L131.104 107.014L132.644 104.448L121.109 104.194Z" fill="#263238" stroke="#263238" stroke-linecap="round" stroke-linejoin="round"/>
<path d="M128.903 120.98C127.997 121.311 127.054 121.529 126.095 121.629C124.915 121.682 123.829 122.278 123.829 122.873C123.829 123.469 125.935 123.576 127.446 123.576C128.956 123.576 130.142 123.251 130.396 122.278C130.65 121.304 130.307 120.443 128.903 120.98Z" fill="#666666" stroke="#263238" stroke-linecap="round" stroke-linejoin="round"/>
<path d="M130.26 118.342C129.118 118.761 127.929 119.038 126.72 119.168C125.216 119.233 123.847 119.988 123.847 120.738C123.847 121.487 126.514 121.628 128.431 121.628C130.349 121.628 131.853 121.221 132.195 119.988C132.538 118.755 132.042 117.658 130.26 118.342Z" fill="#666666" stroke="#263238" stroke-linecap="round" stroke-linejoin="round"/>
<path d="M131.352 116.088C130.21 116.507 129.021 116.784 127.812 116.914C126.301 116.979 124.932 117.735 124.932 118.484C124.932 119.233 127.605 119.375 129.523 119.375C131.44 119.375 132.945 118.968 133.287 117.735C133.629 116.501 133.133 115.404 131.352 116.088Z" fill="#666666" stroke="#263238" stroke-linecap="round" stroke-linejoin="round"/>
<path d="M132.089 113.54C130.947 113.955 129.758 114.23 128.549 114.36C127.045 114.425 125.676 115.18 125.676 115.935C125.676 116.69 128.343 116.826 130.26 116.826C132.178 116.826 133.682 116.413 134.024 115.18C134.367 113.947 133.871 112.855 132.089 113.54Z" fill="#666666" stroke="#263238" stroke-linecap="round" stroke-linejoin="round"/>
<path d="M67.8972 246.809C67.8972 246.809 67.7733 252.921 68.0152 253.889C68.2571 254.856 72.5405 256.084 75.225 256.084C77.9095 256.084 79.6264 255.494 80.1161 254.744C80.6058 253.995 81.4554 248.998 81.4554 248.998C81.4554 248.998 71.9269 250.968 67.8972 246.809Z" fill="#666666" stroke="#263238" stroke-linecap="round" stroke-linejoin="round"/>
<path d="M81.42 61.714C79.5073 61.0404 77.4506 60.8842 75.4582 61.2613C73.4658 61.6385 71.6084 62.5355 70.0743 63.8616C64.7053 68.4636 69.4843 76.7472 75.1365 77.6676C80.7887 78.588 84.488 75.9802 85.4084 71.8384C86.3288 67.6966 84.8066 61.5606 81.42 61.714Z" fill="#263238" stroke="#263238" stroke-linecap="round" stroke-linejoin="round"/>
<path d="M108.56 60.3334C108.56 60.3334 107.793 68.0034 106.259 73.3724C104.725 78.7414 100.737 80.7356 95.049 79.9686C89.3614 79.2016 86.1518 74.5996 84.311 69.2306C82.4702 63.8616 82.3168 56.4984 82.3168 56.4984L108.56 60.3334Z" fill="#CFCFCF" stroke="#263238" stroke-linecap="round" stroke-linejoin="round"/>
<path d="M83.1192 60.18C83.1192 60.18 84.96 61.8674 89.09 58.9528C93.22 56.0382 91.2376 54.6576 91.2376 54.6576L81.42 55.2476L83.1192 60.18Z" fill="#263238" stroke="#263238" stroke-linecap="round" stroke-linejoin="round"/>
<path d="M102.448 62.1742C102.448 62.1742 101.681 64.4752 102.141 65.2422C102.601 66.0092 103.828 67.083 102.448 68.3102C102.197 68.5544 101.893 68.7362 101.56 68.8409C101.226 68.9456 100.873 68.9702 100.528 68.9127C100.183 68.8553 99.8568 68.7173 99.5753 68.5101C99.2937 68.303 99.065 68.0323 98.9076 67.7202" stroke="#263238" stroke-linecap="round" stroke-linejoin="round"/>
<path d="M93.8926 69.03C93.8926 69.03 96.2526 72.0921 100.725 70.682" stroke="#263238" stroke-linecap="round" stroke-linejoin="round"/>
<path d="M97.232 63.0946C97.232 63.9442 96.8898 64.6286 96.465 64.6286C96.0402 64.6286 95.698 63.9442 95.698 63.0946C95.698 62.245 96.0402 61.5606 96.465 61.5606C96.8898 61.5606 97.232 62.245 97.232 63.0946Z" fill="#263238"/>
<path d="M105.669 64.31C105.669 65.1596 105.327 65.844 104.902 65.844C104.477 65.844 104.135 65.1596 104.135 64.31C104.135 63.4604 104.477 62.776 104.902 62.776C105.327 62.776 105.669 63.4722 105.669 64.31Z" fill="#263238"/>
<path d="M94.0106 59.7198C94.0106 59.7198 96.1582 57.2654 98.9194 59.7198" stroke="#263238" stroke-linecap="round" stroke-linejoin="round"/>
<path d="M103.84 60.947C104.313 60.5983 104.891 60.4232 105.478 60.4511C106.065 60.4791 106.624 60.7084 107.061 61.1004" stroke="#263238" stroke-linecap="round" stroke-linejoin="round"/>
<path d="M80.83 57.112L109.362 60.18C109.362 60.18 109.056 45.7604 108.902 43.3119C108.749 40.8634 97.3972 37.4827 92.9722 37.7895C88.5472 38.0963 83.0012 40.7041 82.0808 41.9195C81.1604 43.1349 80.83 57.112 80.83 57.112Z" fill="#0044FF" stroke="#263238" stroke-linecap="round" stroke-linejoin="round"/>
<path d="M93.0902 58.646L118.395 62.0208C118.395 62.0208 111.652 56.1916 106.283 55.7314C100.914 55.2712 93.0902 58.646 93.0902 58.646Z" fill="#0044FF" stroke="#263238" stroke-linecap="round" stroke-linejoin="round"/>
<path d="M84.193 61.2538C84.193 61.2538 83.603 56.4984 80.9716 56.4984C78.3402 56.4984 79.591 60.3334 79.8978 62.7878C80.2046 65.2422 83.1192 65.8558 84.193 64.9354" fill="#CFCFCF"/>
<path d="M84.193 61.2538C84.193 61.2538 83.603 56.4984 80.9716 56.4984C78.3402 56.4984 79.591 60.3334 79.8978 62.7878C80.2046 65.2422 83.1192 65.8558 84.193 64.9354" stroke="#263238" stroke-linecap="round" stroke-linejoin="round"/>
<path d="M86.8362 253.163L87.202 258.91C87.202 258.91 88.8245 260.125 93.5681 260.19C98.3117 260.255 100.058 258.125 100.058 258.125L101.008 251.93C101.008 251.93 92.2111 256.095 86.8362 253.163Z" fill="#666666" stroke="#263238" stroke-linecap="round" stroke-linejoin="round"/>
</svg>
