<svg width="290" height="263" viewBox="0 0 290 263" fill="none" xmlns="http://www.w3.org/2000/svg">
<path d="M124.744 7.63699C124.744 7.63699 102.812 24.4305 100.587 32.8203C98.3624 41.2101 101.441 55.9509 100.587 58.8646C99.7331 61.7783 86.0256 69.996 85.8534 81.8161C85.6812 93.6363 90.992 105.291 133.651 110.423C176.309 115.555 192.579 91.4045 192.579 78.3858C192.579 65.3671 181.62 57.1426 179.733 50.9776C177.845 44.8127 185.732 33.6744 174.422 19.9807C163.112 6.2869 133.651 -6.92469 124.744 7.63699Z" fill="#263238" stroke="#263238" stroke-linejoin="round"/>
<path d="M219.898 159.784C219.898 159.784 223.859 193.805 224.685 202.883C225.512 211.962 223.363 217.252 216.922 220.559C210.482 223.865 207.017 226.007 200.391 219.236C193.764 212.465 198.407 199.419 198.076 194.294C197.745 189.169 193.123 169.496 193.123 169.496L219.898 159.784Z" fill="white" stroke="#263238" stroke-linejoin="round"/>
<path d="M220.676 169.324L195.617 177.686L193.144 169.524L219.898 159.777L220.676 169.324Z" fill="#263238" stroke="#263238" stroke-linejoin="round"/>
<path d="M204.703 192.317C204.703 192.317 216.261 189.341 221.71 200.08L204.703 192.317Z" fill="white"/>
<path d="M204.703 192.317C204.703 192.317 216.261 189.341 221.71 200.08" stroke="#263238" stroke-linejoin="round"/>
<path d="M181.117 203.703L187.758 164.943L219.953 156.092C219.953 156.092 218.789 129.531 211.818 119.171C204.847 108.811 186.759 102.97 175.311 99.2915C163.862 95.6132 153.069 93.4435 153.069 93.4435C153.069 93.4435 132.487 90.6055 123.36 95.6201C123.36 95.6201 92.1561 109.314 86.68 111.987C81.2038 114.659 75.0664 117.669 72.7382 130.53C70.41 143.39 69.2528 154.921 69.2528 154.921L90.6614 165.611L97.1363 203.703L95.7586 214.483L71.8083 262.308H206.996L182.681 213.746L181.117 203.703Z" fill="#ABABAB" stroke="#263238" stroke-linejoin="round"/>
<path d="M146.408 154.28C147.138 154.28 147.73 153.688 147.73 152.958C147.73 152.227 147.138 151.635 146.408 151.635C145.677 151.635 145.085 152.227 145.085 152.958C145.085 153.688 145.677 154.28 146.408 154.28Z" stroke="#263238" stroke-linejoin="round"/>
<path d="M146.408 174.518C147.138 174.518 147.73 173.926 147.73 173.195C147.73 172.465 147.138 171.873 146.408 171.873C145.677 171.873 145.085 172.465 145.085 173.195C145.085 173.926 145.677 174.518 146.408 174.518Z" stroke="#263238" stroke-linejoin="round"/>
<path d="M146.408 194.748C147.138 194.748 147.73 194.156 147.73 193.426C147.73 192.695 147.138 192.103 146.408 192.103C145.677 192.103 145.085 192.695 145.085 193.426C145.085 194.156 145.677 194.748 146.408 194.748Z" stroke="#263238" stroke-linejoin="round"/>
<path d="M147.73 213.657C147.73 213.918 147.653 214.174 147.507 214.391C147.362 214.609 147.155 214.778 146.914 214.878C146.672 214.978 146.406 215.005 146.15 214.954C145.893 214.903 145.657 214.777 145.472 214.592C145.288 214.407 145.162 214.171 145.111 213.915C145.06 213.658 145.086 213.392 145.186 213.15C145.286 212.909 145.455 212.702 145.673 212.557C145.89 212.412 146.146 212.334 146.408 212.334C146.758 212.334 147.095 212.473 147.343 212.721C147.591 212.969 147.73 213.306 147.73 213.657Z" stroke="#263238" stroke-linejoin="round"/>
<path d="M146.408 235.21C147.138 235.21 147.73 234.618 147.73 233.887C147.73 233.157 147.138 232.565 146.408 232.565C145.677 232.565 145.085 233.157 145.085 233.887C145.085 234.618 145.677 235.21 146.408 235.21Z" stroke="#263238" stroke-linejoin="round"/>
<path d="M147.73 254.125C147.73 254.386 147.653 254.642 147.507 254.86C147.362 255.077 147.155 255.247 146.914 255.347C146.672 255.447 146.406 255.473 146.15 255.422C145.893 255.371 145.657 255.245 145.472 255.06C145.288 254.875 145.162 254.639 145.111 254.383C145.06 254.126 145.086 253.86 145.186 253.619C145.286 253.377 145.455 253.17 145.673 253.025C145.89 252.88 146.146 252.802 146.408 252.802C146.758 252.802 147.095 252.942 147.343 253.19C147.591 253.438 147.73 253.774 147.73 254.125Z" stroke="#263238" stroke-linejoin="round"/>
<path d="M141.6 145.401V247.209" stroke="#263238" stroke-linejoin="round"/>
<path d="M188.136 152.048L186.394 162.27L192.793 151.38" stroke="#263238" stroke-linejoin="round"/>
<path d="M92.7967 152.048L94.5394 162.27L88.1403 151.38" stroke="#263238" stroke-linejoin="round"/>
<path d="M113.324 125.35C113.324 125.35 109.087 132.307 111.209 131.701C113.33 131.094 125.123 123.235 125.123 123.235C125.123 123.235 120.584 130.192 124.214 132.61C127.844 135.028 142.654 142.047 142.654 142.047C142.654 142.047 160.212 135.034 160.515 132.307C160.818 129.579 159.909 128.374 159.909 126.865C159.909 125.357 158.09 123.538 161.727 124.743C165.364 125.949 178.665 133.216 177.756 131.404C176.847 129.593 162.12 100.407 160.108 99.4156C158.097 98.4236 130.868 97.5144 126.025 100.242C121.183 102.97 113.324 125.35 113.324 125.35Z" fill="#263238" stroke="#263238" stroke-linejoin="round"/>
<path d="M65.1405 146.2L62.5988 158.53L92.7072 173.326L95.6415 162.842L65.1405 146.2Z" fill="#ABABAB" stroke="#263238" stroke-linejoin="round"/>
<path d="M186.394 162.27L189.211 173.133L224.899 162.443L220.084 149.576L186.394 162.27Z" fill="#ABABAB" stroke="#263238" stroke-linejoin="round"/>
<path d="M125.653 87.1269C125.653 87.1269 117.939 96.4811 117.112 97.9759C116.286 99.4706 110.162 123.814 107.668 128.628C105.175 133.443 108.998 131.942 111.65 128.959C114.302 125.976 125.426 119.316 125.096 121.32C124.765 123.325 121.775 128.126 123.601 129.124C125.426 130.123 140.367 142.57 141.689 142.57C143.012 142.57 161.941 130.454 162.602 128.794C163.263 127.134 158.951 120.528 161.114 120.824C163.277 121.12 179.023 135.599 180.862 134.435C182.702 133.271 172.562 109.707 167.775 99.0849C166.304 95.6498 163.942 92.6697 160.934 90.4525C157.927 88.2353 154.381 86.8613 150.665 86.4726C147.985 86.3141 125.653 87.1269 125.653 87.1269Z" fill="#ABABAB" stroke="#263238" stroke-linejoin="round"/>
<path d="M126.122 83.4831C126.122 83.4831 123.132 96.9289 123.132 100.58C123.132 104.23 139.54 146.855 142.688 142.047C145.836 137.239 160.143 102.095 160.143 99.4155C160.143 96.736 158.813 82.4843 158.813 82.4843C158.813 82.4843 147.2 90.2887 142.22 90.7846C137.239 91.2806 126.122 83.4831 126.122 83.4831Z" fill="white" stroke="#263238" stroke-linejoin="round"/>
<path d="M125.226 85.4669C125.226 85.4669 120.611 103.535 125.516 104.912C130.42 106.29 158.441 87.2165 158.441 87.2165L125.226 85.4669Z" fill="#263238" stroke="#263238" stroke-linejoin="round"/>
<path d="M129.566 27.6817C128.565 33.3068 126.837 38.7781 124.427 43.9585C120.66 51.6664 113.117 57.8314 113.117 57.8314C113.117 57.8314 111.918 61.5992 113.461 64.0308C114.398 65.4858 115.696 66.6726 117.229 67.4749C117.229 67.4749 121.169 79.2951 122.74 82.2088C124.31 85.1225 135.421 96.426 138.328 97.6246C141.235 98.8231 146.897 98.6578 149.294 97.2871C151.691 95.9163 160.714 85.4187 161.941 82.3328C163.167 79.2468 166.073 66.7447 166.073 66.7447C166.073 66.7447 168.305 66.0559 169.676 62.6118C170.547 60.2435 171.067 57.7603 171.219 55.2414C171.219 55.2414 166.59 54.3873 159.564 52.4861C152.538 50.585 151.174 49.4071 151.174 49.4071C151.174 49.4071 145.519 49.5793 138.493 44.4338C131.467 39.2883 129.566 27.6817 129.566 27.6817Z" fill="white" stroke="#263238" stroke-linejoin="round"/>
<path d="M136.22 30.4232C136.22 30.4232 136.909 39.6741 141.359 43.2697C145.808 46.8653 148.557 46.1834 148.557 46.1834C148.557 46.1834 139.816 38.4755 136.22 30.4232Z" fill="white" stroke="#263238" stroke-linejoin="round"/>
<path d="M126.122 62.6325C127.618 63.4363 129.284 63.8712 130.981 63.9012C132.679 63.9311 134.359 63.5552 135.882 62.8047" stroke="#263238" stroke-width="2" stroke-linejoin="round"/>
<path d="M148.729 62.6325C150.225 63.4363 151.891 63.8712 153.588 63.9012C155.286 63.9311 156.966 63.5552 158.49 62.8047" stroke="#263238" stroke-width="2" stroke-linejoin="round"/>
<path d="M135.876 54.9246C135.876 54.9246 130.737 52.3484 125.082 56.991" stroke="#263238" stroke-linejoin="round"/>
<path d="M148.894 54.9246C148.894 54.9246 154.033 52.3484 159.688 56.991" stroke="#263238" stroke-linejoin="round"/>
<path d="M138.273 76.5053C138.273 76.5053 139.816 78.5718 141.875 78.7371C143.935 78.9024 146.008 78.3927 147.014 77.022" stroke="#263238" stroke-linejoin="round"/>
<path d="M134.849 82.6772C134.849 82.6772 138.982 85.4325 142.902 85.0743C146.821 84.7161 150.609 81.9884 150.609 81.9884" stroke="#263238" stroke-linejoin="round"/>
<path d="M209.325 196.939C209.325 196.939 205.694 191.16 204.041 189.01C202.388 186.861 198.758 185.876 194.129 180.917C189.5 175.957 187.689 180.752 189.177 184.058C190.664 187.364 194.625 190.002 196.444 191.16C198.262 192.317 199.75 195.451 199.75 196.939C199.75 198.427 198.758 201.891 198.758 201.891C197.227 199.951 195.595 198.093 193.867 196.326C189.838 191.986 186.869 188.515 186.042 192.152C185.216 195.788 186.731 197.6 189.487 200.08C192.242 202.56 195.266 205.694 195.596 206.355C195.927 207.016 196.919 212.134 198.407 213.126C199.895 214.118 201.706 214.772 201.706 215.599C201.706 216.426 200.391 219.401 203.525 223.031C206.659 226.661 210.461 226.172 212.479 220.882C214.498 215.592 214.291 206.024 212.314 201.396C210.337 196.767 209.325 196.939 209.325 196.939Z" fill="white" stroke="#263238" stroke-linejoin="round"/>
<path d="M207.837 195.451C207.837 195.451 203.545 199.749 198.758 201.891C193.971 204.034 190.83 205.032 190.492 206.851C190.155 208.669 190.658 210.295 194.453 209.985C198.248 209.675 209.814 205.163 211.797 202.718C213.781 200.273 212.631 192.813 207.837 195.451Z" fill="white" stroke="#263238" stroke-linejoin="round"/>
<path d="M213.664 211.418C213.664 211.418 214.443 213.291 210.978 216.426C207.513 219.56 200.735 223.031 197.931 223.693C195.128 224.354 192.814 223.004 194.625 221.213C196.437 219.422 201.727 215.599 201.727 215.599C205.834 214.602 209.832 213.201 213.664 211.418Z" fill="white" stroke="#263238" stroke-linejoin="round"/>
<path d="M211.804 202.725C211.804 202.725 214.608 201.568 215.434 207.347C216.261 213.126 204.537 216.102 199.915 216.432C195.293 216.763 192.152 214.945 192.814 213.464C193.475 211.983 194.129 211.81 199.75 209.496C205.371 207.182 211.804 202.725 211.804 202.725Z" fill="white" stroke="#263238" stroke-linejoin="round"/>
<path d="M67.2896 149.686C67.2896 149.686 59.6575 152.503 62.1442 159.805C64.6308 167.106 65.6296 169.104 66.4631 173.581C67.2965 178.058 64.3071 181.385 61.4829 197.814C58.6587 214.242 68.4538 217.727 73.4339 220.717C78.4141 223.706 85.8809 206.941 86.7075 201.96C87.5341 196.98 81.562 182.212 80.4048 174.249C79.2476 166.286 77.5806 161.795 81.3967 156.34C85.2128 150.884 78.9101 149.038 76.9194 147.881C74.9287 146.724 67.2896 149.686 67.2896 149.686Z" fill="white" stroke="#263238" stroke-linejoin="round"/>
<path d="M72.1045 172.94C77.5807 172.94 81.2314 167.629 81.2314 167.629C82.9917 167.059 84.5665 166.027 85.7914 164.64C87.5341 162.484 87.541 158.503 87.541 158.503C87.541 158.503 91.7153 152.517 94.8425 150.698C97.9698 148.88 100.153 147.709 101.152 144.561C102.151 141.413 100.649 139.739 96.6679 143.066C92.6865 146.393 90.8611 147.048 90.8611 147.048L77.0847 149.872" fill="white"/>
<path d="M72.1045 172.94C77.5807 172.94 81.2314 167.629 81.2314 167.629C82.9917 167.059 84.5665 166.027 85.7914 164.64C87.5341 162.484 87.541 158.503 87.541 158.503C87.541 158.503 91.7153 152.517 94.8425 150.698C97.9698 148.88 100.153 147.709 101.152 144.561C102.151 141.413 100.649 139.739 96.6679 143.066C92.6865 146.393 90.8611 147.048 90.8611 147.048L77.0847 149.872" stroke="#263238" stroke-linejoin="round"/>
<path d="M93.7577 147.541L74.5666 156.291L90.1147 190.392L109.306 181.643L93.7577 147.541Z" fill="white" stroke="#263238" stroke-linejoin="round"/>
<path d="M85.7018 154.287L98.7206 182.832" stroke="#263238" stroke-linejoin="round"/>
<path d="M81.5 164.151C81.8759 164.32 82.3032 164.335 82.6898 164.192C83.0764 164.049 83.3913 163.76 83.5665 163.386L85.5296 159.171C85.6948 158.794 85.7066 158.367 85.5626 157.981C85.4186 157.596 85.1301 157.281 84.7581 157.104C84.3818 156.939 83.9558 156.926 83.5702 157.069C83.1846 157.211 82.8696 157.498 82.6917 157.869L80.7354 162.085C80.568 162.461 80.5543 162.887 80.6971 163.273C80.84 163.659 81.1281 163.974 81.5 164.151Z" fill="#263238" stroke="#263238" stroke-linejoin="round"/>
<path d="M84.5997 170.95C84.9758 171.117 85.4025 171.131 85.7886 170.988C86.1747 170.845 86.4896 170.557 86.6662 170.185L88.6224 165.969C88.7917 165.594 88.8064 165.166 88.6633 164.78C88.5203 164.393 88.231 164.078 87.8578 163.903C87.4817 163.736 87.0551 163.722 86.669 163.865C86.2829 164.008 85.9679 164.296 85.7914 164.668L83.8351 168.883C83.6677 169.259 83.654 169.686 83.7968 170.072C83.9397 170.458 84.2278 170.773 84.5997 170.95Z" fill="#263238" stroke="#263238" stroke-linejoin="round"/>
<path d="M87.6994 177.741C88.0753 177.911 88.5026 177.925 88.8892 177.782C89.2758 177.639 89.5907 177.35 89.7659 176.977L91.7221 172.761C91.8914 172.385 91.9061 171.958 91.763 171.571C91.62 171.185 91.3307 170.87 90.9575 170.695C90.5814 170.527 90.1548 170.514 89.7687 170.656C89.3826 170.799 89.0676 171.087 88.8911 171.459L86.9348 175.675C86.7674 176.051 86.7537 176.478 86.8965 176.864C87.0394 177.25 87.3275 177.565 87.6994 177.741Z" fill="#263238" stroke="#263238" stroke-linejoin="round"/>
<path d="M90.7991 184.54C91.1752 184.708 91.6019 184.721 91.988 184.578C92.3741 184.436 92.689 184.147 92.8656 183.775L94.8218 179.56C94.9893 179.184 95.003 178.757 94.8601 178.371C94.7173 177.985 94.4291 177.67 94.0572 177.493C93.6811 177.326 93.2545 177.312 92.8684 177.455C92.4823 177.598 92.1673 177.886 91.9908 178.258L90.0345 182.474C89.8653 182.849 89.8506 183.277 89.9936 183.663C90.1367 184.05 90.426 184.365 90.7991 184.54Z" fill="#263238" stroke="#263238" stroke-linejoin="round"/>
<path d="M90.4203 160.087C90.7964 160.254 91.223 160.268 91.6091 160.125C91.9952 159.982 92.3102 159.694 92.4867 159.322L94.443 155.107C94.6104 154.731 94.6241 154.304 94.4813 153.918C94.3384 153.532 94.0503 153.217 93.6784 153.04C93.3023 152.873 92.8756 152.859 92.4895 153.002C92.1034 153.145 91.7885 153.433 91.6119 153.805L89.6488 158.02C89.4818 158.397 89.4691 158.825 89.6133 159.211C89.7575 159.597 90.0471 159.912 90.4203 160.087Z" fill="#263238" stroke="#263238" stroke-linejoin="round"/>
<path d="M93.5131 166.906C93.89 167.073 94.3173 167.086 94.7036 166.942C95.0898 166.798 95.4042 166.508 95.5795 166.135L97.5427 161.926C97.7101 161.55 97.7238 161.123 97.581 160.737C97.4381 160.351 97.15 160.036 96.7781 159.86C96.59 159.771 96.3864 159.721 96.1788 159.712C95.9713 159.703 95.764 159.734 95.5688 159.805C95.3736 159.876 95.1943 159.985 95.0413 160.126C94.8883 160.266 94.7646 160.436 94.6772 160.624L92.7209 164.84C92.5572 165.219 92.5484 165.648 92.6964 166.034C92.8444 166.42 93.1375 166.733 93.5131 166.906Z" fill="#263238" stroke="#263238" stroke-linejoin="round"/>
<path d="M96.6128 173.677C96.9889 173.845 97.4155 173.858 97.8016 173.716C98.1877 173.573 98.5027 173.285 98.6792 172.913L100.642 168.697C100.809 168.32 100.822 167.893 100.678 167.507C100.534 167.12 100.244 166.806 99.8709 166.631C99.4946 166.465 99.0686 166.452 98.683 166.595C98.2974 166.738 97.9823 167.025 97.8044 167.395L95.8482 171.611C95.6808 171.987 95.667 172.414 95.8099 172.8C95.9527 173.186 96.2409 173.501 96.6128 173.677Z" fill="#263238" stroke="#263238" stroke-linejoin="round"/>
<path d="M99.7125 180.476C100.089 180.643 100.515 180.657 100.901 180.514C101.287 180.371 101.602 180.083 101.779 179.711L103.735 175.496C103.904 175.12 103.919 174.693 103.776 174.306C103.633 173.919 103.344 173.605 102.971 173.429C102.595 173.26 102.167 173.245 101.781 173.388C101.394 173.532 101.079 173.821 100.904 174.194L98.9479 178.41C98.7805 178.786 98.7667 179.212 98.9096 179.598C99.0524 179.985 99.3406 180.299 99.7125 180.476Z" fill="#263238" stroke="#263238" stroke-linejoin="round"/>
<path d="M78.4141 143.893C78.4141 143.893 82.8915 139.25 85.2128 140.077C87.5341 140.903 93.4786 147.047 93.6784 148.542C93.8782 150.037 96.0066 154.852 95.1731 155.182C94.3397 155.513 88.8704 152.028 86.5422 149.672C84.214 147.316 78.4141 143.893 78.4141 143.893Z" fill="white" stroke="#263238" stroke-linejoin="round"/>
<path d="M69.4525 150.375C69.4525 150.375 73.1033 142.405 75.5899 142.405C78.0766 142.405 87.045 146.393 88.2023 148.053C89.3595 149.713 94.6772 154.859 93.3478 155.52C92.0183 156.181 89.2148 154.831 87.2104 153.364C86.1979 152.588 85.1448 151.866 84.0556 151.201L78.4141 149.541" fill="white"/>
<path d="M69.4525 150.375C69.4525 150.375 73.1033 142.405 75.5899 142.405C78.0766 142.405 87.045 146.393 88.2023 148.053C89.3595 149.713 94.6772 154.859 93.3478 155.52C92.0183 156.181 89.2148 154.831 87.2104 153.364C86.1979 152.588 85.1448 151.866 84.0556 151.201L78.4141 149.541" stroke="#263238" stroke-linejoin="round"/>
<path d="M63.6389 153.357C63.6389 153.357 67.2897 145.387 69.7832 145.387C72.2767 145.387 81.2314 149.369 82.3955 151.029C83.5596 152.689 88.8704 157.834 87.541 158.503C86.2116 159.171 83.4081 157.814 81.3967 156.34C80.3862 155.566 79.3354 154.846 78.2488 154.184L72.6005 152.524" fill="white"/>
<path d="M63.6389 153.357C63.6389 153.357 67.2897 145.387 69.7832 145.387C72.2767 145.387 81.2314 149.369 82.3955 151.029C83.5596 152.689 88.8704 157.834 87.541 158.503C86.2116 159.171 83.4081 157.814 81.3967 156.34C80.3862 155.566 79.3354 154.846 78.2488 154.184L72.6005 152.524" stroke="#263238" stroke-linejoin="round"/>
<path d="M62.1442 157.008C62.1442 157.008 60.3188 153.02 62.1442 152.186C63.9695 151.353 75.7553 148.535 76.9194 147.874C78.0835 147.213 80.2395 148.205 77.6082 151.187C74.9769 154.17 67.1519 156.009 66.3253 156.168" fill="white"/>
<path d="M62.1442 157.008C62.1442 157.008 60.3188 153.02 62.1442 152.186C63.9695 151.353 75.7553 148.535 76.9194 147.874C78.0835 147.213 80.2395 148.205 77.6082 151.187C74.9769 154.17 67.1519 156.009 66.3253 156.168" stroke="#263238" stroke-linejoin="round"/>
<path d="M269.626 31.1327L262.366 7.6377L220.615 20.5379L227.874 44.0329L269.626 31.1327Z" fill="white" stroke="black" stroke-linejoin="round"/>
<path d="M263.025 20.8072L228.081 31.6079" stroke="black" stroke-linejoin="round"/>
<path d="M259.805 19.5661L260.085 19.1234C260.549 18.3866 260.329 17.4125 259.592 16.9476L254.571 13.7792C253.834 13.3143 252.86 13.5348 252.395 14.2715L252.116 14.7143C251.651 15.4511 251.871 16.4252 252.608 16.8901L257.629 20.0585C258.366 20.5233 259.34 20.3029 259.805 19.5661Z" fill="white" stroke="black" stroke-linejoin="round"/>
<path d="M251.465 22.1206L251.744 21.6779C252.209 20.9412 251.989 19.967 251.252 19.502L246.231 16.3327C245.494 15.8677 244.52 16.088 244.055 16.8247L243.776 17.2674C243.311 18.0041 243.531 18.9782 244.268 19.4432L249.289 22.6125C250.026 23.0775 251 22.8573 251.465 22.1206Z" fill="white" stroke="black" stroke-linejoin="round"/>
<path d="M243.146 24.6925L243.426 24.2498C243.891 23.5131 243.67 22.5389 242.934 22.0739L237.913 18.9046C237.176 18.4396 236.202 18.6599 235.737 19.3966L235.457 19.8393C234.992 20.5759 235.213 21.5501 235.949 22.0151L240.97 25.1844C241.707 25.6494 242.681 25.4291 243.146 24.6925Z" fill="white" stroke="black" stroke-linejoin="round"/>
<path d="M234.84 27.2702L235.119 26.8274C235.584 26.0906 235.363 25.1165 234.627 24.6516L229.605 21.4832C228.868 21.0183 227.894 21.2388 227.429 21.9755L227.15 22.4183C226.685 23.1551 226.905 24.1292 227.642 24.5941L232.664 27.7625C233.401 28.2273 234.375 28.0069 234.84 27.2702Z" fill="white" stroke="black" stroke-linejoin="round"/>
<path d="M263.179 30.4863L263.458 30.0436C263.923 29.3069 263.703 28.3327 262.966 27.8677L257.945 24.6984C257.209 24.2334 256.234 24.4537 255.769 25.1904L255.49 25.6331C255.025 26.3698 255.245 27.3439 255.982 27.8089L261.003 30.9782C261.74 31.4432 262.714 31.223 263.179 30.4863Z" fill="white" stroke="black" stroke-linejoin="round"/>
<path d="M254.84 33.0375L255.119 32.5948C255.584 31.8581 255.364 30.884 254.627 30.419L249.606 27.2497C248.869 26.7847 247.895 27.0049 247.43 27.7416L247.151 28.1843C246.686 28.921 246.906 29.8952 247.643 30.3602L252.664 33.5295C253.401 33.9945 254.375 33.7742 254.84 33.0375Z" fill="white" stroke="black" stroke-linejoin="round"/>
<path d="M246.515 35.6058L246.795 35.1631C247.26 34.4264 247.04 33.4522 246.303 32.9872L241.282 29.8179C240.545 29.3529 239.571 29.5732 239.106 30.3099L238.827 30.7526C238.362 31.4893 238.582 32.4634 239.318 32.9284L244.34 36.0977C245.076 36.5627 246.05 36.3425 246.515 35.6058Z" fill="white" stroke="black" stroke-linejoin="round"/>
<path d="M238.197 38.1777L238.476 37.735C238.941 36.9983 238.721 36.0241 237.984 35.5591L232.963 32.3899C232.227 31.9249 231.253 32.1451 230.788 32.8818L230.508 33.3245C230.043 34.0612 230.263 35.0354 231 35.5004L236.021 38.6696C236.758 39.1346 237.732 38.9144 238.197 38.1777Z" fill="white" stroke="black" stroke-linejoin="round"/>
<path d="M246.073 97.3353L241.658 101.386L236.051 93.4848L238.696 91.0601L246.073 97.3353Z" fill="white" stroke="black" stroke-linejoin="round"/>
<path d="M243.91 97.0942L241.94 98.9058C241.486 99.3251 241.12 99.8298 240.861 100.391C240.603 100.952 240.457 101.559 240.434 102.176C240.41 102.794 240.508 103.41 240.723 103.989C240.938 104.569 241.265 105.1 241.685 105.553L272.517 138.802L275.858 144.809L288.842 131.776L282.836 128.442L250.323 97.1424C249.459 96.3233 248.317 95.8627 247.126 95.8538C245.936 95.8448 244.786 96.2882 243.91 97.0942Z" fill="white" stroke="black" stroke-linejoin="round"/>
<path d="M267.62 133.547L273.716 126.397L250.427 103.755L244.806 108.949L267.62 133.547Z" fill="white" stroke="black" stroke-linejoin="round"/>
<path d="M266.063 229.079H249.221V262.308H266.063V229.079Z" fill="white" stroke="#263238" stroke-linejoin="round"/>
<path d="M262.942 239.294H252.335V252.093H262.942V239.294Z" fill="white" stroke="#263238" stroke-linejoin="round"/>
<path d="M262.316 220.421H252.961V228.955H262.316V220.421Z" fill="white" stroke="#263238" stroke-linejoin="round"/>
<path d="M259.119 206.913H256.157L255.172 220.476H260.111L259.119 206.913Z" fill="white" stroke="#263238" stroke-linejoin="round"/>
<path d="M262.316 224.533H252.961V228.955H262.316V224.533Z" fill="white" stroke="#263238" stroke-linejoin="round"/>
<path d="M237.794 239.577H212.686V262.308H237.794V239.577Z" fill="white" stroke="#263238" stroke-linejoin="round"/>
<path d="M237.794 248.972H212.686V262.308H237.794V248.972Z" fill="white" stroke="#263238" stroke-linejoin="round"/>
<path d="M232.986 251.363H212.686V259.925H232.986V251.363Z" fill="white" stroke="#263238" stroke-linejoin="round"/>
<path d="M58.9825 223.059H33.8749V262.308H58.9825V223.059Z" fill="white" stroke="#263238" stroke-linejoin="round"/>
<path d="M46.2737 223.438V262.101" stroke="#263238" stroke-linejoin="round"/>
<path d="M42.4232 226.751H35.8036V237.221H42.4232V226.751Z" stroke="#263238" stroke-linejoin="round"/>
<path d="M41.2867 228.556H36.9471V235.416H41.2867V228.556Z" stroke="#263238" stroke-linejoin="round"/>
<path d="M56.5234 226.751H49.9038V237.221H56.5234V226.751Z" stroke="#263238" stroke-linejoin="round"/>
<path d="M55.3868 228.556H51.0472V235.416H55.3868V228.556Z" stroke="#263238" stroke-linejoin="round"/>
<path d="M49.9176 229.369H42.4094V234.19H49.9176V229.369Z" stroke="#263238" stroke-linejoin="round"/>
<path d="M42.4232 244.591H35.8036V255.062H42.4232V244.591Z" stroke="#263238" stroke-linejoin="round"/>
<path d="M41.2867 246.396H36.9471V253.257H41.2867V246.396Z" stroke="#263238" stroke-linejoin="round"/>
<path d="M56.5234 244.591H49.9038V255.062H56.5234V244.591Z" stroke="#263238" stroke-linejoin="round"/>
<path d="M55.3868 246.396H51.0472V253.257H55.3868V246.396Z" stroke="#263238" stroke-linejoin="round"/>
<path d="M49.9176 247.209H42.4094V252.031H49.9176V247.209Z" stroke="#263238" stroke-linejoin="round"/>
<path d="M189.934 175.771H91.3915V262.315H189.934V175.771Z" fill="#263238" stroke="#263238" stroke-linejoin="round"/>
<path d="M189.934 202.077H91.3915V262.308H189.934V202.077Z" fill="#0044FF" stroke="#263238" stroke-linejoin="round"/>
<path d="M156.719 225.773H147.179V216.377H134.147V225.773H124.606V238.612H134.147V248.015H147.179V238.612H156.719V225.773Z" fill="white" stroke="#263238" stroke-linejoin="round"/>
<path d="M189.79 171.156H91.5844V179.87H189.79V171.156Z" fill="#0044FF" stroke="#263238" stroke-linejoin="round"/>
<path d="M0.329361 262.308H288.325" stroke="#263238" stroke-linejoin="round"/>
</svg>
