<svg width="282" height="262" viewBox="0 0 282 262" fill="none" xmlns="http://www.w3.org/2000/svg">
<path d="M16.8319 96.056C16.8319 96.056 7.68331 136.408 34.1236 171.778C60.5638 207.149 106.32 221.133 143.146 233.437C179.972 245.741 214.257 232.041 226.958 201.116C239.659 170.191 213.483 153.309 207.47 112.766C201.457 72.222 205.969 60.5862 178.966 29.5683C151.964 -1.44955 96.9399 -1.07911 59.9685 30.3423C22.9971 61.7636 16.8319 96.056 16.8319 96.056Z" fill="#0044FF"/>
<path opacity="0.7" d="M16.8319 96.056C16.8319 96.056 7.68331 136.408 34.1236 171.778C60.5638 207.149 106.32 221.133 143.146 233.437C179.972 245.741 214.257 232.041 226.958 201.116C239.659 170.191 213.483 153.309 207.47 112.766C201.457 72.222 205.969 60.5862 178.966 29.5683C151.964 -1.44955 96.9399 -1.07911 59.9685 30.3423C22.9971 61.7636 16.8319 96.056 16.8319 96.056Z" fill="white"/>
<path d="M231.681 42.4213C231.681 42.4213 232.343 38.9947 228.486 33.2529C224.63 27.511 222.083 24.1638 222.083 24.1638C222.083 24.1638 218.114 31.5859 221.66 37.2616C224.28 41.2802 227.232 45.0728 230.484 48.5997L231.681 42.4213Z" fill="#0044FF"/>
<path d="M220.522 62.4847C220.522 62.4847 221.183 59.0581 217.327 53.3162C213.47 47.5744 210.91 44.2272 210.91 44.2272C210.91 44.2272 206.941 51.6493 210.493 57.3183C213.113 61.3399 216.065 65.1348 219.318 68.6631L220.522 62.4847Z" fill="#0044FF"/>
<path d="M230.233 48.2094C230.233 48.2094 231.265 44.9019 237.384 41.6341C243.502 38.3663 247.306 36.653 247.306 36.653C247.306 36.653 247.306 45.0541 241.498 48.3947C237.288 50.6977 232.894 52.647 228.361 54.2225L230.233 48.2094Z" fill="#0044FF"/>
<path d="M216.87 71.8648C216.87 71.8648 218.246 68.6499 224.669 66.0766C231.093 63.5034 235.081 62.1672 235.081 62.1672C235.081 62.1672 234.175 70.5219 228.07 73.2341C223.643 75.0851 219.07 76.561 214.396 77.6463L216.87 71.8648Z" fill="#0044FF"/>
<path d="M213.06 99.7603C213.06 99.7603 213.722 96.3271 219.477 92.4838C225.232 88.6405 228.837 86.4774 228.837 86.4774C228.837 86.4774 229.697 94.8388 224.299 98.7681C220.36 101.508 216.198 103.911 211.856 105.952L213.06 99.7603Z" fill="#0044FF"/>
<path d="M211.664 106.475C211.664 106.475 212.815 103.167 209.812 96.9424C206.809 90.7176 204.752 87.0198 204.752 87.0198C204.752 87.0198 199.79 93.8002 202.469 99.9191C204.491 104.27 206.874 108.443 209.594 112.395L211.664 106.475Z" fill="#0044FF"/>
<path d="M203.032 125.506C203.032 125.506 203.693 122.079 209.442 118.23C215.19 114.38 218.809 112.183 218.809 112.183C218.809 112.183 219.668 120.538 214.271 124.474C210.33 127.211 206.168 129.614 201.828 131.658L203.032 125.506Z" fill="#0044FF"/>
<path d="M202.701 144.227C202.701 144.227 202.483 140.74 207.06 135.548C211.638 130.355 214.595 127.398 214.595 127.398C214.595 127.398 217.545 135.263 213.318 140.436C210.2 144.083 206.781 147.462 203.098 150.537L202.701 144.227Z" fill="#0044FF"/>
<path d="M232.283 41.6275C231.344 45.1534 230.211 48.6249 228.89 52.0263C225.073 61.4659 219.093 66.8638 215.461 75.3509C211.83 83.838 215.051 96.3205 211.367 107.414C207.682 118.507 202.02 123.952 201.801 131.81C201.583 139.669 204.222 161.518 204.222 161.518" stroke="#263238" stroke-width="0.5" stroke-linecap="round" stroke-linejoin="round"/>
<path d="M229.743 50.4784L235.697 47.5215" stroke="#263238" stroke-width="0.5" stroke-linecap="round" stroke-linejoin="round"/>
<path d="M230.874 45.9537L229.465 41.6804" stroke="#263238" stroke-width="0.5" stroke-linecap="round" stroke-linejoin="round"/>
<path d="M215.825 75.0003C215.825 75.0003 220.8 72.5991 225.887 70.2177" stroke="#263238" stroke-width="0.5" stroke-linecap="round" stroke-linejoin="round"/>
<path d="M219.318 68.6631C219.318 68.6631 217.089 60.8772 213.913 55.3867" stroke="#263238" stroke-width="0.5" stroke-linecap="round" stroke-linejoin="round"/>
<path d="M212.279 104.675C215.643 100.6 219.58 97.0347 223.968 94.0913" stroke="#263238" stroke-width="0.5" stroke-linecap="round" stroke-linejoin="round"/>
<path d="M210.493 109.326C209.781 105.972 208.79 102.684 207.53 99.4957C205.731 95.2754 205.466 94.7197 205.466 94.7197" stroke="#263238" stroke-width="0.5" stroke-linecap="round" stroke-linejoin="round"/>
<path d="M201.801 131.81C203.43 129.299 205.25 126.917 207.245 124.686C209.204 122.636 211.328 120.751 213.596 119.05" stroke="#263238" stroke-width="0.5" stroke-linecap="round" stroke-linejoin="round"/>
<path d="M203.098 150.504C203.357 147.853 204.318 145.318 205.883 143.162C208.37 140.019 211.314 135.852 212.498 134.205" stroke="#263238" stroke-width="0.5" stroke-linecap="round" stroke-linejoin="round"/>
<path d="M191.277 82.1115C191.277 82.1115 191.323 79.8822 194.505 76.8194C197.687 73.7567 199.724 72.0368 199.724 72.0368C199.724 72.0368 201.173 77.1833 198.209 80.2328C196.038 82.3795 193.69 84.34 191.191 86.0937L191.277 82.1115Z" fill="#0044FF"/>
<path d="M195.491 96.0956C195.491 96.0956 195.543 93.873 198.719 90.8036C201.894 87.7342 203.945 86.021 203.945 86.021C203.945 86.021 205.387 91.1674 202.43 94.2236C200.256 96.3679 197.906 98.3261 195.405 100.078L195.491 96.0956Z" fill="#0044FF"/>
<path d="M191.389 85.9019C191.389 85.9019 191.204 83.6858 187.837 80.8414C184.47 77.9969 182.327 76.3961 182.327 76.3961C182.327 76.3961 181.202 81.6286 184.351 84.4863C186.655 86.4899 189.122 88.2976 191.727 89.8907L191.389 85.9019Z" fill="#0044FF"/>
<path d="M196.496 102.42C196.496 102.42 196.073 100.237 192.428 97.7891C188.783 95.3415 186.474 93.9457 186.474 93.9457C186.474 93.9457 185.912 99.2378 189.339 101.778C191.84 103.539 194.484 105.088 197.244 106.408L196.496 102.42Z" fill="#0044FF"/>
<path d="M195.08 120.28C195.08 120.28 195.127 118.058 192.084 114.876C189.041 111.694 187.076 109.875 187.076 109.875C187.076 109.875 185.409 114.955 188.227 118.13C190.307 120.366 192.571 122.424 194.994 124.282L195.08 120.28Z" fill="#0044FF"/>
<path d="M195.041 124.646C195.041 124.646 194.77 122.443 197.488 118.97C200.207 115.497 201.973 113.506 201.973 113.506C201.973 113.506 204.136 118.395 201.643 121.835C199.796 124.266 197.749 126.538 195.524 128.628L195.041 124.646Z" fill="#0044FF"/>
<path d="M197.674 143.181C197.674 143.181 198.335 141.058 202.258 139.034C206.18 137.01 208.615 135.918 208.615 135.918C208.615 135.918 208.555 141.263 204.857 143.353C202.166 144.801 199.358 146.02 196.463 146.998L197.674 143.181Z" fill="#0044FF"/>
<path d="M197.832 137.651C197.832 137.651 197.879 135.429 194.829 132.247C191.78 129.065 189.821 127.246 189.821 127.246C189.821 127.246 188.155 132.326 190.979 135.501C193.059 137.737 195.323 139.795 197.746 141.653L197.832 137.651Z" fill="#0044FF"/>
<path d="M195.497 149.333C195.497 149.333 196.106 147.197 193.969 143.347C191.832 139.497 190.39 137.241 190.39 137.241C190.39 137.241 187.486 141.733 189.418 145.523C190.861 148.216 192.527 150.782 194.399 153.197L195.497 149.333Z" fill="#0044FF"/>
<path d="M190.992 81.5293C191.099 83.8491 191.333 86.1612 191.694 88.4553C192.792 94.8388 195.775 99.0393 196.886 104.781C197.998 110.523 194.3 117.872 195.087 125.288C195.874 132.703 198.653 136.844 197.733 141.753C196.814 146.661 192.216 159.898 192.216 159.898" stroke="#263238" stroke-width="0.5" stroke-linecap="round" stroke-linejoin="round"/>
<path d="M191.389 87.377L188.088 84.731" stroke="#263238" stroke-width="0.5" stroke-linecap="round" stroke-linejoin="round"/>
<path d="M191.297 84.4135L192.752 81.9461" stroke="#263238" stroke-width="0.5" stroke-linecap="round" stroke-linejoin="round"/>
<path d="M196.714 104.51C196.714 104.51 193.956 102.347 191.111 100.177" stroke="#263238" stroke-width="0.5" stroke-linecap="round" stroke-linejoin="round"/>
<path d="M195.405 100.098C196.865 97.42 198.594 94.8977 200.564 92.5698" stroke="#263238" stroke-width="0.5" stroke-linecap="round" stroke-linejoin="round"/>
<path d="M194.902 123.429C193.364 120.439 191.398 117.689 189.067 115.266" stroke="#263238" stroke-width="0.5" stroke-linecap="round" stroke-linejoin="round"/>
<path d="M195.385 126.578C196.279 124.59 197.336 122.681 198.547 120.869C200.24 118.488 200.478 118.177 200.478 118.177" stroke="#263238" stroke-width="0.5" stroke-linecap="round" stroke-linejoin="round"/>
<path d="M196.847 145.424C198.331 144.183 199.923 143.076 201.603 142.116C202.65 141.623 203.655 141.043 204.606 140.383" stroke="#263238" stroke-width="0.5" stroke-linecap="round" stroke-linejoin="round"/>
<path d="M197.74 141.739C197.069 139.955 196.262 138.226 195.325 136.566C194.384 135.028 193.318 133.57 192.137 132.207" stroke="#263238" stroke-width="0.5" stroke-linecap="round" stroke-linejoin="round"/>
<path d="M194.399 153.197C194.6 151.513 194.347 149.807 193.665 148.255C192.547 145.966 191.283 142.963 190.761 141.792" stroke="#263238" stroke-width="0.5" stroke-linecap="round" stroke-linejoin="round"/>
<path d="M31.4511 128.642C31.4511 128.642 30.4059 125.618 24.717 122.86C19.0281 120.102 15.456 118.62 15.456 118.62C15.456 118.62 15.747 126.293 21.1317 129.158C25.0464 131.134 29.1201 132.778 33.3099 134.072L31.4511 128.642Z" fill="#0044FF"/>
<path d="M31.8414 149.611C31.8414 149.611 30.7962 146.595 25.1073 143.83C19.4184 141.065 15.8463 139.589 15.8463 139.589C15.8463 139.589 16.1373 147.263 21.522 150.134C25.4376 152.106 29.5112 153.748 33.7002 155.042L31.8414 149.611Z" fill="#0044FF"/>
<path d="M32.966 133.874C32.966 133.874 32.2449 130.758 35.612 125.394C38.979 120.029 41.1884 116.893 41.1884 116.893C41.1884 116.893 45.0185 123.548 41.9822 128.84C39.7159 132.593 37.138 136.149 34.2757 139.47L32.966 133.874Z" fill="#0044FF"/>
<path d="M33.257 158.7C33.257 158.7 32.8667 155.525 36.763 150.544C40.6592 145.563 43.1994 142.679 43.1994 142.679C43.1994 142.679 46.3151 149.697 42.7363 154.639C40.0868 158.132 37.1506 161.397 33.9582 164.402L33.257 158.7Z" fill="#0044FF"/>
<path d="M43.0472 182.488C43.0472 182.488 42.0021 179.471 44.7672 173.783C47.5322 168.094 49.3977 164.74 49.3977 164.74C49.3977 164.74 53.9157 170.951 51.4549 176.534C49.5983 180.505 47.4121 184.313 44.9193 187.919L43.0472 182.488Z" fill="#0044FF"/>
<path d="M45.0318 188.435C45.0318 188.435 44.4232 185.299 39.1841 181.754C33.945 178.208 30.6441 176.25 30.6441 176.25C30.6441 176.25 29.837 183.884 34.7652 187.495C38.3577 190.014 42.1547 192.226 46.1166 194.111L45.0318 188.435Z" fill="#0044FF"/>
<path d="M46.9369 207.44C46.9369 207.44 45.8917 204.417 48.6568 198.728C51.4219 193.039 53.2873 189.685 53.2873 189.685C53.2873 189.685 57.8054 195.897 55.3446 201.48C53.485 205.452 51.2966 209.263 48.8023 212.871L46.9369 207.44Z" fill="#0044FF"/>
<path d="M55.2718 222.376C55.2718 222.376 53.4924 219.73 54.7294 213.519C55.9664 207.307 56.9322 203.596 56.9322 203.596C56.9322 203.596 62.8857 208.465 61.9001 214.485C61.1099 218.798 59.9593 223.038 58.4603 227.159L55.2718 222.376Z" fill="#0044FF"/>
<path d="M31.5702 127.735C32.4467 130.951 33.1445 134.213 33.6605 137.506C34.9835 146.714 32.7212 153.726 33.7531 162.1C34.7851 170.475 43.0142 178.856 45.2302 189.315C47.4462 199.773 45.4419 206.686 48.8619 212.983C52.2818 219.281 64.4006 235.355 64.4006 235.355" stroke="#263238" stroke-width="0.5" stroke-linecap="round" stroke-linejoin="round"/>
<path d="M33.6142 135.892L36.9614 130.825" stroke="#263238" stroke-width="0.5" stroke-linecap="round" stroke-linejoin="round"/>
<path d="M32.4367 131.797L29.3541 129.065" stroke="#263238" stroke-width="0.5" stroke-linecap="round" stroke-linejoin="round"/>
<path d="M33.8722 161.657C33.8722 161.657 36.6968 157.476 39.6273 153.263" stroke="#263238" stroke-width="0.5" stroke-linecap="round" stroke-linejoin="round"/>
<path d="M33.7201 155.042C33.7201 155.042 28.3884 149.889 23.3609 147.031" stroke="#263238" stroke-width="0.5" stroke-linecap="round" stroke-linejoin="round"/>
<path d="M44.6878 186.728C45.4741 181.965 46.9493 177.341 49.0669 173.002" stroke="#263238" stroke-width="0.5" stroke-linecap="round" stroke-linejoin="round"/>
<path d="M45.4088 191.22C43.3102 188.899 41.0224 186.758 38.5689 184.816C35.2084 182.303 34.7454 181.985 34.7454 181.985" stroke="#263238" stroke-width="0.5" stroke-linecap="round" stroke-linejoin="round"/>
<path d="M48.8552 212.983C48.9935 210.251 49.3384 207.533 49.8872 204.853C50.497 202.346 51.3111 199.892 52.3215 197.517" stroke="#263238" stroke-width="0.5" stroke-linecap="round" stroke-linejoin="round"/>
<path d="M58.4603 227.159C57.4491 224.945 57.045 222.503 57.2894 220.081C57.8186 216.456 58.2287 211.812 58.414 209.967" stroke="#263238" stroke-width="0.5" stroke-linecap="round" stroke-linejoin="round"/>
<path d="M17.7315 178.539C17.7315 178.539 16.7459 176.759 17.8638 172.889C18.9818 169.02 19.7954 166.718 19.7954 166.718C19.7954 166.718 23.3014 170.124 22.3621 173.888C21.6277 176.581 20.6696 179.207 19.4978 181.74L17.7315 178.539Z" fill="#0044FF"/>
<path d="M27.4821 187.654C27.4821 187.654 26.5031 185.875 27.6144 182.005C28.7257 178.135 29.546 175.833 29.546 175.833C29.546 175.833 33.0519 179.24 32.1126 183.004C31.3823 185.697 30.4263 188.323 29.2549 190.856L27.4821 187.654Z" fill="#0044FF"/>
<path d="M19.5639 181.482C19.5639 181.482 18.3997 179.815 14.4306 179.114C10.4616 178.413 8.04053 178.129 8.04053 178.129C8.04053 178.129 9.55537 182.759 13.3325 183.593C16.0744 184.121 18.856 184.418 21.6476 184.479L19.5639 181.482Z" fill="#0044FF"/>
<path d="M31.1799 192.225C31.1799 192.225 29.8569 190.691 25.8283 190.413C21.7998 190.135 19.3655 190.108 19.3655 190.108C19.3655 190.108 21.35 194.567 25.2198 194.984C27.9999 195.215 30.7944 195.215 33.5745 194.984L31.1799 192.225Z" fill="#0044FF"/>
<path d="M38.258 206.957C38.258 206.957 37.2723 205.177 33.4092 204.059C29.546 202.942 27.1513 202.406 27.1513 202.406C27.1513 202.406 28.1701 207.188 31.8546 208.399C34.5236 209.214 37.2565 209.802 40.0242 210.159L38.258 206.957Z" fill="#0044FF"/>
<path d="M40.2292 210.423C40.2292 210.423 39.0055 208.802 39.5677 204.82C40.13 200.838 40.6063 198.43 40.6063 198.43C40.6063 198.43 44.5753 201.301 44.1652 205.171C43.8228 207.94 43.2475 210.675 42.4453 213.347L40.2292 210.423Z" fill="#0044FF"/>
<path d="M50.8133 223.858C50.8133 223.858 50.3767 221.874 52.5332 218.48C54.6897 215.087 56.1252 213.096 56.1252 213.096C56.1252 213.096 58.533 217.356 56.5684 220.703C55.1072 223.081 53.4475 225.332 51.6071 227.43L50.8133 223.858Z" fill="#0044FF"/>
<path d="M48.3988 219.42C48.3988 219.42 47.4198 217.64 43.55 216.529C39.6802 215.417 37.2988 214.868 37.2988 214.868C37.2988 214.868 38.3109 219.651 42.0021 220.868C44.6706 221.691 47.4033 222.288 50.1716 222.654L48.3988 219.42Z" fill="#0044FF"/>
<path d="M51.918 229.726C51.918 229.726 51.4219 227.741 47.949 225.697C44.4761 223.653 42.3196 222.509 42.3196 222.509C42.3196 222.509 42.0881 227.391 45.3493 229.501C47.7245 230.964 50.2183 232.225 52.8044 233.271L51.918 229.726Z" fill="#0044FF"/>
<path d="M17.2553 178.208C18.4053 179.989 19.6507 181.707 20.9861 183.354C24.7832 187.899 29.0565 189.824 32.5823 193.872C36.1081 197.921 36.5513 205.409 40.56 210.893C44.5687 216.377 48.6899 218.388 50.2047 222.694C51.7195 227 54.1737 239.562 54.1737 239.562" stroke="#263238" stroke-width="0.5" stroke-linecap="round" stroke-linejoin="round"/>
<path d="M20.2386 182.653L16.4152 182.071" stroke="#263238" stroke-width="0.5" stroke-linecap="round" stroke-linejoin="round"/>
<path d="M18.8032 180.345L18.823 177.732" stroke="#263238" stroke-width="0.5" stroke-linecap="round" stroke-linejoin="round"/>
<path d="M32.3111 193.747C32.3111 193.747 29.1358 193.303 25.8945 192.893" stroke="#263238" stroke-width="0.5" stroke-linecap="round" stroke-linejoin="round"/>
<path d="M29.2549 190.856C29.177 188.072 29.3853 185.288 29.8767 182.547" stroke="#263238" stroke-width="0.5" stroke-linecap="round" stroke-linejoin="round"/>
<path d="M39.5677 209.537C36.9776 207.881 34.1612 206.608 31.2064 205.76" stroke="#263238" stroke-width="0.5" stroke-linecap="round" stroke-linejoin="round"/>
<path d="M41.3869 211.792C41.1805 209.815 41.1407 207.823 41.2678 205.839C41.5126 203.193 41.5589 202.829 41.5589 202.829" stroke="#263238" stroke-width="0.5" stroke-linecap="round" stroke-linejoin="round"/>
<path d="M51.1904 226.008C51.7839 224.343 52.5233 222.734 53.3998 221.199C53.9985 220.325 54.5271 219.405 54.9808 218.447" stroke="#263238" stroke-width="0.5" stroke-linecap="round" stroke-linejoin="round"/>
<path d="M50.2047 222.694C48.8565 221.593 47.4257 220.598 45.9248 219.717C44.4729 218.934 42.9596 218.27 41.4001 217.733" stroke="#263238" stroke-width="0.5" stroke-linecap="round" stroke-linejoin="round"/>
<path d="M52.8176 233.271C52.2016 231.849 51.2174 230.616 49.9666 229.699C48.035 228.409 45.6602 226.623 44.6745 225.929" stroke="#263238" stroke-width="0.5" stroke-linecap="round" stroke-linejoin="round"/>
<path d="M207.027 139.04H160.451C158.803 139.04 157.467 140.376 157.467 142.024V242.486C157.467 244.134 158.803 245.47 160.451 245.47H207.027C208.675 245.47 210.011 244.134 210.011 242.486V142.024C210.011 140.376 208.675 139.04 207.027 139.04Z" fill="white" stroke="#263238" stroke-width="1.01" stroke-linecap="round" stroke-linejoin="round"/>
<path d="M205.618 153.005H161.866C160.219 153.005 158.883 154.34 158.883 155.988V239.946C158.883 241.594 160.219 242.929 161.866 242.929H205.618C207.266 242.929 208.602 241.594 208.602 239.946V155.988C208.602 154.34 207.266 153.005 205.618 153.005Z" fill="#0044FF"/>
<path opacity="0.5" d="M205.618 153.005H161.866C160.219 153.005 158.883 154.34 158.883 155.988V239.946C158.883 241.594 160.219 242.929 161.866 242.929H205.618C207.266 242.929 208.602 241.594 208.602 239.946V155.988C208.602 154.34 207.266 153.005 205.618 153.005Z" fill="white"/>
<path d="M196.245 116.086H171.246V139.04H196.245V116.086Z" fill="#263238" stroke="#263238" stroke-width="1.01" stroke-linecap="round" stroke-linejoin="round"/>
<path d="M173.33 118.355V136.566" stroke="white" stroke-width="1.01" stroke-linecap="round" stroke-linejoin="round"/>
<path d="M177.193 118.355V136.566" stroke="white" stroke-width="1.01" stroke-linecap="round" stroke-linejoin="round"/>
<path d="M182.71 124.15V136.566" stroke="white" stroke-width="1.01" stroke-linecap="round" stroke-linejoin="round"/>
<path d="M182.71 118.355V121.392" stroke="white" stroke-width="1.01" stroke-linecap="round" stroke-linejoin="round"/>
<path d="M207.014 161.624H160.471V212.99H207.014V161.624Z" fill="white"/>
<path d="M183.431 205.872C192.952 205.872 200.67 198.154 200.67 188.633C200.67 179.113 192.952 171.395 183.431 171.395C173.911 171.395 166.193 179.113 166.193 188.633C166.193 198.154 173.911 205.872 183.431 205.872Z" fill="#263238"/>
<path d="M186.587 176.773H180.276V200.494H186.587V176.773Z" fill="#0044FF"/>
<path d="M195.292 191.789V185.478H171.571V191.789H195.292Z" fill="#0044FF"/>
<path d="M256.203 196.79H182.929C181.193 196.79 179.786 198.196 179.786 199.932V242.552C179.786 244.288 181.193 245.694 182.929 245.694H256.203C257.939 245.694 259.345 244.288 259.345 242.552V199.932C259.345 198.196 257.939 196.79 256.203 196.79Z" fill="white" stroke="#263238" stroke-linecap="round" stroke-linejoin="round"/>
<path d="M187.4 218.024C186.621 218.024 185.874 217.714 185.324 217.164C184.773 216.613 184.463 215.866 184.463 215.087V207.149C184.462 206.762 184.538 206.38 184.685 206.023C184.832 205.666 185.048 205.341 185.321 205.068C185.594 204.794 185.918 204.577 186.275 204.429C186.632 204.281 187.014 204.205 187.4 204.205C188.181 204.205 188.93 204.515 189.482 205.067C190.034 205.619 190.344 206.368 190.344 207.149V215.087C190.344 215.473 190.268 215.855 190.12 216.212C189.972 216.569 189.755 216.893 189.481 217.166C189.208 217.439 188.883 217.655 188.526 217.802C188.169 217.949 187.787 218.025 187.4 218.024Z" fill="#263238" stroke="#263238" stroke-width="1.01" stroke-linecap="round" stroke-linejoin="round"/>
<path d="M189.391 206.877V211.799" stroke="white" stroke-width="1.01" stroke-linecap="round" stroke-linejoin="round"/>
<path d="M189.391 213.069V215.768" stroke="white" stroke-width="1.01" stroke-linecap="round" stroke-linejoin="round"/>
<path d="M200.253 218.024C199.474 218.024 198.727 217.714 198.177 217.164C197.626 216.613 197.316 215.866 197.316 215.087V207.149C197.315 206.762 197.391 206.38 197.538 206.023C197.685 205.666 197.901 205.341 198.174 205.068C198.447 204.794 198.771 204.577 199.128 204.429C199.485 204.281 199.867 204.205 200.253 204.205C200.64 204.205 201.022 204.281 201.379 204.429C201.736 204.577 202.06 204.794 202.333 205.068C202.605 205.341 202.822 205.666 202.969 206.023C203.116 206.38 203.191 206.762 203.19 207.149V215.087C203.19 215.866 202.881 216.613 202.33 217.164C201.779 217.714 201.032 218.024 200.253 218.024Z" fill="#263238" stroke="#263238" stroke-width="1.01" stroke-linecap="round" stroke-linejoin="round"/>
<path d="M202.251 206.877V211.799" stroke="white" stroke-width="1.01" stroke-linecap="round" stroke-linejoin="round"/>
<path d="M202.251 213.069V215.768" stroke="white" stroke-width="1.01" stroke-linecap="round" stroke-linejoin="round"/>
<path d="M213.133 218.024C212.354 218.024 211.607 217.714 211.056 217.164C210.505 216.613 210.196 215.866 210.196 215.087V207.149C210.195 206.762 210.27 206.38 210.417 206.023C210.565 205.666 210.781 205.341 211.054 205.068C211.326 204.794 211.651 204.577 212.007 204.429C212.364 204.281 212.747 204.205 213.133 204.205C213.519 204.205 213.902 204.281 214.258 204.429C214.615 204.577 214.939 204.794 215.212 205.068C215.485 205.341 215.701 205.666 215.848 206.023C215.995 206.38 216.071 206.762 216.07 207.149V215.087C216.07 215.866 215.76 216.613 215.21 217.164C214.659 217.714 213.912 218.024 213.133 218.024Z" fill="#263238" stroke="#263238" stroke-width="1.01" stroke-linecap="round" stroke-linejoin="round"/>
<path d="M215.117 206.877V211.799" stroke="white" stroke-width="1.01" stroke-linecap="round" stroke-linejoin="round"/>
<path d="M215.117 213.069V215.768" stroke="white" stroke-width="1.01" stroke-linecap="round" stroke-linejoin="round"/>
<path d="M225.999 218.024C225.22 218.024 224.473 217.714 223.922 217.164C223.371 216.613 223.062 215.866 223.062 215.087V207.149C223.061 206.762 223.136 206.38 223.284 206.023C223.431 205.666 223.647 205.341 223.92 205.068C224.193 204.794 224.517 204.577 224.874 204.429C225.23 204.281 225.613 204.205 225.999 204.205C226.385 204.205 226.768 204.281 227.125 204.429C227.481 204.577 227.805 204.794 228.078 205.068C228.351 205.341 228.567 205.666 228.714 206.023C228.862 206.38 228.937 206.762 228.936 207.149V215.087C228.936 215.866 228.627 216.613 228.076 217.164C227.525 217.714 226.778 218.024 225.999 218.024Z" fill="#263238" stroke="#263238" stroke-width="1.01" stroke-linecap="round" stroke-linejoin="round"/>
<path d="M227.984 206.877V211.799" stroke="white" stroke-width="1.01" stroke-linecap="round" stroke-linejoin="round"/>
<path d="M227.984 213.069V215.768" stroke="white" stroke-width="1.01" stroke-linecap="round" stroke-linejoin="round"/>
<path d="M238.865 218.024C238.479 218.025 238.096 217.949 237.739 217.802C237.382 217.655 237.058 217.439 236.784 217.166C236.511 216.893 236.294 216.569 236.146 216.212C235.998 215.855 235.922 215.473 235.922 215.087V207.149C235.922 206.368 236.232 205.619 236.784 205.067C237.336 204.515 238.085 204.205 238.865 204.205C239.252 204.205 239.634 204.281 239.991 204.429C240.348 204.577 240.672 204.794 240.944 205.068C241.217 205.341 241.433 205.666 241.581 206.023C241.728 206.38 241.803 206.762 241.802 207.149V215.087C241.802 215.866 241.493 216.613 240.942 217.164C240.391 217.714 239.644 218.024 238.865 218.024Z" fill="#263238" stroke="#263238" stroke-width="1.01" stroke-linecap="round" stroke-linejoin="round"/>
<path d="M240.85 206.877V211.799" stroke="white" stroke-width="1.01" stroke-linecap="round" stroke-linejoin="round"/>
<path d="M240.85 213.069V215.768" stroke="white" stroke-width="1.01" stroke-linecap="round" stroke-linejoin="round"/>
<path d="M251.725 218.024C250.946 218.024 250.199 217.714 249.648 217.164C249.097 216.613 248.788 215.866 248.788 215.087V207.149C248.787 206.762 248.862 206.38 249.01 206.023C249.157 205.666 249.373 205.341 249.646 205.068C249.919 204.794 250.243 204.577 250.599 204.429C250.956 204.281 251.339 204.205 251.725 204.205C252.111 204.205 252.494 204.281 252.85 204.429C253.207 204.577 253.531 204.794 253.804 205.068C254.077 205.341 254.293 205.666 254.44 206.023C254.588 206.38 254.663 206.762 254.662 207.149V215.087C254.662 215.866 254.353 216.613 253.802 217.164C253.251 217.714 252.504 218.024 251.725 218.024Z" fill="#263238" stroke="#263238" stroke-width="1.01" stroke-linecap="round" stroke-linejoin="round"/>
<path d="M253.709 206.877V211.799" stroke="white" stroke-width="1.01" stroke-linecap="round" stroke-linejoin="round"/>
<path d="M253.709 213.069V215.768" stroke="white" stroke-width="1.01" stroke-linecap="round" stroke-linejoin="round"/>
<path d="M187.4 239.113C186.621 239.113 185.874 238.803 185.324 238.252C184.773 237.701 184.463 236.954 184.463 236.175V228.237C184.463 227.458 184.773 226.711 185.324 226.161C185.874 225.61 186.621 225.3 187.4 225.3C187.787 225.299 188.169 225.375 188.526 225.522C188.883 225.669 189.208 225.885 189.481 226.158C189.755 226.431 189.972 226.755 190.12 227.112C190.268 227.469 190.344 227.851 190.344 228.237V236.175C190.344 236.562 190.268 236.944 190.12 237.301C189.972 237.658 189.755 237.982 189.481 238.255C189.208 238.527 188.883 238.744 188.526 238.891C188.169 239.038 187.787 239.113 187.4 239.113Z" fill="#263238" stroke="#263238" stroke-width="1.01" stroke-linecap="round" stroke-linejoin="round"/>
<path d="M189.391 227.999V232.921" stroke="white" stroke-width="1.01" stroke-linecap="round" stroke-linejoin="round"/>
<path d="M189.391 234.191V236.89" stroke="white" stroke-width="1.01" stroke-linecap="round" stroke-linejoin="round"/>
<path d="M200.253 239.113C199.474 239.113 198.727 238.803 198.177 238.252C197.626 237.701 197.316 236.954 197.316 236.175V228.237C197.316 227.458 197.626 226.711 198.177 226.161C198.727 225.61 199.474 225.3 200.253 225.3C200.639 225.299 201.022 225.375 201.378 225.522C201.735 225.669 202.059 225.886 202.332 226.159C202.605 226.432 202.821 226.756 202.969 227.112C203.116 227.469 203.191 227.851 203.19 228.237V236.175C203.191 236.561 203.116 236.944 202.969 237.3C202.821 237.657 202.605 237.981 202.332 238.254C202.059 238.527 201.735 238.743 201.378 238.891C201.022 239.038 200.639 239.113 200.253 239.113Z" fill="#263238" stroke="#263238" stroke-width="1.01" stroke-linecap="round" stroke-linejoin="round"/>
<path d="M202.251 227.999V232.921" stroke="white" stroke-width="1.01" stroke-linecap="round" stroke-linejoin="round"/>
<path d="M202.251 234.191V236.89" stroke="white" stroke-width="1.01" stroke-linecap="round" stroke-linejoin="round"/>
<path d="M213.133 239.113C212.354 239.113 211.607 238.803 211.056 238.252C210.505 237.701 210.196 236.954 210.196 236.175V228.237C210.196 227.458 210.505 226.711 211.056 226.161C211.607 225.61 212.354 225.3 213.133 225.3C213.912 225.3 214.659 225.61 215.21 226.161C215.76 226.711 216.07 227.458 216.07 228.237V236.175C216.07 236.954 215.76 237.701 215.21 238.252C214.659 238.803 213.912 239.113 213.133 239.113Z" fill="#263238" stroke="#263238" stroke-width="1.01" stroke-linecap="round" stroke-linejoin="round"/>
<path d="M215.117 227.999V232.921" stroke="white" stroke-width="1.01" stroke-linecap="round" stroke-linejoin="round"/>
<path d="M215.117 234.191V236.89" stroke="white" stroke-width="1.01" stroke-linecap="round" stroke-linejoin="round"/>
<path d="M225.999 239.113C225.613 239.113 225.231 239.038 224.874 238.891C224.517 238.743 224.193 238.527 223.92 238.254C223.647 237.981 223.431 237.657 223.284 237.3C223.136 236.944 223.061 236.561 223.062 236.175V228.237C223.061 227.851 223.136 227.469 223.284 227.112C223.431 226.756 223.647 226.432 223.92 226.159C224.193 225.886 224.517 225.669 224.874 225.522C225.231 225.375 225.613 225.299 225.999 225.3C226.778 225.3 227.525 225.61 228.076 226.161C228.627 226.711 228.936 227.458 228.936 228.237V236.175C228.936 236.954 228.627 237.701 228.076 238.252C227.525 238.803 226.778 239.113 225.999 239.113Z" fill="#263238" stroke="#263238" stroke-width="1.01" stroke-linecap="round" stroke-linejoin="round"/>
<path d="M227.984 227.999V232.921" stroke="white" stroke-width="1.01" stroke-linecap="round" stroke-linejoin="round"/>
<path d="M227.984 234.191V236.89" stroke="white" stroke-width="1.01" stroke-linecap="round" stroke-linejoin="round"/>
<path d="M238.865 239.113C238.479 239.113 238.096 239.038 237.739 238.891C237.382 238.744 237.058 238.527 236.784 238.255C236.511 237.982 236.294 237.658 236.146 237.301C235.998 236.944 235.922 236.562 235.922 236.175V228.237C235.922 227.851 235.998 227.469 236.146 227.112C236.294 226.755 236.511 226.431 236.784 226.158C237.058 225.885 237.382 225.669 237.739 225.522C238.096 225.375 238.479 225.299 238.865 225.3C239.644 225.3 240.391 225.61 240.942 226.161C241.493 226.711 241.802 227.458 241.802 228.237V236.175C241.802 236.954 241.493 237.701 240.942 238.252C240.391 238.803 239.644 239.113 238.865 239.113Z" fill="#263238" stroke="#263238" stroke-width="1.01" stroke-linecap="round" stroke-linejoin="round"/>
<path d="M240.85 227.999V232.921" stroke="white" stroke-width="1.01" stroke-linecap="round" stroke-linejoin="round"/>
<path d="M240.85 234.191V236.89" stroke="white" stroke-width="1.01" stroke-linecap="round" stroke-linejoin="round"/>
<path d="M251.725 239.113C250.946 239.113 250.199 238.803 249.648 238.252C249.097 237.701 248.788 236.954 248.788 236.175V228.237C248.788 227.458 249.097 226.711 249.648 226.161C250.199 225.61 250.946 225.3 251.725 225.3C252.111 225.299 252.493 225.375 252.85 225.522C253.207 225.669 253.531 225.886 253.804 226.159C254.077 226.432 254.293 226.756 254.44 227.112C254.587 227.469 254.663 227.851 254.662 228.237V236.175C254.663 236.561 254.587 236.944 254.44 237.3C254.293 237.657 254.077 237.981 253.804 238.254C253.531 238.527 253.207 238.743 252.85 238.891C252.493 239.038 252.111 239.113 251.725 239.113Z" fill="#263238" stroke="#263238" stroke-width="1.01" stroke-linecap="round" stroke-linejoin="round"/>
<path d="M253.709 227.999V232.921" stroke="white" stroke-width="1.01" stroke-linecap="round" stroke-linejoin="round"/>
<path d="M253.709 234.191V236.89" stroke="white" stroke-width="1.01" stroke-linecap="round" stroke-linejoin="round"/>
<path d="M193.91 199.33V200.983" stroke="#263238" stroke-width="0.5" stroke-linecap="round" stroke-linejoin="round"/>
<path d="M193.91 204.053V239.344" stroke="#263238" stroke-width="0.5" stroke-linecap="round" stroke-linejoin="round" stroke-dasharray="4.64 4.64"/>
<path d="M193.91 240.879V242.532" stroke="#263238" stroke-width="0.5" stroke-linecap="round" stroke-linejoin="round"/>
<path d="M206.776 199.33V200.983" stroke="#263238" stroke-width="0.5" stroke-linecap="round" stroke-linejoin="round"/>
<path d="M206.776 204.053V239.344" stroke="#263238" stroke-width="0.5" stroke-linecap="round" stroke-linejoin="round" stroke-dasharray="4.64 4.64"/>
<path d="M206.776 240.879V242.532" stroke="#263238" stroke-width="0.5" stroke-linecap="round" stroke-linejoin="round"/>
<path d="M219.642 199.33V200.983" stroke="#263238" stroke-width="0.5" stroke-linecap="round" stroke-linejoin="round"/>
<path d="M219.642 204.053V239.344" stroke="#263238" stroke-width="0.5" stroke-linecap="round" stroke-linejoin="round" stroke-dasharray="4.64 4.64"/>
<path d="M219.642 240.879V242.532" stroke="#263238" stroke-width="0.5" stroke-linecap="round" stroke-linejoin="round"/>
<path d="M232.502 199.33V200.983" stroke="#263238" stroke-width="0.5" stroke-linecap="round" stroke-linejoin="round"/>
<path d="M232.502 204.053V239.344" stroke="#263238" stroke-width="0.5" stroke-linecap="round" stroke-linejoin="round" stroke-dasharray="4.64 4.64"/>
<path d="M232.502 240.879V242.532" stroke="#263238" stroke-width="0.5" stroke-linecap="round" stroke-linejoin="round"/>
<path d="M245.368 199.33V200.983" stroke="#263238" stroke-width="0.5" stroke-linecap="round" stroke-linejoin="round"/>
<path d="M245.368 204.053V239.344" stroke="#263238" stroke-width="0.5" stroke-linecap="round" stroke-linejoin="round" stroke-dasharray="4.64 4.64"/>
<path d="M245.368 240.879V242.532" stroke="#263238" stroke-width="0.5" stroke-linecap="round" stroke-linejoin="round"/>
<path d="M181.837 221.245H256.964" stroke="#263238" stroke-width="0.5" stroke-linecap="round" stroke-linejoin="round" stroke-dasharray="5 5"/>
<path d="M253.663 203.557V192.754H236.193V203.557L232.005 209.292C231.417 210.104 231.099 211.081 231.099 212.084V245.47H258.73V212.07C258.73 211.068 258.413 210.09 257.824 209.279L253.663 203.557Z" fill="#263238" stroke="#263238" stroke-width="1.01" stroke-linecap="round" stroke-linejoin="round"/>
<path d="M253.67 187.8H236.266V189.672H253.67V187.8Z" fill="#263238" stroke="#263238" stroke-width="1.01" stroke-linecap="round" stroke-linejoin="round"/>
<path d="M256.197 183.546H233.653V188.342H256.197V183.546Z" fill="#0044FF" stroke="#263238" stroke-width="1.01" stroke-linecap="round" stroke-linejoin="round"/>
<path d="M255.357 189.579H234.493C234.029 189.579 233.653 189.955 233.653 190.419V192.549C233.653 193.013 234.029 193.389 234.493 193.389H255.357C255.821 193.389 256.197 193.013 256.197 192.549V190.419C256.197 189.955 255.821 189.579 255.357 189.579Z" fill="#263238" stroke="#263238" stroke-width="1.01" stroke-linecap="round" stroke-linejoin="round"/>
<path d="M248.966 214.128H231.106V236.367H248.966V214.128Z" fill="#0044FF" stroke="#263238" stroke-width="1.01" stroke-linecap="round" stroke-linejoin="round"/>
<path d="M143.569 36.5604H55.7812C50.4765 36.5604 46.1762 40.8607 46.1762 46.1654V235.765C46.1762 241.07 50.4765 245.37 55.7812 245.37H143.569C148.874 245.37 153.174 241.07 153.174 235.765V46.1654C153.174 40.8607 148.874 36.5604 143.569 36.5604Z" fill="#263238"/>
<mask id="mask0_301_3295" style="mask-type:luminance" maskUnits="userSpaceOnUse" x="46" y="36" width="108" height="210">
<path d="M143.569 36.5604H55.7812C50.4765 36.5604 46.1762 40.8607 46.1762 46.1654V235.765C46.1762 241.07 50.4765 245.37 55.7812 245.37H143.569C148.874 245.37 153.174 241.07 153.174 235.765V46.1654C153.174 40.8607 148.874 36.5604 143.569 36.5604Z" fill="white"/>
</mask>
<g mask="url(#mask0_301_3295)">
<path opacity="0.2" d="M55.3843 36.5604C52.9386 36.5604 50.5931 37.5319 48.8638 39.2612C47.1345 40.9906 46.1629 43.3361 46.1629 45.7817V236.149C46.1617 237.498 46.4573 238.831 47.0289 240.053C47.6006 241.275 48.4341 242.357 49.4704 243.22L111.896 36.5604H55.3843Z" fill="white"/>
<path d="M103.317 239.331C103.317 238.611 103.103 237.908 102.704 237.309C102.304 236.711 101.736 236.245 101.071 235.969C100.406 235.694 99.6745 235.622 98.9687 235.762C98.263 235.903 97.6147 236.249 97.1059 236.758C96.597 237.267 96.2505 237.915 96.1101 238.621C95.9698 239.327 96.0418 240.058 96.3172 240.723C96.5925 241.388 97.0589 241.956 97.6572 242.356C98.2555 242.756 98.9589 242.969 99.6785 242.969C100.643 242.969 101.569 242.586 102.251 241.903C102.933 241.221 103.317 240.296 103.317 239.331Z" stroke="white" stroke-linecap="round" stroke-linejoin="round"/>
</g>
<path d="M143.569 36.5604H55.7812C50.4765 36.5604 46.1762 40.8607 46.1762 46.1654V235.765C46.1762 241.07 50.4765 245.37 55.7812 245.37H143.569C148.874 245.37 153.174 241.07 153.174 235.765V46.1654C153.174 40.8607 148.874 36.5604 143.569 36.5604Z" stroke="#263238" stroke-linecap="round" stroke-linejoin="round"/>
<path d="M148.425 50.743H50.939V232.98H148.425V50.743Z" fill="#0044FF"/>
<mask id="mask1_301_3295" style="mask-type:luminance" maskUnits="userSpaceOnUse" x="50" y="50" width="99" height="183">
<path d="M148.425 50.743H50.939V232.98H148.425V50.743Z" fill="white"/>
</mask>
<g mask="url(#mask1_301_3295)">
<path d="M130.134 140.668L114.681 126.703L99.6785 126.961L84.6756 126.703L69.2229 140.668L32.6815 164.733V235.739H97.7469H101.61H166.675V164.733L130.134 140.668Z" fill="white" stroke="#263238" stroke-width="1.01" stroke-linecap="round" stroke-linejoin="round"/>
<path d="M98.4283 193.198L91.7669 202.644C91.7669 202.644 99.705 199.045 107.352 195.93C114.999 192.814 124.611 182.984 126.767 179.392C128.924 175.8 132.059 170.521 132.059 170.521L122.454 163.119H132.78C132.78 163.119 132.535 151.874 129.42 142.738" stroke="#263238" stroke-width="1.01" stroke-linecap="round" stroke-linejoin="round"/>
<path d="M95.3853 197.325C94.2674 196.856 93.1362 196.386 92.0051 195.93C84.3382 192.814 74.7465 182.984 72.59 179.392C70.4335 175.8 67.2979 170.521 67.2979 170.521L76.9096 163.119H66.6298C66.6298 163.119 66.8746 151.874 69.9903 142.738" stroke="#263238" stroke-width="1.01" stroke-linecap="round" stroke-linejoin="round"/>
<path d="M83.346 127.762C83.346 127.762 80.3626 175.132 98.4283 193.198C98.4283 193.198 117.486 180.113 117.486 128.331L83.346 127.762Z" fill="white"/>
<mask id="mask2_301_3295" style="mask-type:luminance" maskUnits="userSpaceOnUse" x="83" y="127" width="35" height="67">
<path d="M83.346 127.762C83.346 127.762 80.3626 175.132 98.4283 193.198C98.4283 193.198 117.486 180.113 117.486 128.331L83.346 127.762Z" fill="white"/>
</mask>
<g mask="url(#mask2_301_3295)">
<path d="M93.4339 73.8559H108.801C113.206 73.8559 117.431 75.6059 120.546 78.721C123.661 81.836 125.411 86.0609 125.411 90.4662V124.937C125.412 127.866 124.836 130.765 123.716 133.471C122.596 136.177 120.954 138.636 118.884 140.707C116.814 142.778 114.357 144.422 111.651 145.543C108.946 146.665 106.047 147.242 103.118 147.243H99.1493C96.2209 147.243 93.3212 146.666 90.6157 145.546C87.9103 144.425 85.452 142.782 83.3813 140.712C81.3107 138.641 79.6681 136.183 78.5475 133.477C77.4268 130.772 76.85 127.872 76.85 124.944V90.4662C76.85 86.0609 78.6001 81.836 81.7151 78.721C84.8301 75.6059 89.055 73.8559 93.4604 73.8559H93.4339Z" fill="#0044FF"/>
<path opacity="0.5" d="M93.4339 73.8559H108.801C113.206 73.8559 117.431 75.6059 120.546 78.721C123.661 81.836 125.411 86.0609 125.411 90.4662V124.937C125.412 127.866 124.836 130.765 123.716 133.471C122.596 136.177 120.954 138.636 118.884 140.707C116.814 142.778 114.357 144.422 111.651 145.543C108.946 146.665 106.047 147.242 103.118 147.243H99.1493C96.2209 147.243 93.3212 146.666 90.6157 145.546C87.9103 144.425 85.452 142.782 83.3813 140.712C81.3107 138.641 79.6681 136.183 78.5475 133.477C77.4268 130.772 76.85 127.872 76.85 124.944V90.4662C76.85 86.0609 78.6001 81.836 81.7151 78.721C84.8301 75.6059 89.055 73.8559 93.4604 73.8559H93.4339Z" fill="white"/>
</g>
<path d="M83.346 127.762C83.346 127.762 80.3626 175.132 98.4283 193.198C98.4283 193.198 117.486 180.113 117.486 128.331L83.346 127.762Z" stroke="#263238" stroke-width="1.01" stroke-linecap="round" stroke-linejoin="round"/>
<path d="M90.9467 123.727C90.9467 123.727 89.2929 144.399 99.275 152.284C99.275 152.284 109.806 146.575 109.806 123.978L90.9467 123.727Z" stroke="#263238" stroke-width="1.01" stroke-linecap="round" stroke-linejoin="round"/>
<path d="M87.6127 158.773L99.275 152.284L112.366 161.333" stroke="#263238" stroke-width="1.01" stroke-linecap="round" stroke-linejoin="round"/>
<path d="M102.41 162.755L104.686 156.213L99.275 152.284L92.1638 156.213L95.8616 162.167L90.0272 179.69C92.1307 184.929 94.8694 189.612 98.4283 193.178C98.4283 193.178 103.495 189.698 108.404 179.227L102.41 162.755Z" fill="#0044FF" stroke="#263238" stroke-width="1.01" stroke-linecap="round" stroke-linejoin="round"/>
<path d="M125.721 198.472C130.902 197.627 134.418 192.742 133.573 187.56C132.728 182.379 127.843 178.863 122.662 179.708C117.48 180.553 113.965 185.438 114.809 190.619C115.654 195.801 120.539 199.317 125.721 198.472Z" fill="white" stroke="#263238" stroke-width="1.01" stroke-linecap="round" stroke-linejoin="round"/>
<path d="M130.501 191.684C131.937 188.193 130.27 184.2 126.78 182.765C123.29 181.33 119.297 182.996 117.861 186.487C116.426 189.977 118.093 193.97 121.583 195.405C125.073 196.84 129.066 195.174 130.501 191.684Z" fill="white" stroke="#263238" stroke-width="1.01" stroke-linecap="round" stroke-linejoin="round"/>
<path d="M124.181 190.545C123.795 190.545 123.424 190.392 123.152 190.119C122.879 189.846 122.725 189.476 122.725 189.09V133.239C122.725 132.853 122.879 132.483 123.152 132.21C123.424 131.937 123.795 131.784 124.181 131.784C124.567 131.784 124.937 131.937 125.21 132.21C125.483 132.483 125.636 132.853 125.636 133.239V189.09C125.637 189.281 125.6 189.471 125.527 189.648C125.454 189.825 125.347 189.985 125.212 190.121C125.076 190.256 124.915 190.363 124.739 190.436C124.562 190.509 124.372 190.546 124.181 190.545Z" fill="#263238"/>
<path d="M78.2524 210.8H78.1135C76.7905 210.575 64.0963 198.232 62.8989 194.924C61.7016 191.617 62.039 186.325 62.0522 186.126C62.0645 185.933 62.1529 185.753 62.2981 185.625C62.4432 185.497 62.6332 185.433 62.8262 185.445C63.0192 185.457 63.1994 185.546 63.3271 185.691C63.4549 185.836 63.5198 186.026 63.5075 186.219C63.5075 186.265 63.2098 191.412 64.2683 194.448C65.2407 197.22 76.5391 208.286 78.3252 209.365C79.3174 209.054 82.9557 205.793 84.2787 202.452C84.3139 202.363 84.3663 202.282 84.4329 202.213C84.4994 202.144 84.5789 202.089 84.6667 202.051C84.7546 202.013 84.8491 201.993 84.9448 201.991C85.0405 201.989 85.1356 202.007 85.2247 202.042C85.3137 202.077 85.3949 202.129 85.4637 202.196C85.5325 202.263 85.5876 202.342 85.6256 202.43C85.6637 202.518 85.6841 202.612 85.6857 202.708C85.6873 202.804 85.67 202.899 85.6348 202.988C84.2589 206.527 79.926 210.8 78.2524 210.8Z" fill="white" stroke="#263238" stroke-width="1.01" stroke-linecap="round" stroke-linejoin="round"/>
<path d="M66.9738 210.8C65.2936 210.8 60.9674 206.527 59.565 202.948C59.4939 202.768 59.4972 202.568 59.5741 202.39C59.651 202.213 59.7953 202.073 59.9751 202.002C60.1549 201.931 60.3556 201.934 60.533 202.011C60.7104 202.088 60.85 202.233 60.921 202.412C62.2441 205.753 65.8757 209.027 66.8746 209.325C68.6606 208.247 79.9591 197.18 80.9315 194.408C81.9899 191.372 81.6989 186.225 81.6922 186.179C81.68 185.986 81.7448 185.796 81.8726 185.651C82.0004 185.506 82.1806 185.417 82.3736 185.405C82.5666 185.393 82.7565 185.458 82.9017 185.585C83.0468 185.713 83.1353 185.893 83.1475 186.086C83.1475 186.311 83.4651 191.577 82.3008 194.884C81.1366 198.192 68.4688 210.562 67.0863 210.76L66.9738 210.8Z" fill="white" stroke="#263238" stroke-width="1.01" stroke-linecap="round" stroke-linejoin="round"/>
<path d="M72.7884 161.432C72.403 161.431 72.0338 161.277 71.7613 161.004C71.4887 160.732 71.3349 160.362 71.3331 159.977V135.614C71.3331 135.228 71.4864 134.858 71.7594 134.585C72.0323 134.312 72.4024 134.159 72.7884 134.159C73.1744 134.159 73.5446 134.312 73.8175 134.585C74.0904 134.858 74.2437 135.228 74.2437 135.614V159.977C74.2437 160.168 74.2061 160.357 74.1329 160.534C74.0598 160.71 73.9526 160.871 73.8175 161.006C73.6823 161.141 73.5219 161.248 73.3453 161.321C73.1688 161.395 72.9795 161.432 72.7884 161.432Z" fill="#263238"/>
<path d="M82.2942 189.063C81.9088 189.061 81.5396 188.908 81.2671 188.635C80.9945 188.362 80.8406 187.993 80.8389 187.608V170.078C80.8389 167.864 79.9594 165.741 78.3938 164.175C76.8282 162.609 74.7048 161.73 72.4907 161.73C70.2767 161.73 68.1533 162.609 66.5877 164.175C65.0221 165.741 64.1426 167.864 64.1426 170.078V187.595C64.1426 187.981 63.9892 188.351 63.7163 188.624C63.4434 188.897 63.0732 189.05 62.6873 189.05C62.3013 189.05 61.9311 188.897 61.6582 188.624C61.3853 188.351 61.232 187.981 61.232 187.595V170.065C61.232 167.082 62.4168 164.222 64.5257 162.113C66.6347 160.004 69.495 158.819 72.4775 158.819C75.46 158.819 78.3204 160.004 80.4293 162.113C82.5383 164.222 83.723 167.082 83.723 170.065V187.595C83.7249 187.978 83.5762 188.346 83.3089 188.621C83.0417 188.896 82.6773 189.055 82.2942 189.063Z" fill="#263238"/>
<path d="M58.2205 200.238L57.975 200.429C57.2364 201.003 57.1028 202.067 57.6765 202.805L58.7519 204.19C59.3256 204.928 60.3895 205.062 61.1281 204.488L61.3736 204.298C62.1123 203.724 62.2459 202.66 61.6721 201.921L60.5968 200.537C60.023 199.798 58.9591 199.665 58.2205 200.238Z" fill="white" stroke="#263238" stroke-width="1.01" stroke-linecap="round" stroke-linejoin="round"/>
<path d="M83.5973 204.289L83.8429 204.48C84.5815 205.053 85.6453 204.92 86.2191 204.181L87.2945 202.797C87.8682 202.058 87.7346 200.994 86.996 200.421L86.7504 200.23C86.0118 199.656 84.948 199.79 84.3742 200.528L83.2988 201.913C82.7251 202.651 82.8587 203.715 83.5973 204.289Z" fill="white" stroke="#263238" stroke-width="1.01" stroke-linecap="round" stroke-linejoin="round"/>
<path d="M75.5667 97.1474H74.9515C73.0445 97.1474 71.4985 98.6934 71.4985 100.6V106.799C71.4985 108.706 73.0445 110.252 74.9515 110.252H75.5667C77.4738 110.252 79.0198 108.706 79.0198 106.799V100.6C79.0198 98.6934 77.4738 97.1474 75.5667 97.1474Z" fill="white" stroke="#263238" stroke-width="1.01" stroke-linecap="round" stroke-linejoin="round"/>
<path d="M126.397 97.1474H125.781C123.874 97.1474 122.328 98.6934 122.328 100.6V106.799C122.328 108.706 123.874 110.252 125.781 110.252H126.397C128.304 110.252 129.85 108.706 129.85 106.799V100.6C129.85 98.6934 128.304 97.1474 126.397 97.1474Z" fill="white" stroke="#263238" stroke-width="1.01" stroke-linecap="round" stroke-linejoin="round"/>
<path d="M93.4339 64.317H108.801C113.206 64.317 117.431 66.0671 120.546 69.1821C123.661 72.2971 125.411 76.522 125.411 80.9274V115.398C125.411 121.312 123.062 126.984 118.88 131.166C114.698 135.348 109.026 137.698 103.112 137.698H99.1427C96.2143 137.698 93.3146 137.121 90.6091 136C87.9037 134.879 85.4454 133.237 83.3747 131.166C81.3041 129.096 79.6615 126.637 78.5409 123.932C77.4202 121.226 76.8434 118.327 76.8434 115.398V80.9274C76.8434 76.5255 78.5907 72.3036 81.7015 69.1891C84.8122 66.0746 89.032 64.3223 93.4339 64.317Z" fill="white" stroke="#263238" stroke-width="1.01" stroke-linecap="round" stroke-linejoin="round"/>
<path d="M95.4052 93.3239H87.745C87.0545 93.3239 86.4948 93.8837 86.4948 94.5742V94.7991C86.4948 95.4896 87.0545 96.0493 87.745 96.0493H95.4052C96.0957 96.0493 96.6554 95.4896 96.6554 94.7991V94.5742C96.6554 93.8837 96.0957 93.3239 95.4052 93.3239Z" fill="#263238" stroke="#263238" stroke-width="1.01" stroke-linecap="round" stroke-linejoin="round"/>
<path d="M115.482 93.3239H107.822C107.131 93.3239 106.571 93.8837 106.571 94.5742V94.7991C106.571 95.4896 107.131 96.0493 107.822 96.0493H115.482C116.172 96.0493 116.732 95.4896 116.732 94.7991V94.5742C116.732 93.8837 116.172 93.3239 115.482 93.3239Z" fill="#263238" stroke="#263238" stroke-width="1.01" stroke-linecap="round" stroke-linejoin="round"/>
<path d="M94.4129 101.632C94.4129 103.207 93.6919 104.477 92.7989 104.477C91.9058 104.477 91.1914 103.207 91.1914 101.632C91.1914 100.058 91.9125 98.7813 92.7989 98.7813C93.6853 98.7813 94.4129 100.058 94.4129 101.632Z" fill="#263238" stroke="#263238" stroke-width="1.01" stroke-linecap="round" stroke-linejoin="round"/>
<path d="M112.525 101.632C112.525 103.207 111.804 104.477 110.911 104.477C110.018 104.477 109.297 103.207 109.297 101.632C109.297 100.058 110.018 98.7813 110.911 98.7813C111.804 98.7813 112.525 100.058 112.525 101.632Z" fill="#263238" stroke="#263238" stroke-width="1.01" stroke-linecap="round" stroke-linejoin="round"/>
<path d="M109.806 64.317H92.4284C88.2898 64.317 84.3206 65.9611 81.3941 68.8876C78.4677 71.8141 76.8236 75.7832 76.8236 79.9219V116.589C76.8236 122.187 79.0475 127.556 83.0061 131.515C86.9648 135.474 92.3338 137.698 97.9321 137.698H104.335C107.108 137.698 109.853 137.153 112.414 136.092C114.976 135.032 117.303 133.477 119.263 131.517C121.224 129.557 122.779 127.229 123.839 124.668C124.9 122.106 125.445 119.361 125.444 116.589V79.9219C125.444 77.8698 125.039 75.8379 124.253 73.9425C123.467 72.0471 122.314 70.3253 120.862 68.8759C119.409 67.4264 117.685 66.2776 115.788 65.4954C113.891 64.7131 111.858 64.3127 109.806 64.317ZM121.713 111.423C121.713 111.423 121.713 115.881 117.255 120.346C117.255 120.346 112.545 114.148 110.56 113.652C109.277 113.334 104.501 113.427 101.259 113.533C98.0247 113.427 93.2421 113.334 91.9985 113.652C90.014 114.148 85.304 120.346 85.304 120.346C80.8455 115.881 80.8455 111.423 80.8455 111.423V91.0946L83.1674 88.0385C84.0554 86.9024 84.5644 85.5162 84.6226 84.0754C84.6807 82.6346 84.2851 81.2118 83.4915 80.0079C82.6575 78.7291 82.2944 77.2 82.4646 75.6828C82.6348 74.1656 83.3276 72.755 84.4242 71.6928L84.4706 71.6531C85.5326 70.6257 86.9098 69.986 88.38 69.8372C89.8501 69.6884 91.3275 70.0391 92.574 70.8328L96.0402 73.5516C97.5518 74.7317 99.4145 75.3727 101.332 75.3727C103.25 75.3727 105.113 74.7317 106.624 73.5516L110.077 70.8328C111.33 70.0344 112.816 69.6811 114.294 69.8299C115.773 69.9787 117.158 70.6209 118.227 71.6531L118.267 71.6928C119.365 72.7755 120.052 74.2062 120.212 75.74C120.371 77.2738 119.992 78.8153 119.14 80.1005C118.374 81.3008 118 82.7095 118.07 84.1317C118.14 85.5539 118.65 86.9192 119.53 88.0385L121.931 91.0946L121.713 111.423Z" fill="#263238" stroke="#263238" stroke-width="1.01" stroke-linecap="round" stroke-linejoin="round"/>
<path d="M104.838 110.576C104.838 110.576 107.815 110.179 107.815 111.899C107.815 113.619 106.075 114.869 102.609 113.632" fill="white"/>
<path d="M104.838 110.576C104.838 110.576 107.815 110.179 107.815 111.899C107.815 113.619 106.075 114.869 102.609 113.632" stroke="#263238" stroke-width="1.01" stroke-linecap="round" stroke-linejoin="round"/>
<path d="M104.587 96.5454V110.927C104.587 111.715 104.274 112.471 103.717 113.029C103.16 113.587 102.405 113.902 101.617 113.903H98.9707C97.0788 114.036 96.4173 113.573 96.1924 112.772C96.1222 112.506 96.1083 112.227 96.1516 111.955C96.1949 111.683 96.2944 111.423 96.4438 111.191C96.4438 110.45 99.6057 110.45 99.6057 110.45" fill="white"/>
<path d="M104.587 96.5454V110.927C104.587 111.715 104.274 112.471 103.717 113.029C103.16 113.587 102.405 113.902 101.617 113.903H98.9707C97.0788 114.036 96.4173 113.573 96.1924 112.772C96.1222 112.506 96.1083 112.227 96.1516 111.955C96.1949 111.683 96.2944 111.423 96.4438 111.191C96.4438 110.45 99.6057 110.45 99.6057 110.45" stroke="#263238" stroke-width="1.01" stroke-linecap="round" stroke-linejoin="round"/>
<path d="M101.471 122.106C98.7102 122.121 95.9936 121.412 93.5927 120.049C93.3565 119.89 93.1914 119.646 93.1325 119.368C93.0736 119.09 93.1255 118.8 93.2771 118.56C93.4288 118.319 93.6683 118.147 93.9446 118.081C94.221 118.014 94.5124 118.058 94.7569 118.203C96.8363 119.339 99.1698 119.929 101.539 119.917C103.909 119.906 106.236 119.293 108.304 118.137C108.431 118.062 108.572 118.014 108.718 117.995C108.864 117.976 109.012 117.987 109.154 118.027C109.296 118.067 109.428 118.135 109.543 118.228C109.657 118.32 109.752 118.435 109.821 118.565C109.89 118.695 109.933 118.837 109.945 118.984C109.958 119.13 109.941 119.278 109.895 119.418C109.849 119.558 109.775 119.687 109.678 119.798C109.581 119.908 109.463 119.998 109.33 120.062C106.921 121.386 104.22 122.088 101.471 122.106Z" fill="white" stroke="#263238" stroke-width="1.01" stroke-linecap="round" stroke-linejoin="round"/>
<path d="M109.436 105.932H114.238" stroke="#263238" stroke-width="1.01" stroke-linecap="round" stroke-linejoin="round"/>
<path d="M90.3579 105.932H95.1604" stroke="#263238" stroke-width="1.01" stroke-linecap="round" stroke-linejoin="round"/>
<path d="M71.3331 228.767C76.0752 228.767 79.9194 224.922 79.9194 220.18C79.9194 215.438 76.0752 211.594 71.3331 211.594C66.591 211.594 62.7468 215.438 62.7468 220.18C62.7468 224.922 66.591 228.767 71.3331 228.767Z" stroke="#263238" stroke-width="0.724166" stroke-linecap="round" stroke-linejoin="round"/>
<path d="M71.3199 222.304C70.8602 222.304 70.4194 222.121 70.0944 221.796C69.7693 221.471 69.5867 221.03 69.5867 220.571V215.08C69.5867 214.62 69.7693 214.18 70.0944 213.855C70.4194 213.53 70.8602 213.347 71.3199 213.347C71.7795 213.347 72.2204 213.53 72.5454 213.855C72.8704 214.18 73.053 214.62 73.053 215.08V220.571C73.053 221.03 72.8704 221.471 72.5454 221.796C72.2204 222.121 71.7795 222.304 71.3199 222.304Z" fill="#263238"/>
<path d="M71.3331 223.554C70.5213 223.552 69.7433 223.229 69.1693 222.655C68.5953 222.081 68.2721 221.303 68.2703 220.491V217.911C68.2703 217.827 68.3038 217.746 68.3633 217.687C68.4229 217.627 68.5037 217.594 68.5879 217.594C68.6298 217.593 68.6715 217.601 68.7104 217.616C68.7494 217.632 68.7847 217.655 68.8144 217.685C68.8441 217.714 68.8674 217.75 68.883 217.789C68.8987 217.828 68.9063 217.869 68.9054 217.911V220.491C68.9379 221.114 69.2082 221.701 69.6605 222.13C70.1129 222.559 70.7127 222.799 71.3364 222.799C71.9601 222.799 72.56 222.559 73.0123 222.13C73.4646 221.701 73.7349 221.114 73.7674 220.491V217.911C73.7665 217.869 73.7741 217.828 73.7898 217.789C73.8054 217.75 73.8288 217.714 73.8584 217.685C73.8881 217.655 73.9235 217.632 73.9624 217.616C74.0013 217.601 74.043 217.593 74.085 217.594C74.1692 217.594 74.2499 217.627 74.3095 217.687C74.369 217.746 74.4025 217.827 74.4025 217.911V220.491C74.4007 221.304 74.0766 222.083 73.5011 222.657C72.9257 223.231 72.146 223.554 71.3331 223.554Z" fill="#263238"/>
<path d="M71.3331 226.848C71.2917 226.848 71.2507 226.84 71.2126 226.824C71.1744 226.808 71.1398 226.784 71.1109 226.755C71.0819 226.725 71.0592 226.69 71.0439 226.652C71.0287 226.613 71.0213 226.572 71.0222 226.531V223.223C71.0222 223.135 71.057 223.051 71.1191 222.989C71.1811 222.927 71.2652 222.892 71.3529 222.892C71.4407 222.892 71.5248 222.927 71.5868 222.989C71.6489 223.051 71.6837 223.135 71.6837 223.223V226.531C71.685 226.576 71.6766 226.62 71.659 226.662C71.6413 226.703 71.615 226.74 71.5816 226.77C71.5483 226.801 71.5088 226.823 71.4659 226.837C71.423 226.85 71.3777 226.854 71.3331 226.848Z" fill="#263238"/>
<path d="M73.4499 227.02H69.2229C69.1392 227.019 69.0595 226.985 69.0003 226.925C68.9411 226.866 68.9071 226.786 68.9054 226.703C68.9054 226.619 68.9388 226.538 68.9984 226.478C69.0579 226.419 69.1387 226.385 69.2229 226.385H73.4499C73.5341 226.385 73.6149 226.419 73.6744 226.478C73.734 226.538 73.7674 226.619 73.7674 226.703C73.7657 226.786 73.7317 226.866 73.6726 226.925C73.6134 226.985 73.5336 227.019 73.4499 227.02Z" fill="#263238"/>
<path d="M128.189 228.767C132.931 228.767 136.776 224.922 136.776 220.18C136.776 215.438 132.931 211.594 128.189 211.594C123.447 211.594 119.603 215.438 119.603 220.18C119.603 224.922 123.447 228.767 128.189 228.767Z" stroke="#263238" stroke-width="0.724166" stroke-linecap="round" stroke-linejoin="round"/>
<path d="M133.488 217.667L130.981 219.115V217.925C130.979 217.654 130.87 217.395 130.678 217.204C130.486 217.013 130.226 216.906 129.955 216.906H124.293C124.159 216.905 124.026 216.931 123.901 216.982C123.777 217.032 123.664 217.107 123.568 217.202C123.473 217.297 123.397 217.409 123.346 217.533C123.294 217.657 123.268 217.79 123.268 217.925V222.489C123.267 222.624 123.293 222.758 123.344 222.882C123.395 223.007 123.471 223.121 123.566 223.216C123.661 223.311 123.775 223.387 123.9 223.438C124.024 223.489 124.158 223.515 124.293 223.514H129.955C130.09 223.514 130.223 223.488 130.348 223.436C130.472 223.385 130.585 223.309 130.681 223.214C130.776 223.119 130.851 223.006 130.903 222.881C130.954 222.757 130.981 222.624 130.981 222.489V221.331L133.488 222.78V217.667Z" fill="#263238"/>
<path d="M99.7645 228.767C104.507 228.767 108.351 224.922 108.351 220.18C108.351 215.438 104.507 211.594 99.7645 211.594C95.0224 211.594 91.1782 215.438 91.1782 220.18C91.1782 224.922 95.0224 228.767 99.7645 228.767Z" fill="#263238" stroke="#263238" stroke-width="0.724166" stroke-linecap="round" stroke-linejoin="round"/>
<path d="M104.111 218.368H95.4184C95.1777 218.368 94.9399 218.421 94.7219 218.523C94.5039 218.625 94.3111 218.774 94.157 218.959C94.003 219.143 93.8915 219.36 93.8306 219.593C93.7696 219.826 93.7607 220.069 93.8044 220.306L94.0557 221.669C94.0739 221.761 94.1233 221.844 94.1955 221.904C94.2678 221.965 94.3586 221.998 94.4526 221.999H97.0986C97.2074 221.999 97.3117 221.956 97.3886 221.879C97.4656 221.802 97.5088 221.698 97.5088 221.589V220.114H102.073V221.589C102.073 221.698 102.116 221.802 102.193 221.879C102.27 221.956 102.374 221.999 102.483 221.999H105.129C105.224 222 105.317 221.967 105.39 221.907C105.464 221.846 105.514 221.762 105.533 221.669L105.784 220.306C105.829 220.064 105.819 219.816 105.755 219.578C105.69 219.341 105.573 219.121 105.413 218.935C105.252 218.749 105.052 218.601 104.826 218.503C104.601 218.405 104.356 218.359 104.111 218.368Z" fill="#0044FF"/>
<path d="M144.588 52.6349H136.504V57.067H144.588V52.6349Z" stroke="#263238" stroke-width="0.821067" stroke-linecap="round" stroke-linejoin="round"/>
<path d="M142.808 52.6349H136.504V57.067H142.808V52.6349Z" fill="#263238" stroke="#263238" stroke-width="0.725073" stroke-linecap="round" stroke-linejoin="round"/>
<path d="M145.706 53.8719H144.568V55.8233H145.706V53.8719Z" fill="#263238" stroke="#263238" stroke-width="0.725073" stroke-linecap="round" stroke-linejoin="round"/>
<path d="M54.0943 54.0042H52.6126V56.5444H54.0943V54.0042Z" fill="#263238" stroke="#263238" stroke-width="0.883086" stroke-linecap="round" stroke-linejoin="round"/>
<path d="M56.4228 53.1178H54.9411V56.551H56.4228V53.1178Z" fill="#263238" stroke="#263238" stroke-width="0.883086" stroke-linecap="round" stroke-linejoin="round"/>
<path d="M58.7513 52.0594H57.2696V56.5444H58.7513V52.0594Z" fill="#263238" stroke="#263238" stroke-width="0.883086" stroke-linecap="round" stroke-linejoin="round"/>
</g>
<path d="M148.425 50.743H50.939V232.98H148.425V50.743Z" stroke="#263238" stroke-linecap="round" stroke-linejoin="round"/>
<path d="M28.4743 245.37H275.949" stroke="#263238" stroke-width="1.01" stroke-linecap="round" stroke-linejoin="round"/>
<path d="M14.9135 245.37H21.4558" stroke="#263238" stroke-width="1.01" stroke-linecap="round" stroke-linejoin="round"/>
</svg>
