<svg width="18" height="18" viewBox="0 0 18 18" fill="none" xmlns="http://www.w3.org/2000/svg">
<g id="icon">
<path id="icon_2" fill-rule="evenodd" clip-rule="evenodd" d="M10.1652 1.96872C10.1652 1.61369 10.453 1.32587 10.808 1.32587H12.8973C13.2524 1.32587 13.5401 1.61369 13.5401 1.96872V3.7768H15.3482C15.7032 3.7768 15.9911 4.06461 15.9911 4.41966V6.50894C15.9911 6.86398 15.7032 7.1518 15.3482 7.1518H13.5401V8.9598C13.5401 9.31483 13.2524 9.60265 12.8973 9.60265H10.808C10.453 9.60265 10.1652 9.31483 10.1652 8.9598V7.1518H8.35714C8.00211 7.1518 7.71429 6.86398 7.71429 6.50894V4.41966C7.71429 4.06461 8.00211 3.7768 8.35714 3.7768H10.1652V1.96872ZM2.36976 8.99997H0V14.1428L2.35084 16.4936C3.3153 17.4582 4.62342 18 5.98738 18H13.5C14.5651 18 15.4286 17.1365 15.4286 16.0714C15.4286 15.0063 14.5651 14.1428 13.5 14.1428H9.92975C9.80565 14.5626 9.57797 14.9582 9.2467 15.2894C8.18731 16.3489 6.4697 16.3489 5.41031 15.2894L3.54601 13.4251C3.2322 13.1113 3.2322 12.6026 3.54601 12.2888C3.85983 11.9749 4.36863 11.9749 4.68243 12.2888L6.54674 14.153C6.9785 14.5849 7.67852 14.5849 8.11029 14.153C8.49856 13.7648 8.53767 13.1595 8.22759 12.7276L6.0063 10.5063C5.04184 9.54181 3.73373 8.99997 2.36976 8.99997Z" fill="white"/>
</g>
</svg>
