<svg width="18" height="18" viewBox="0 0 18 18" fill="none" xmlns="http://www.w3.org/2000/svg">
<g clip-path="url(#clip0_146_4)">
<path fill-rule="evenodd" clip-rule="evenodd" d="M6.42722 0C5.81732 0 5.19366 0.197254 4.70058 0.603035C4.20044 1.01464 3.8551 1.63278 3.8551 2.34438V4.32756H1.92857C0.888157 4.32756 0 5.14401 0 6.20526V16.084C0 17.1453 0.888157 17.9617 1.92857 17.9617H16.0714C17.1118 17.9617 18 17.1453 18 16.084V6.20526C18 5.14401 17.1118 4.32756 16.0714 4.32756H14.1449V2.34438C14.1449 1.63278 13.7996 1.01464 13.2994 0.603035C12.8064 0.197254 12.1827 0 11.5728 0H6.42722ZM11.5735 4.32756V2.57143H6.42722L6.42653 4.32756H11.5735ZM5.625 11.1446C5.625 10.7008 5.98477 10.3411 6.42857 10.3411H8.19643V8.57321C8.19643 8.1294 8.5562 7.76964 9 7.76964C9.4438 7.76964 9.80357 8.1294 9.80357 8.57321V10.3411H11.5714C12.0152 10.3411 12.375 10.7008 12.375 11.1446C12.375 11.5884 12.0152 11.9482 11.5714 11.9482H9.80357V13.716C9.80357 14.1598 9.4438 14.5196 9 14.5196C8.5562 14.5196 8.19643 14.1598 8.19643 13.716V11.9482H6.42857C5.98477 11.9482 5.625 11.5884 5.625 11.1446Z" fill="white"/>
</g>
<defs>
<clipPath id="clip0_146_4">
<rect width="18" height="18" fill="white"/>
</clipPath>
</defs>
</svg>
