<svg width="58" height="58" viewBox="0 0 58 58" fill="none" xmlns="http://www.w3.org/2000/svg">
<g id="Medical Bag" clip-path="url(#clip0_104_3071)">
<path id="icon" fill-rule="evenodd" clip-rule="evenodd" d="M20.7099 0C18.7447 0 16.7351 0.635597 15.1463 1.94311C13.5348 3.26941 12.422 5.26118 12.422 7.55413V13.9444H6.21429C2.86184 13.9444 0 16.5752 0 19.9947V51.8263C0 55.2458 2.86184 57.8765 6.21429 57.8765H51.7857C55.1381 57.8765 58 55.2458 58 51.8263V19.9947C58 16.5752 55.1381 13.9444 51.7857 13.9444H45.5781V7.55413C45.5781 5.26118 44.4653 3.26941 42.8537 1.94311C41.265 0.635597 39.2554 0 37.2902 0H20.7099ZM37.2924 13.9444V8.28571H20.7099L20.7077 13.9444H37.2924ZM18.125 35.9105C18.125 34.4805 19.2843 33.3212 20.7143 33.3212H26.4107V27.6248C26.4107 26.1947 27.57 25.0355 29 25.0355C30.43 25.0355 31.5893 26.1947 31.5893 27.6248V33.3212H37.2857C38.7157 33.3212 39.875 34.4805 39.875 35.9105C39.875 37.3405 38.7157 38.4998 37.2857 38.4998H31.5893V44.196C31.5893 45.6261 30.43 46.7853 29 46.7853C27.57 46.7853 26.4107 45.6261 26.4107 44.196V38.4998H20.7143C19.2843 38.4998 18.125 37.3405 18.125 35.9105Z" fill="#0044FF"/>
</g>
<defs>
<clipPath id="clip0_104_3071">
<rect width="58" height="58" fill="white"/>
</clipPath>
</defs>
</svg>
