<svg width="58" height="58" viewBox="0 0 58 58" fill="none" xmlns="http://www.w3.org/2000/svg">
<g id="Online Medical Service Monitor">
<path id="icon" fill-rule="evenodd" clip-rule="evenodd" d="M6.03527 1.04379C2.70209 1.04379 0 3.74588 0 7.0791V38.5086C0 41.8416 2.7021 44.544 6.03527 44.544H22.7184L20.5001 50.7417H16.5714C14.8554 50.7417 13.4643 52.1329 13.4643 53.8489C13.4643 55.5652 14.8554 56.956 16.5714 56.956H41.4286C43.1445 56.956 44.5357 55.5652 44.5357 53.8489C44.5357 52.1329 43.1445 50.7417 41.4286 50.7417H37.5035L35.2853 44.544H51.9647C55.298 44.544 58 41.8416 58 38.5086V7.0791C58 3.74589 55.298 1.04379 51.9647 1.04379H6.03527ZM24.8066 12.0634C24.8066 11.1657 25.5343 10.438 26.4319 10.438H31.7142C32.6118 10.438 33.3395 11.1657 33.3395 12.0634V18.5273H39.8035C40.7011 18.5273 41.429 19.255 41.429 20.1526V25.4349C41.429 26.3326 40.7011 27.0603 39.8035 27.0603H33.3395L33.3393 33.5242C33.3393 34.4219 32.6116 35.1496 31.714 35.1496H26.4317C25.534 35.1496 24.8064 34.4219 24.8064 33.5242V27.0603H18.3424C17.4447 27.0603 16.7171 26.3326 16.7171 25.4349V20.1526C16.7171 19.255 17.4447 18.5273 18.3424 18.5273H24.8066V12.0634Z" fill="#0044FF"/>
</g>
</svg>
