<svg width="58" height="58" viewBox="0 0 58 58" fill="none" xmlns="http://www.w3.org/2000/svg">
<g id="Sos Help Emergency Sign">
<path id="icon" fill-rule="evenodd" clip-rule="evenodd" d="M0 23.9393C0 19.9707 3.21723 16.7535 7.18587 16.7535H10.7227C12.9965 16.7535 15.0426 17.746 16.4437 19.3115C17.1027 20.0477 17.6234 20.9146 17.9616 21.8714C18.5334 23.4893 17.6854 25.2645 16.0674 25.8364C14.4495 26.4082 12.6743 25.5602 12.1025 23.9422C12.0394 23.7639 11.9411 23.5987 11.8133 23.4559C11.5411 23.1518 11.1554 22.9678 10.7227 22.9678H7.18587C6.64929 22.9678 6.21429 23.4027 6.21429 23.9393C6.21429 24.3959 6.53221 24.7909 6.97823 24.8885L12.3631 26.0664C15.8884 26.8376 18.3992 29.9605 18.3992 33.5669C18.3992 37.805 14.9638 41.2451 10.7227 41.2451H7.67647C4.32924 41.2451 1.48995 39.1045 0.43761 36.1271C-0.134251 34.5092 0.713765 32.734 2.3317 32.1622C3.94964 31.5903 5.72481 32.4383 6.29669 34.0562C6.4989 34.6283 7.04468 35.0308 7.67647 35.0308H10.7227C11.5287 35.0308 12.1849 34.3759 12.1849 33.5669C12.1849 32.8787 11.7054 32.2838 11.0352 32.1371L5.65028 30.9592C2.35136 30.2376 0 27.3163 0 23.9393ZM39.5999 23.9393C39.5999 19.9707 42.8173 16.7535 46.7857 16.7535H50.3225C52.5965 16.7535 54.6426 17.746 56.0437 19.3115C56.7025 20.0477 57.2232 20.9146 57.5613 21.8714C58.1334 23.4893 57.2854 25.2645 55.6672 25.8364C54.0494 26.4082 52.2742 25.5602 51.7024 23.9422C51.6395 23.7639 51.5409 23.5987 51.4133 23.4559C51.1411 23.1518 50.7554 22.9678 50.3225 22.9678H46.7857C46.2492 22.9678 45.8142 23.4027 45.8142 23.9393C45.8142 24.3959 46.132 24.7909 46.5781 24.8885L51.963 26.0664C55.4882 26.8376 57.9992 29.9605 57.9992 33.5669C57.9992 37.805 54.5635 41.2451 50.3225 41.2451H47.2762C43.9292 41.2451 41.0898 39.1045 40.0375 36.1271C39.4656 34.5092 40.3136 32.734 41.9315 32.1622C43.5497 31.5903 45.3245 32.4383 45.8966 34.0562C46.0988 34.6283 46.6444 35.0308 47.2762 35.0308H50.3225C51.1287 35.0308 51.7849 34.3759 51.7849 33.5669C51.7849 32.8787 51.3051 32.2838 50.6352 32.1371L45.2504 30.9592C41.9514 30.2376 39.5999 27.3163 39.5999 23.9393ZM26.0142 24.4299C26.0142 23.6224 26.6689 22.9678 27.4764 22.9678H30.5226C31.3302 22.9678 31.9848 23.6224 31.9848 24.4299V33.5686C31.9848 34.3761 31.3302 35.0308 30.5226 35.0308H27.4764C26.6689 35.0308 26.0142 34.3761 26.0142 33.5686V24.4299ZM27.4764 16.7535C23.2368 16.7535 19.8 20.1904 19.8 24.4299V33.5686C19.8 37.8082 23.2368 41.2451 27.4764 41.2451H30.5226C34.7622 41.2451 38.1991 37.8082 38.1991 33.5686V24.4299C38.1991 20.1904 34.7622 16.7535 30.5226 16.7535H27.4764Z" fill="#0044FF"/>
</g>
</svg>
