<svg width="32" height="34" viewBox="0 0 32 34" fill="none" xmlns="http://www.w3.org/2000/svg">
<path d="M15.9521 0.714287L0 11.5075V22.3964L16.0479 33.2857L32 22.3964V11.5075L15.9521 0.714287ZM17.2814 4.45707L28.2528 11.7963L23.448 15.3623L17.2976 11.3144L17.2814 4.45707ZM14.6707 4.50478L14.7024 11.3144L8.55239 15.3623L3.7476 11.7963L14.6707 4.50478ZM2.4024 14.6875L6.05375 16.807L2.4024 19.5056V14.6875ZM14.6382 29.1414L3.7476 21.9142L8.64863 18.5416L14.6065 22.6856L14.6382 29.1414ZM11.339 17.0965L15.9521 13.5308L20.6606 16.7108L16.0483 20.2758L11.339 17.0965ZM17.4256 29.1414L17.3939 22.6856L23.351 18.5416L28.2524 21.9142L17.4256 29.1414ZM29.598 19.5056L25.9455 16.807L29.598 14.6875V19.5056Z" fill="#0044FF"/>
</svg>
