<svg width="175" height="41" viewBox="0 0 175 41" fill="none" xmlns="http://www.w3.org/2000/svg">
<path d="M19.9401 0L0 13.5861V27.2928L20.0599 41L40 27.2928V13.5861L19.9401 0ZM21.6017 4.71131L35.316 13.9497L29.31 18.4385L21.622 13.3432L21.6017 4.71131ZM18.3383 4.77137L18.378 13.3432L10.6905 18.4385L4.68449 13.9497L18.3383 4.77137ZM3.003 17.589L7.56719 20.257L3.003 23.6539V17.589ZM18.2978 35.7832L4.68449 26.6859L10.8108 22.4405L18.2581 27.6568L18.2978 35.7832ZM14.1738 20.6215L19.9401 16.1331L25.8258 20.136L20.0604 24.6235L14.1738 20.6215ZM21.782 35.7832L21.7423 27.6568L29.1888 22.4405L35.3155 26.6859L21.782 35.7832ZM36.9975 23.6539L32.4319 20.257L36.9975 17.589V23.6539Z" fill="#0044FF"/>
<path d="M48.7947 27.8129V17.4729H52.5224V18.9902H52.5558C52.913 18.4358 53.378 18.0012 53.9509 17.6865C54.5238 17.3643 55.1972 17.2032 55.971 17.2032C56.7225 17.2032 57.3698 17.3605 57.913 17.6752C58.4561 17.9899 58.8282 18.4545 59.0291 19.0689H59.0514C59.4457 18.477 59.9703 18.0162 60.625 17.6865C61.2798 17.3568 62.0127 17.192 62.8237 17.192C63.8505 17.192 64.6727 17.4842 65.2902 18.0686C65.9078 18.6455 66.2166 19.6084 66.2166 20.957V27.8129H62.3884V21.5977C62.3884 21.0132 62.2731 20.6086 62.0424 20.3838C61.8118 20.1516 61.4844 20.0317 61.0603 20.0242C60.6808 20.0242 60.3535 20.1441 60.0782 20.3838C59.8029 20.6236 59.5796 20.9308 59.4085 21.3055V27.8129H55.5804V21.5977C55.5804 21.0132 55.4651 20.6049 55.2344 20.3726C55.0038 20.1403 54.6727 20.0242 54.2411 20.0242C53.8616 20.0242 53.5343 20.1478 53.259 20.3951C52.9911 20.6349 52.7716 20.9421 52.6005 21.3167V27.8129H48.7947Z" fill="#001B66"/>
<path d="M67.5224 22.789V22.4294C67.5224 20.8184 68.0395 19.5372 69.0737 18.5856C70.1079 17.634 71.4993 17.1582 73.2478 17.1582C74.9591 17.1582 76.2761 17.619 77.1987 18.5406C78.1213 19.4548 78.5826 20.7098 78.5826 22.3057V23.3285H69.5313V21.4403H74.9107V21.3616C74.9107 20.9046 74.7694 20.5262 74.4866 20.2265C74.2113 19.9268 73.7872 19.7769 73.2143 19.7769C72.5893 19.7769 72.1168 20.0017 71.7969 20.4513C71.477 20.8934 71.317 21.4141 71.317 22.0135V22.8115C71.317 23.6507 71.4881 24.2988 71.8304 24.7558C72.1801 25.2054 72.6823 25.4302 73.3371 25.4302C73.8282 25.4302 74.2337 25.3328 74.5536 25.138C74.8735 24.9432 75.1228 24.6772 75.3014 24.34L78.5157 25.1492C78.1734 26.0708 77.593 26.7901 76.7746 27.3071C75.9561 27.8241 74.8215 28.0826 73.3706 28.0826C71.5105 28.0826 70.0707 27.6105 69.0514 26.6665C68.032 25.7224 67.5224 24.4299 67.5224 22.789Z" fill="#001B66"/>
<path d="M79.442 22.8115V22.4518C79.442 20.9383 79.8401 19.6945 80.6362 18.7205C81.4398 17.7389 82.4963 17.2482 83.8058 17.2482C84.602 17.2482 85.2753 17.3755 85.8259 17.6303C86.3765 17.885 86.8044 18.2222 87.1094 18.6418V11.4151H90.8259V27.8129H87.1652L87.1541 26.3181H87.1429C86.8378 26.7901 86.4026 27.1947 85.8371 27.5319C85.2716 27.869 84.5945 28.0376 83.8058 28.0376C82.4591 28.0376 81.3951 27.5469 80.6139 26.5653C79.8326 25.5763 79.442 24.325 79.442 22.8115ZM83.2813 22.7665C83.2813 23.5533 83.4375 24.1976 83.75 24.6996C84.0625 25.1942 84.5536 25.4414 85.2232 25.4414C85.6622 25.4414 86.038 25.3103 86.3505 25.048C86.663 24.7858 86.8899 24.4861 87.0313 24.1489V21.0582C86.8974 20.721 86.6741 20.4363 86.3616 20.204C86.0491 19.9643 85.6697 19.8444 85.2232 19.8444C84.5536 19.8444 84.0625 20.0954 83.75 20.5974C83.4375 21.0919 83.2813 21.7325 83.2813 22.5193V22.7665Z" fill="#001B66"/>
<path d="M92.7344 27.8129V17.4729H96.6072V27.8129H92.7344ZM92.5335 13.8315C92.5335 13.292 92.7195 12.835 93.0916 12.4603C93.4636 12.0782 93.9956 11.8871 94.6875 11.8871C95.3721 11.8871 95.8966 12.0745 96.2612 12.4491C96.6258 12.8162 96.8081 13.277 96.8081 13.8315C96.8081 14.3785 96.6183 14.8468 96.2389 15.2364C95.8669 15.6185 95.3386 15.8096 94.6541 15.8096C93.9695 15.8096 93.445 15.6185 93.0804 15.2364C92.7158 14.8468 92.5335 14.3785 92.5335 13.8315Z" fill="#001B66"/>
<path d="M98.0357 22.8002V22.4294C98.0357 20.7735 98.5417 19.481 99.5536 18.5519C100.566 17.6153 101.931 17.147 103.65 17.147C105.376 17.147 106.7 17.5104 107.623 18.2372C108.553 18.9565 109.048 20.013 109.107 21.4066L109.118 21.6539H105.435V21.5078C105.435 20.9908 105.294 20.5862 105.011 20.2939C104.736 19.9942 104.327 19.8444 103.784 19.8444C103.173 19.8444 102.701 20.0542 102.366 20.4738C102.039 20.8859 101.875 21.4928 101.875 22.2945V22.9126C101.875 23.6919 102.035 24.3063 102.355 24.7558C102.682 25.1979 103.155 25.4189 103.772 25.4189C104.33 25.4189 104.747 25.2728 105.022 24.9806C105.305 24.6884 105.45 24.2875 105.458 23.778V23.6207H109.129L109.118 23.8792C109.096 25.2279 108.616 26.2656 107.679 26.9924C106.741 27.7192 105.409 28.0826 103.683 28.0826C101.964 28.0826 100.592 27.6105 99.5648 26.6665C98.5454 25.7224 98.0357 24.4336 98.0357 22.8002Z" fill="#001B66"/>
<path d="M110.469 27.8129V11.4151H114.275V18.8553C114.528 18.3608 114.941 17.9637 115.513 17.664C116.094 17.3568 116.808 17.2032 117.656 17.2032C118.713 17.2032 119.565 17.4992 120.212 18.0911C120.867 18.6755 121.194 19.6346 121.194 20.9683V27.8129H117.377V21.6651C117.377 21.0732 117.255 20.6536 117.009 20.4063C116.763 20.1516 116.421 20.0242 115.982 20.0242C115.595 20.0242 115.253 20.1441 114.955 20.3838C114.658 20.6236 114.431 20.9271 114.275 21.2942V27.8129H110.469Z" fill="#001B66"/>
<path d="M122.5 22.789V22.4294C122.5 20.8184 123.017 19.5372 124.051 18.5856C125.086 17.634 126.477 17.1582 128.225 17.1582C129.937 17.1582 131.254 17.619 132.176 18.5406C133.099 19.4548 133.56 20.7098 133.56 22.3057V23.3285H124.509V21.4403H129.888V21.3616C129.888 20.9046 129.747 20.5262 129.464 20.2265C129.189 19.9268 128.765 19.7769 128.192 19.7769C127.567 19.7769 127.095 20.0017 126.775 20.4513C126.455 20.8934 126.295 21.4141 126.295 22.0135V22.8115C126.295 23.6507 126.466 24.2988 126.808 24.7558C127.158 25.2054 127.66 25.4302 128.315 25.4302C128.806 25.4302 129.211 25.3328 129.531 25.138C129.851 24.9432 130.1 24.6772 130.279 24.34L133.493 25.1492C133.151 26.0708 132.571 26.7901 131.752 27.3071C130.934 27.8241 129.799 28.0826 128.348 28.0826C126.488 28.0826 125.048 27.6105 124.029 26.6665C123.01 25.7224 122.5 24.4299 122.5 22.789Z" fill="#001B66"/>
<path d="M134.587 24.4524L137.935 24.4861V24.7109C137.935 25.1979 138.092 25.5351 138.404 25.7224C138.717 25.9022 139.133 25.9921 139.654 25.9921C140.16 25.9921 140.528 25.9209 140.759 25.7786C140.997 25.6287 141.116 25.3965 141.116 25.0818C141.116 24.7821 140.949 24.546 140.614 24.3737C140.286 24.2014 139.669 24.0328 138.761 23.8679C137.377 23.6132 136.373 23.2161 135.748 22.6766C135.13 22.1296 134.821 21.3766 134.821 20.4176C134.821 19.3536 135.253 18.5444 136.116 17.9899C136.987 17.428 138.199 17.147 139.755 17.147C141.272 17.147 142.459 17.4355 143.315 18.0124C144.178 18.5894 144.609 19.4173 144.609 20.4962V20.7323H141.272V20.4962C141.272 20.0692 141.131 19.7694 140.848 19.5971C140.573 19.4173 140.175 19.3274 139.654 19.3274C139.208 19.3274 138.884 19.3948 138.683 19.5297C138.49 19.6571 138.393 19.8631 138.393 20.1478C138.393 20.4026 138.557 20.6086 138.884 20.766C139.211 20.9233 139.829 21.0844 140.737 21.2493C142.202 21.4965 143.263 21.8786 143.917 22.3956C144.572 22.9126 144.9 23.6207 144.9 24.5198C144.9 25.7186 144.461 26.614 143.583 27.2059C142.705 27.7904 141.429 28.0826 139.755 28.0826C138.125 28.0826 136.868 27.7866 135.982 27.1947C135.097 26.6028 134.635 25.7561 134.598 24.6547L134.587 24.4524Z" fill="#001B66"/>
<path d="M145.592 20.2265V17.4729H153.181V20.2265H145.592ZM147.199 24.5648V17.9787L147.31 17.8438V14.0338H150.938V23.5982C150.938 24.3475 151.031 24.827 151.217 25.0368C151.403 25.2466 151.708 25.3515 152.132 25.3515C152.325 25.3515 152.507 25.3403 152.679 25.3178C152.857 25.2878 153.028 25.2429 153.192 25.1829V27.7567C152.984 27.8166 152.664 27.8765 152.232 27.9365C151.801 28.0039 151.25 28.0376 150.58 28.0376C149.487 28.0376 148.65 27.7679 148.069 27.2284C147.489 26.6815 147.199 25.7936 147.199 24.5648Z" fill="#001B66"/>
</svg>
